<?xml version="1.0" encoding="UTF-8"?>
<!DOCTYPE svg PUBLIC "-//W3C//DTD SVG 1.1//EN" "http://www.w3.org/Graphics/SVG/1.1/DTD/svg11.dtd">
<!-- Creator: CorelDRAW 2018 (64-Bit) -->
<svg xmlns="http://www.w3.org/2000/svg" xml:space="preserve" width="29px" height="23px" version="1.1" style="shape-rendering:geometricPrecision; text-rendering:geometricPrecision; image-rendering:optimizeQuality; fill-rule:evenodd; clip-rule:evenodd"
viewBox="0 0 2.943 2.358"
 xmlns:xlink="http://www.w3.org/1999/xlink">
 <defs>
  <style type="text/css">
   <![CDATA[
    .fil0 {fill:#DBA71F;fill-rule:nonzero}
   ]]>
  </style>
 </defs>
 <g id="Слой_x0020_1">
  <metadata id="CorelCorpID_0Corel-Layer"/>
  <g id="_1689947229120">
   <path class="fil0" d="M2.886 1.959l-0.18 0c0.015,-0.029 0.024,-0.062 0.024,-0.098l0 -1.318c0,-0.117 -0.096,-0.213 -0.213,-0.213l-0.227 0 0 -0.133c0,-0.109 -0.088,-0.197 -0.197,-0.197l-1.248 0c-0.108,0 -0.196,0.088 -0.196,0.197l0 0.133 -0.221 0c-0.118,0 -0.213,0.096 -0.213,0.213l0 1.318c0,0.036 0.008,0.069 0.024,0.098l-0.182 0c-0.031,0 -0.057,0.026 -0.057,0.058l0 0.124c0,0.12 0.097,0.217 0.217,0.217l2.509 0c0.12,0 0.217,-0.097 0.217,-0.217l0 -0.124c0,-0.032 -0.025,-0.058 -0.057,-0.058zm-2.041 -1.844l1.248 0c0.045,0 0.082,0.037 0.082,0.082l0 1.057 -0.095 -0.087c-0.011,-0.01 -0.025,-0.015 -0.039,-0.015l-1.196 0c-0.024,0 -0.046,-0.011 -0.061,-0.028 -0.012,-0.014 -0.02,-0.033 -0.02,-0.054l0 -0.682c0,0 0,0 0,0l0 -0.191c0,-0.045 0.036,-0.082 0.081,-0.082zm-0.515 0.428c0,-0.054 0.044,-0.098 0.098,-0.098l0.221 0 0 0.104 -0.157 0c-0.031,0 -0.057,0.026 -0.057,0.058l0 1.199c0,0.032 0.026,0.058 0.057,0.058l0.117 0c0.031,0 0.057,-0.026 0.057,-0.058 0,-0.031 -0.026,-0.057 -0.057,-0.057l-0.059 0 0 -1.085 0.099 0 0 0.406c0,0.049 0.018,0.094 0.047,0.128 0.036,0.042 0.09,0.069 0.15,0.069l1.173 0 0.095 0.087 0.08 0.072c0.015,0.015 0.038,0.019 0.057,0.012 0.023,-0.007 0.039,-0.03 0.039,-0.054l0 -0.72 0.111 0 0 1.085 -1.344 0c-0.032,0 -0.057,0.026 -0.057,0.057 0,0.032 0.025,0.058 0.057,0.058l1.401 0c0.032,0 0.058,-0.026 0.058,-0.058l0 -1.199c0,-0.032 -0.026,-0.058 -0.058,-0.058l-0.168 0 0 -0.104 0.227 0c0.054,0 0.098,0.044 0.098,0.098l0 1.318c0,0.054 -0.044,0.098 -0.098,0.098l-2.089 0c-0.054,0 -0.098,-0.044 -0.098,-0.098l0 -1.318zm2.498 1.598c0,0.057 -0.046,0.102 -0.102,0.102l-2.509 0c-0.056,0 -0.102,-0.045 -0.102,-0.102l0 -0.067 2.713 0 0 0.067z"/>
   <path class="fil0" d="M1.083 0.662l0.109 0 0 0.247 -0.052 0c-0.032,0 -0.057,0.026 -0.057,0.058 0,0.031 0.025,0.057 0.057,0.057l0.659 0c0.031,0 0.057,-0.026 0.057,-0.057 0,-0.032 -0.026,-0.058 -0.057,-0.058l-0.052 0 0 -0.247 0.109 0c0.032,0 0.058,-0.026 0.058,-0.057l0 -0.111c0,-0.02 -0.01,-0.038 -0.027,-0.048l-0.387 -0.245c-0.019,-0.012 -0.043,-0.012 -0.061,0l-0.387 0.245c-0.017,0.01 -0.027,0.028 -0.027,0.048l0 0.111c0,0.031 0.026,0.057 0.058,0.057zm0.224 0l0.105 0 0 0.247 -0.105 0 0 -0.247zm0.325 0.247l-0.105 0 0 -0.247 0.105 0 0 0.247zm-0.492 -0.383l0.329 -0.209 0.33 0.209 0 0.021 -0.659 0 0 -0.021z"/>
   <path class="fil0" d="M0.833 1.864c0.032,0 0.057,-0.026 0.057,-0.058l0 -0.002c0,-0.032 -0.025,-0.057 -0.057,-0.057 -0.032,0 -0.058,0.025 -0.058,0.057l0 0.002c0,0.032 0.026,0.058 0.058,0.058z"/>
  </g>
 </g>
</svg>
