<?xml version="1.0" encoding="UTF-8"?>
<!DOCTYPE svg PUBLIC "-//W3C//DTD SVG 1.1//EN" "http://www.w3.org/Graphics/SVG/1.1/DTD/svg11.dtd">
<!-- Creator: CorelDRAW 2018 (64-Bit) -->
<svg xmlns="http://www.w3.org/2000/svg" xml:space="preserve" width="25px" height="25px" version="1.1" style="shape-rendering:geometricPrecision; text-rendering:geometricPrecision; image-rendering:optimizeQuality; fill-rule:evenodd; clip-rule:evenodd"
viewBox="0 0 1.533 1.533"
 xmlns:xlink="http://www.w3.org/1999/xlink">
 <defs>
  <style type="text/css">
   <![CDATA[
    .fil0 {fill:#DBA71F;fill-rule:nonzero}
   ]]>
  </style>
 </defs>
 <g id="Слой_x0020_1">
  <metadata id="CorelCorpID_0Corel-Layer"/>
  <g id="_1687960687696">
   <path class="fil0" d="M1.463 1.08c0,0.019 -0.015,0.035 -0.034,0.035l-0.244 0c-0.077,0 -0.14,-0.063 -0.14,-0.139 0,-0.077 0.063,-0.14 0.14,-0.14l0.244 0c0.019,0 0.034,0.016 0.034,0.035l0 0.209zm-0.139 0.383l-1.185 0c-0.038,0 -0.069,-0.031 -0.069,-0.069l0 -0.837c0,-0.038 0.031,-0.069 0.069,-0.069l1.185 0c0.038,0 0.07,0.031 0.07,0.069l0 0.21 -0.209 0c-0.116,0 -0.209,0.093 -0.209,0.209 0,0.115 0.093,0.209 0.209,0.209l0.209 0 0 0.209c0,0.038 -0.032,0.069 -0.07,0.069zm-0.343 -1.384c0.016,-0.009 0.034,-0.012 0.052,-0.007 0.017,0.005 0.032,0.016 0.041,0.032l0.001 0.001 -0.539 0.313 -0.138 0 0.583 -0.339zm0.197 0.207l0.076 0.132 -0.304 0 0.228 -0.132zm-0.504 0.132l0.435 -0.253 0.035 0.06 -0.332 0.193 -0.138 0zm0.789 0.355l0 -0.216c0,-0.073 -0.056,-0.132 -0.128,-0.138l-0.2 -0.349c-0.019,-0.033 -0.049,-0.056 -0.084,-0.065 -0.036,-0.01 -0.073,-0.005 -0.105,0.014l-0.686 0.399 -0.121 0c-0.076,0 -0.139,0.063 -0.139,0.139l0 0.837c0,0.077 0.063,0.139 0.139,0.139l1.185 0c0.077,0 0.139,-0.062 0.139,-0.139l0 -0.216c0.041,-0.014 0.07,-0.053 0.07,-0.098l0 -0.209c0,-0.045 -0.029,-0.084 -0.07,-0.098z"/>
   <path class="fil0" d="M1.185 0.906c-0.039,0 -0.07,0.031 -0.07,0.07 0,0.038 0.031,0.069 0.07,0.069 0.038,0 0.069,-0.031 0.069,-0.069 0,-0.039 -0.031,-0.07 -0.069,-0.07z"/>
  </g>
 </g>
</svg>
