<?xml version="1.0" encoding="UTF-8"?>
<!DOCTYPE svg PUBLIC "-//W3C//DTD SVG 1.1//EN" "http://www.w3.org/Graphics/SVG/1.1/DTD/svg11.dtd">
<!-- Creator: CorelDRAW 2018 (64-Bit) -->
<svg xmlns="http://www.w3.org/2000/svg" xml:space="preserve" width="22px" height="30px" version="1.1" style="shape-rendering:geometricPrecision; text-rendering:geometricPrecision; image-rendering:optimizeQuality; fill-rule:evenodd; clip-rule:evenodd"
viewBox="0 0 0.127 0.17"
 xmlns:xlink="http://www.w3.org/1999/xlink">
 <defs>
  <style type="text/css">
   <![CDATA[
    .fil0 {fill:#DBA71F}
   ]]>
  </style>
 </defs>
 <g id="Слой_x0020_1">
  <metadata id="CorelCorpID_0Corel-Layer"/>
  <path class="fil0" d="M0.118 0.143c0.006,-0.009 0.009,-0.019 0.009,-0.03 0,-0.024 -0.016,-0.045 -0.039,-0.053 0,0 0,0 0,0 -0.003,-0.005 -0.008,-0.009 -0.014,-0.01 0,0 0,0 0,0 -0.001,0 -0.001,-0.001 0,-0.001l0.003 -0.007c0.001,-0.001 0,-0.003 -0.001,-0.003 -0.001,0 -0.001,-0.001 -0.001,-0.001l0.004 -0.007c0,0 0,0 0.001,0 0.001,0.001 0.003,0 0.003,-0.001l0.008 -0.015c0,-0.002 0,-0.003 -0.001,-0.004l-0.022 -0.011c-0.001,0 -0.003,0 -0.003,0.002l-0.008 0.015c-0.001,0.001 0,0.003 0.001,0.003 0.001,0 0.001,0.001 0.001,0.001l-0.004 0.007c0,0 0,0 -0.001,0 -0.001,-0.001 -0.003,0 -0.003,0.001l-0.029 0.058c-0.001,0.002 0,0.003 0.001,0.004l0.021 0.011c0.001,0 0.001,0 0.002,0 0.001,0 0.002,-0.001 0.002,-0.002l0.007 -0.014c0,0 0.001,-0.001 0.001,-0.001 0,0 0,0 0.001,0.001 0.003,0.003 0.008,0.005 0.014,0.005 0.004,0 0.008,-0.001 0.012,-0.004 0,0 0,0 0,0 0.011,0.005 0.017,0.015 0.017,0.026 0,0.017 -0.013,0.03 -0.029,0.03l-0.029 0c0,0 -0.001,-0.001 -0.001,-0.001l0 -0.007c0,-0.001 0.001,-0.001 0.001,-0.001l0.011 0c0.001,0 0.002,-0.001 0.002,-0.003 0,-0.001 -0.001,-0.003 -0.002,-0.003l-0.05 0c-0.002,0 -0.003,0.002 -0.003,0.003 0,0.002 0.001,0.003 0.003,0.003l0.01 0c0.001,0 0.001,0 0.001,0.001l0 0.007c0,0 0,0.001 -0.001,0.001 -0.007,0 -0.013,0.006 -0.013,0.013l0 0.011c0,0.001 0.001,0.003 0.003,0.003l0.121 0c0.002,0 0.003,-0.002 0.003,-0.003l0 -0.011c0,-0.005 -0.003,-0.01 -0.008,-0.012 -0.001,0 -0.001,0 -0.001,-0.001 0,0 0,0 0,0zm-0.074 -0.048l-0.015 -0.007c-0.001,-0.001 -0.001,-0.001 -0.001,-0.002l0.026 -0.051c0,0 0.001,-0.001 0.001,0 0.001,0 0.003,0 0.004,-0.002l0.006 -0.012c0.001,-0.002 0,-0.003 -0.001,-0.004 -0.001,0 -0.001,-0.001 -0.001,-0.001l0.005 -0.009c0,0 0.001,0 0.001,0l0.015 0.007c0,0 0.001,0.001 0,0.001l-0.004 0.009c0,0 -0.001,0.001 -0.001,0 -0.001,0 -0.003,0 -0.004,0.002l-0.006 0.012c-0.001,0.002 0,0.003 0.001,0.004 0,0 0.001,0.001 0,0.001l-0.003 0.007c0,0 0,0 0,0 -0.01,0.002 -0.017,0.011 -0.017,0.021 0,0.003 0.001,0.006 0.002,0.008 0,0.001 0,0.001 0,0.001l-0.007 0.015c0,0 -0.001,0 -0.001,0zm0.027 -0.009c-0.009,0 -0.016,-0.007 -0.016,-0.015 0,-0.009 0.007,-0.016 0.016,-0.016 0.008,0 0.015,0.007 0.015,0.016 0,0.008 -0.007,0.015 -0.015,0.015zm0.034 0.027c0,-0.012 -0.006,-0.024 -0.017,-0.03 0,0 0,0 -0.001,0 0,-0.001 0,-0.001 0.001,-0.001 0.002,-0.003 0.003,-0.007 0.003,-0.011 0,-0.001 0,-0.002 0,-0.003 0,0 0,0 0,-0.001 0,0 0.001,0 0.001,0 0.018,0.009 0.029,0.027 0.029,0.046 0,0.011 -0.003,0.021 -0.009,0.029 0,0.001 0,0.001 -0.001,0.001l-0.019 0c-0.001,0 -0.001,0 -0.001,-0.001 0,0 0,-0.001 0,-0.001 0.009,-0.006 0.014,-0.017 0.014,-0.028zm-0.084 0.021l0.014 0c0,0 0.001,0 0.001,0.001l0 0.007c0,0 -0.001,0.001 -0.001,0.001l-0.014 0c-0.001,0 -0.001,-0.001 -0.001,-0.001l0 -0.007c0,-0.001 0,-0.001 0.001,-0.001zm0.1 0.03l-0.115 0c0,0 -0.001,0 -0.001,-0.001l0 -0.007c0,-0.004 0.004,-0.008 0.008,-0.008l0.1 0c0.005,0 0.008,0.004 0.008,0.008l0 0.007c0,0.001 0,0.001 0,0.001z"/>
 </g>
</svg>
