<?xml version="1.0" encoding="UTF-8"?>
<!DOCTYPE svg PUBLIC "-//W3C//DTD SVG 1.1//EN" "http://www.w3.org/Graphics/SVG/1.1/DTD/svg11.dtd">
<!-- Creator: CorelDRAW 2018 (64-Bit) -->
<svg xmlns="http://www.w3.org/2000/svg" xml:space="preserve" width="25px" height="28px" version="1.1" style="shape-rendering:geometricPrecision; text-rendering:geometricPrecision; image-rendering:optimizeQuality; fill-rule:evenodd; clip-rule:evenodd"
viewBox="0 0 1.558 1.731"
 xmlns:xlink="http://www.w3.org/1999/xlink">
 <defs>
  <style type="text/css">
   <![CDATA[
    .str0 {stroke:#DBA71F;stroke-width:0.061;stroke-miterlimit:22.9256}
    .fil1 {fill:none}
    .fil0 {fill:#DBA71F;fill-rule:nonzero}
   ]]>
  </style>
 </defs>
 <g id="Слой_x0020_1">
  <metadata id="CorelCorpID_0Corel-Layer"/>
  <g id="_1689947238912">
   <path class="fil0" d="M1.241 0.346c0.101,0 0.187,-0.075 0.2,-0.175 0.068,-0.014 0.117,-0.073 0.117,-0.142 0,-0.016 -0.013,-0.029 -0.029,-0.029l-1.5 0c-0.016,0 -0.029,0.013 -0.029,0.029 0,0.069 0.049,0.128 0.117,0.142 0.013,0.1 0.099,0.175 0.2,0.175l0.375 0 0 0.116 -0.203 0c-0.129,0 -0.238,0.095 -0.257,0.224l-0.116 0.839c-0.001,0.002 -0.001,0.003 -0.001,0.004l0 0.173c0,0.016 0.013,0.029 0.029,0.029l1.27 0c0.016,0 0.029,-0.013 0.029,-0.029l0 -0.173c0,-0.001 0,-0.002 -0.001,-0.004l-0.116 -0.839c-0.019,-0.129 -0.128,-0.224 -0.257,-0.224l-0.203 0 0 -0.116 0.375 0zm-1.065 -0.173l0.834 0c0.016,0 0.029,-0.013 0.029,-0.029 0,-0.016 -0.013,-0.029 -0.029,-0.029l-0.866 0c-0.036,0 -0.069,-0.023 -0.081,-0.057l1.432 0c-0.012,0.034 -0.045,0.057 -0.081,0.057l-0.173 0c-0.016,0 -0.029,0.013 -0.029,0.029 0,0.016 0.013,0.029 0.029,0.029l0.141 0c-0.014,0.067 -0.073,0.115 -0.141,0.116l-0.924 0c-0.068,-0.001 -0.127,-0.049 -0.141,-0.116zm-0.003 1.5l0 -0.115 1.212 0 0 0.115 -1.212 0zm1.096 -0.979l0.112 0.806 -1.204 0 0.112 -0.806c0.015,-0.1 0.1,-0.174 0.2,-0.175l0.58 0c0.1,0.001 0.185,0.075 0.2,0.175zm-0.461 -0.232l-0.058 0 0 -0.116 0.058 0 0 0.116z"/>
   <path class="fil0" d="M0.808 0.928l0 -0.122 0.016 0.008c0.007,0.004 0.015,0.004 0.022,0.002 0.007,-0.002 0.013,-0.008 0.017,-0.015 0.003,-0.006 0.004,-0.014 0.001,-0.022 -0.002,-0.007 -0.007,-0.013 -0.014,-0.016l-0.058 -0.029c-0.008,-0.004 -0.018,-0.004 -0.026,0l-0.058 0.029c-0.014,0.007 -0.019,0.024 -0.012,0.038 0.007,0.014 0.024,0.02 0.038,0.013l0.016 -0.008 0 0.122c-0.04,0.014 -0.063,0.055 -0.056,0.096 0.007,0.042 0.043,0.072 0.085,0.072 0.042,0 0.078,-0.03 0.085,-0.072 0.007,-0.041 -0.016,-0.082 -0.056,-0.096zm-0.029 0.111c-0.012,0 -0.022,-0.007 -0.027,-0.018 -0.004,-0.011 -0.002,-0.023 0.007,-0.032 0.008,-0.008 0.02,-0.01 0.031,-0.006 0.011,0.005 0.018,0.015 0.018,0.027 0,0.016 -0.013,0.029 -0.029,0.029z"/>
   <circle class="fil1 str0" cx="0.779" cy="1.01" r="0.4"/>
  </g>
 </g>
</svg>
