<?xml version="1.0" encoding="UTF-8"?>
<!DOCTYPE svg PUBLIC "-//W3C//DTD SVG 1.1//EN" "http://www.w3.org/Graphics/SVG/1.1/DTD/svg11.dtd">
<!-- Creator: CorelDRAW 2018 (64-Bit) -->
<svg xmlns="http://www.w3.org/2000/svg" xml:space="preserve" width="17px" height="17px" version="1.1" style="shape-rendering:geometricPrecision; text-rendering:geometricPrecision; image-rendering:optimizeQuality; fill-rule:evenodd; clip-rule:evenodd"
viewBox="0 0 0.244 0.244"
 xmlns:xlink="http://www.w3.org/1999/xlink">
 <defs>
  <style type="text/css">
   <![CDATA[
    .fil0 {fill:#DBA71F;fill-rule:nonzero}
   ]]>
  </style>
 </defs>
 <g id="Слой_x0020_1">
  <metadata id="CorelCorpID_0Corel-Layer"/>
  <path class="fil0" d="M0.019 0.167c0,0.01 0.009,0.019 0.019,0.019l0.01 0 0 -0.07 -0.01 0c-0.01,0 -0.019,0.008 -0.019,0.019l0 0.032zm0.019 -0.07l0.019 0c0.005,0 0.01,0.004 0.01,0.009l0 0.099c0,0.006 0.004,0.01 0.009,0.01l0.029 0 0 0c0.003,-0.006 0.01,-0.01 0.017,-0.01 0.01,0 0.019,0.009 0.019,0.019 0,0.011 -0.009,0.02 -0.019,0.02 -0.007,0 -0.014,-0.004 -0.017,-0.01l0 0 -0.029 0c-0.016,0 -0.028,-0.013 -0.028,-0.029l0 0 -0.01 0c-0.021,0 -0.038,-0.017 -0.038,-0.038l0 -0.032c0,-0.021 0.017,-0.038 0.038,-0.038zm0.158 0.089l0.009 0c0.011,0 0.019,-0.009 0.019,-0.019l0 -0.032c0,-0.011 -0.008,-0.019 -0.019,-0.019l-0.009 0 0 0.07zm-0.01 -0.089l0.019 0c-0.003,-0.044 -0.039,-0.078 -0.083,-0.078 -0.035,0 -0.067,0.022 -0.079,0.055 -0.002,0.005 -0.007,0.007 -0.012,0.005 -0.005,-0.002 -0.007,-0.007 -0.006,-0.012 0.008,-0.019 0.02,-0.036 0.037,-0.048 0.018,-0.012 0.038,-0.019 0.06,-0.019 0.027,0 0.053,0.011 0.072,0.03 0.02,0.019 0.03,0.045 0.03,0.072 0.012,0.006 0.02,0.019 0.02,0.033l0 0.032c0,0.021 -0.018,0.038 -0.039,0.038l-0.019 0c-0.005,0 -0.009,-0.004 -0.009,-0.01l0 -0.089c0,-0.005 0.004,-0.009 0.009,-0.009z"/>
 </g>
</svg>
