<?xml version="1.0" encoding="UTF-8"?>
<!DOCTYPE svg PUBLIC "-//W3C//DTD SVG 1.1//EN" "http://www.w3.org/Graphics/SVG/1.1/DTD/svg11.dtd">
<!-- Creator: CorelDRAW 2018 (64-Bit) -->
<svg xmlns="http://www.w3.org/2000/svg" xml:space="preserve" width="65px" height="75px" version="1.1" style="shape-rendering:geometricPrecision; text-rendering:geometricPrecision; image-rendering:optimizeQuality; fill-rule:evenodd; clip-rule:evenodd"
viewBox="0 0 2.818 3.254"
 xmlns:xlink="http://www.w3.org/1999/xlink">
 <defs>
  <style type="text/css">
   <![CDATA[
    .str0 {stroke:#DBA71F;stroke-width:0.043;stroke-miterlimit:22.9256}
    .fil0 {fill:#FEFEFE}
    .fil1 {fill:#DBA71F;fill-rule:nonzero}
   ]]>
  </style>
 </defs>
 <g id="Слой_x0020_1">
  <metadata id="CorelCorpID_0Corel-Layer"/>
  <polygon class="fil0 str0" points="1.409,0.025 2.102,0.425 2.796,0.826 2.796,1.627 2.796,2.428 2.102,2.828 1.409,3.229 0.715,2.828 0.022,2.428 0.022,1.627 0.022,0.826 0.715,0.425 "/>
  <g id="_2005894114848">
   <path class="fil1" d="M1.4 2.441c0.285,0.001 0.545,-0.162 0.67,-0.418 0.125,-0.256 0.092,-0.561 -0.084,-0.785l0.07 -0.07 0.026 0.026c0.022,0.023 0.055,0.033 0.087,0.025 0.031,-0.009 0.055,-0.033 0.064,-0.064 0.008,-0.032 -0.002,-0.065 -0.025,-0.087l-0.179 -0.179c-0.022,-0.023 -0.055,-0.032 -0.086,-0.024 -0.032,0.008 -0.056,0.032 -0.064,0.064 -0.008,0.031 0.001,0.064 0.024,0.086l0.026 0.027 -0.069 0.069c-0.099,-0.077 -0.216,-0.129 -0.341,-0.149l0 -0.099 0.015 0c0.058,0 0.105,-0.047 0.105,-0.104 0,-0.058 -0.047,-0.104 -0.105,-0.104l-0.268 0c-0.057,0 -0.104,0.046 -0.104,0.104 0,0.057 0.047,0.104 0.104,0.104l0.015 0 0 0.099c-0.383,0.062 -0.654,0.408 -0.622,0.795 0.031,0.386 0.353,0.684 0.741,0.684zm0.545 -1.51c0.012,-0.011 0.031,-0.011 0.042,0l0.179 0.179c0.012,0.012 0.012,0.03 0,0.042 -0.012,0.011 -0.03,0.011 -0.042,0l-0.179 -0.179c-0.011,-0.011 -0.011,-0.03 0,-0.042zm0.026 0.153l0.042 0.042 -0.066 0.066c-0.013,-0.014 -0.027,-0.028 -0.042,-0.042l0.066 -0.066zm-0.749 -0.325c0,-0.025 0.02,-0.045 0.044,-0.045l0.268 0c0.025,0 0.045,0.02 0.045,0.045 0,0.024 -0.02,0.044 -0.045,0.044l-0.268 0c-0.012,0 -0.023,-0.004 -0.031,-0.013 -0.009,-0.008 -0.013,-0.019 -0.013,-0.031zm0.119 0.104l0.119 0 0 0.092c-0.02,-0.002 -0.04,-0.003 -0.06,-0.003 -0.02,0 -0.04,0.001 -0.059,0.003l0 -0.092zm0.059 0.149c0.379,0 0.685,0.307 0.685,0.685 0,0.378 -0.306,0.685 -0.685,0.685 -0.378,0 -0.685,-0.307 -0.685,-0.685 0.001,-0.378 0.307,-0.685 0.685,-0.685z"/>
   <path class="fil1" d="M1.4 2.292c0.329,0 0.596,-0.266 0.596,-0.595 0,-0.329 -0.267,-0.596 -0.596,-0.596 -0.329,0 -0.595,0.267 -0.595,0.596 0,0.329 0.267,0.595 0.595,0.595zm0 -1.131c0.296,0 0.536,0.24 0.536,0.536 0,0.296 -0.24,0.536 -0.536,0.536 -0.296,0 -0.536,-0.24 -0.536,-0.536 0.001,-0.296 0.24,-0.536 0.536,-0.536z"/>
   <path class="fil1" d="M1.556 1.31c0.147,0.06 0.248,0.198 0.26,0.357l-0.207 0c-0.017,0 -0.03,0.013 -0.03,0.03 0,0.016 0.013,0.03 0.03,0.03l0.207 0c0.017,0 0.032,-0.007 0.043,-0.019 0.012,-0.013 0.018,-0.029 0.017,-0.046 -0.014,-0.181 -0.13,-0.339 -0.298,-0.407 -0.01,-0.004 -0.021,-0.003 -0.03,0.004 -0.008,0.006 -0.013,0.017 -0.011,0.028 0.001,0.01 0.009,0.019 0.019,0.023z"/>
   <path class="fil1" d="M1.4 1.816c0.066,0 0.119,-0.053 0.119,-0.119 0,-0.02 -0.005,-0.039 -0.014,-0.056l-0.03 -0.391c-0.003,-0.039 -0.036,-0.069 -0.075,-0.069 -0.039,0 -0.071,0.03 -0.074,0.069l-0.03 0.391c-0.01,0.017 -0.015,0.036 -0.015,0.056 0,0.066 0.054,0.119 0.119,0.119zm0 -0.06c-0.033,0 -0.059,-0.026 -0.059,-0.059 0,-0.033 0.026,-0.06 0.059,-0.06 0.033,0 0.06,0.027 0.06,0.06 0,0.033 -0.027,0.059 -0.06,0.059zm0 -0.515c0.008,0 0.015,0.006 0.016,0.014l0.025 0.33c-0.026,-0.01 -0.055,-0.01 -0.081,0l0.025 -0.33c0.001,-0.008 0.007,-0.014 0.015,-0.014z"/>
  </g>
 </g>
</svg>
