<?xml version="1.0" encoding="UTF-8"?>
<!DOCTYPE svg PUBLIC "-//W3C//DTD SVG 1.1//EN" "http://www.w3.org/Graphics/SVG/1.1/DTD/svg11.dtd">
<!-- Creator: CorelDRAW 2018 (64-Bit) -->
<svg xmlns="http://www.w3.org/2000/svg" xml:space="preserve" width="65px" height="75px" version="1.1" style="shape-rendering:geometricPrecision; text-rendering:geometricPrecision; image-rendering:optimizeQuality; fill-rule:evenodd; clip-rule:evenodd"
viewBox="0 0 3.195 3.689"
 xmlns:xlink="http://www.w3.org/1999/xlink">
 <defs>
  <style type="text/css">
   <![CDATA[
    .str0 {stroke:#DBA71F;stroke-width:0.049;stroke-miterlimit:22.9256}
    .fil0 {fill:#FEFEFE}
    .fil1 {fill:#DBA71F}
   ]]>
  </style>
 </defs>
 <g id="Слой_x0020_1">
  <metadata id="CorelCorpID_0Corel-Layer"/>
  <polygon class="fil0 str0" points="1.597,0.028 2.384,0.482 3.17,0.936 3.17,1.845 3.17,2.753 2.384,3.207 1.597,3.661 0.811,3.207 0.025,2.753 0.025,1.845 0.025,0.936 0.811,0.482 "/>
  <path class="fil1" d="M2.549 1.689c-0.019,-0.061 -0.077,-0.101 -0.14,-0.099l-0.014 0.001c-0.04,0.001 -0.078,0.018 -0.106,0.046l-0.226 0.223 -0.004 -0.006c-0.005,-0.008 -0.011,-0.015 -0.017,-0.022 -0.028,-0.029 -0.067,-0.045 -0.107,-0.045l-0.31 0c-0.057,0 -0.115,-0.008 -0.171,-0.023 -0.138,-0.038 -0.271,-0.011 -0.382,0.08 -0.039,0.031 -0.074,0.069 -0.102,0.11l-0.004 0.005 -0.005 -0.003c-0.023,-0.016 -0.05,-0.025 -0.078,-0.024 -0.036,0.001 -0.069,0.015 -0.094,0.041l-0.2 0.208c-0.012,0.012 -0.012,0.033 0.001,0.045l0.161 0.159c0.012,0.013 0.033,0.013 0.046,0 0.012,-0.013 0.012,-0.033 -0.001,-0.046l-0.138 -0.136 0.178 -0.185c0.013,-0.013 0.03,-0.021 0.048,-0.021 0.018,0 0.035,0.006 0.048,0.019l0.31 0.301c0.013,0.012 0.021,0.029 0.021,0.047 0,0.019 -0.007,0.036 -0.019,0.049l-0.175 0.18 -0.049 -0.047c-0.013,-0.012 -0.034,-0.011 -0.046,0.001 -0.012,0.013 -0.012,0.034 0.001,0.046l0.072 0.069c0.006,0.006 0.014,0.009 0.022,0.009 0.009,0 0.017,-0.004 0.024,-0.01l0.197 -0.203c0.025,-0.025 0.038,-0.059 0.038,-0.094 0,-0.016 -0.003,-0.032 -0.009,-0.047l-0.003 -0.008 0.078 -0.009c0.032,-0.004 0.065,-0.006 0.098,-0.006l0.472 0c0.007,0 0.014,0 0.021,-0.001l0.045 -0.003c0.045,-0.004 0.088,-0.02 0.124,-0.045 0.019,-0.013 0.035,-0.028 0.049,-0.044l0.318 -0.374c0.032,-0.039 0.043,-0.09 0.028,-0.138zm-0.078 0.096l-0.317 0.374c-0.011,0.012 -0.023,0.023 -0.037,0.033 -0.027,0.019 -0.059,0.03 -0.092,0.033l-0.046 0.004c-0.005,0 -0.01,0 -0.015,0l-0.472 0c-0.035,0 -0.071,0.002 -0.106,0.006l-0.116 0.014 -0.255 -0.246 0.003 -0.005c0.026,-0.038 0.059,-0.074 0.095,-0.104 0.096,-0.078 0.205,-0.1 0.324,-0.068 0.061,0.017 0.125,0.026 0.188,0.026l0.31 0c0.023,0 0.044,0.009 0.06,0.025 0.011,0.011 0.018,0.026 0.022,0.043 0,0.003 0,0.005 0.001,0.01 0.001,0.02 -0.005,0.04 -0.018,0.056l-0.001 0.002c-0.016,0.019 -0.04,0.031 -0.065,0.031l-0.27 0c-0.018,0 -0.032,0.014 -0.032,0.032 0,0.018 0.014,0.032 0.032,0.032l0.27 0c0.045,0 0.087,-0.02 0.115,-0.055l0.002 -0.001c0.02,-0.026 0.032,-0.059 0.032,-0.092l0 -0.003 0.251 -0.249c0.017,-0.017 0.04,-0.026 0.063,-0.027l0.015 -0.001c0.034,-0.001 0.065,0.021 0.075,0.053 0.008,0.027 0.003,0.055 -0.016,0.077zm-0.971 0.239l-0.002 0.001c-0.017,0.004 -0.028,0.021 -0.024,0.039 0.004,0.014 0.017,0.025 0.032,0.025 0.002,0 0.005,-0.001 0.007,-0.001l0.002 -0.001c0.018,-0.004 0.028,-0.021 0.024,-0.039 -0.004,-0.017 -0.021,-0.028 -0.039,-0.024zm0.214 -0.351c0.223,0 0.405,-0.182 0.405,-0.406 0,-0.223 -0.182,-0.406 -0.405,-0.406 -0.092,0 -0.179,0.03 -0.251,0.087 -0.016,0.013 -0.032,0.027 -0.046,0.042 -0.021,0.023 -0.04,0.049 -0.056,0.076 -0.035,0.061 -0.053,0.131 -0.053,0.201 0,0.224 0.182,0.406 0.406,0.406zm-0.296 -0.575c0.013,-0.023 0.028,-0.044 0.046,-0.063 0.012,-0.013 0.025,-0.025 0.039,-0.036 0.061,-0.048 0.134,-0.073 0.211,-0.073 0.187,0 0.34,0.153 0.34,0.341 0,0.188 -0.152,0.341 -0.34,0.341 -0.188,0 -0.341,-0.153 -0.341,-0.341 0,-0.059 0.015,-0.118 0.045,-0.169zm0.297 0.193c0.027,0.003 0.064,0.034 0.064,0.064 0,0.023 -0.008,0.04 -0.028,0.051 -0.015,0.009 -0.035,0.014 -0.053,0.014 -0.035,0 -0.056,-0.042 -0.056,-0.073 0,-0.018 -0.014,-0.032 -0.032,-0.032 -0.018,0 -0.033,0.014 -0.033,0.032 0,0.058 0.034,0.117 0.092,0.134l0.005 0.001 0 0.004c0.001,0.018 0.015,0.031 0.032,0.031 0.018,0 0.032,-0.014 0.033,-0.032l0 -0.005 0.004 -0.001c0.061,-0.016 0.1,-0.059 0.1,-0.123 0,-0.066 -0.065,-0.13 -0.129,-0.13 -0.025,0 -0.064,-0.017 -0.064,-0.048 0,-0.036 0.028,-0.064 0.064,-0.064 0.015,0 0.029,0.009 0.039,0.019 0.009,0.009 0.008,0.018 0.008,0.031 0,0.018 0.014,0.032 0.032,0.032 0.018,0 0.033,-0.014 0.033,-0.032 0,-0.032 -0.003,-0.054 -0.027,-0.077 -0.015,-0.016 -0.035,-0.028 -0.056,-0.034l-0.004 -0.001 0 -0.005c-0.001,-0.017 -0.016,-0.03 -0.033,-0.03 -0.018,0 -0.032,0.014 -0.032,0.032l0 0.007 -0.004 0.002c-0.054,0.02 -0.085,0.063 -0.085,0.12 0,0.068 0.066,0.113 0.13,0.113zm-0.835 1.145l-0.002 0.001c-0.018,0.004 -0.029,0.021 -0.025,0.039 0.004,0.014 0.017,0.025 0.032,0.025 0.003,0 0.005,0 0.008,-0.001l0.002 0c0.017,-0.004 0.028,-0.022 0.024,-0.039 -0.004,-0.018 -0.022,-0.029 -0.039,-0.025zm0.003 -0.344c-0.054,0 -0.099,0.044 -0.099,0.099 0,0.055 0.045,0.099 0.099,0.099 0.055,0 0.099,-0.044 0.099,-0.099 0,-0.055 -0.044,-0.099 -0.099,-0.099zm0 0.133c-0.019,0 -0.034,-0.015 -0.034,-0.034 0,-0.019 0.015,-0.034 0.034,-0.034 0.019,0 0.034,0.015 0.034,0.034 0,0.019 -0.015,0.034 -0.034,0.034z"/>
 </g>
</svg>
