<?xml version="1.0" encoding="UTF-8"?>
<!DOCTYPE svg PUBLIC "-//W3C//DTD SVG 1.1//EN" "http://www.w3.org/Graphics/SVG/1.1/DTD/svg11.dtd">
<!-- Creator: CorelDRAW 2018 (64-Bit) -->
<svg xmlns="http://www.w3.org/2000/svg" xml:space="preserve" width="65px" height="75px" version="1.1" style="shape-rendering:geometricPrecision; text-rendering:geometricPrecision; image-rendering:optimizeQuality; fill-rule:evenodd; clip-rule:evenodd"
viewBox="0 0 3.671 4.239"
 xmlns:xlink="http://www.w3.org/1999/xlink">
 <defs>
  <style type="text/css">
   <![CDATA[
    .str0 {stroke:#DBA71F;stroke-width:0.056;stroke-miterlimit:22.9256}
    .fil0 {fill:#FEFEFE}
    .fil1 {fill:#DBA71F;fill-rule:nonzero}
   ]]>
  </style>
 </defs>
 <g id="Слой_x0020_1">
  <metadata id="CorelCorpID_0Corel-Layer"/>
  <polygon class="fil0 str0" points="1.836,0.033 2.739,0.554 3.643,1.076 3.643,2.12 3.643,3.163 2.739,3.685 1.836,4.207 0.932,3.685 0.028,3.163 0.028,2.12 0.028,1.076 0.932,0.554 "/>
  <g id="_2042248675024">
   <path class="fil1" d="M1.946 1.454c-0.021,0 -0.037,-0.017 -0.037,-0.037l0 -0.219c0,-0.021 0.016,-0.037 0.037,-0.037l0.036 0 -0.147 -0.195 -0.146 0.195 0.037 0c0.02,0 0.037,0.016 0.037,0.037l0 0.219c0,0.02 -0.017,0.037 -0.037,0.037 -0.02,0 -0.037,-0.017 -0.037,-0.037l0 -0.183 -0.073 0c-0.014,0 -0.026,-0.008 -0.033,-0.02 -0.006,-0.012 -0.004,-0.027 0.004,-0.038l0.218 -0.293c0.007,-0.009 0.018,-0.015 0.03,-0.015 0.011,0 0.022,0.006 0.029,0.015l0.221 0.293c0.008,0.011 0.009,0.026 0.003,0.038 -0.006,0.012 -0.019,0.02 -0.033,0.02l-0.073 0 0 0.183c0,0.02 -0.016,0.037 -0.036,0.037z"/>
   <path class="fil1" d="M1.214 1.783c-0.021,0 -0.037,-0.016 -0.037,-0.036l0 -0.257c0,-0.02 0.016,-0.036 0.037,-0.036l0.036 0 -0.147 -0.195 -0.146 0.195 0.037 0c0.02,0 0.037,0.016 0.037,0.036l0 0.257c0,0.02 -0.017,0.036 -0.037,0.036 -0.02,0 -0.037,-0.016 -0.037,-0.036l0 -0.22 -0.073 0c-0.014,0 -0.026,-0.008 -0.033,-0.02 -0.006,-0.013 -0.004,-0.027 0.004,-0.039l0.218 -0.292c0.007,-0.01 0.018,-0.015 0.03,-0.015 0.011,0 0.022,0.005 0.029,0.015l0.221 0.292c0.008,0.012 0.009,0.026 0.003,0.039 -0.006,0.012 -0.019,0.02 -0.033,0.02l-0.073 0 0 0.22c0,0.02 -0.016,0.036 -0.036,0.036z"/>
   <path class="fil1" d="M1.946 1.637c-0.021,0 -0.037,-0.017 -0.037,-0.037l0 -0.036c0,-0.021 0.016,-0.037 0.037,-0.037 0.02,0 0.036,0.016 0.036,0.037l0 0.036c0,0.02 -0.016,0.037 -0.036,0.037z"/>
   <path class="fil1" d="M1.726 1.637c-0.02,0 -0.037,-0.017 -0.037,-0.037l0 -0.036c0,-0.021 0.017,-0.037 0.037,-0.037 0.02,0 0.037,0.016 0.037,0.037l0 0.036c0,0.02 -0.017,0.037 -0.037,0.037z"/>
   <path class="fil1" d="M1.946 1.783c-0.021,0 -0.037,-0.016 -0.037,-0.036l0 -0.037c0,-0.02 0.016,-0.037 0.037,-0.037 0.02,0 0.036,0.017 0.036,0.037l0 0.037c0,0.02 -0.016,0.036 -0.036,0.036z"/>
   <path class="fil1" d="M1.726 1.783c-0.02,0 -0.037,-0.016 -0.037,-0.036l0 -0.037c0,-0.02 0.017,-0.037 0.037,-0.037 0.02,0 0.037,0.017 0.037,0.037l0 0.037c0,0.02 -0.017,0.036 -0.037,0.036z"/>
   <path class="fil1" d="M0.994 1.966c-0.02,0 -0.037,-0.016 -0.037,-0.036l0 -0.037c0,-0.02 0.017,-0.037 0.037,-0.037 0.02,0 0.037,0.017 0.037,0.037l0 0.037c0,0.02 -0.017,0.036 -0.037,0.036z"/>
   <path class="fil1" d="M0.994 2.113c-0.02,0 -0.037,-0.017 -0.037,-0.037l0 -0.037c0,-0.02 0.017,-0.036 0.037,-0.036 0.02,0 0.037,0.016 0.037,0.036l0 0.037c0,0.02 -0.017,0.037 -0.037,0.037z"/>
   <path class="fil1" d="M0.994 2.259c-0.02,0 -0.037,-0.016 -0.037,-0.037l0 -0.036c0,-0.02 0.017,-0.037 0.037,-0.037 0.02,0 0.037,0.017 0.037,0.037l0 0.036c0,0.021 -0.017,0.037 -0.037,0.037z"/>
   <path class="fil1" d="M1.214 1.966c-0.021,0 -0.037,-0.016 -0.037,-0.036l0 -0.037c0,-0.02 0.016,-0.037 0.037,-0.037 0.02,0 0.036,0.017 0.036,0.037l0 0.037c0,0.02 -0.016,0.036 -0.036,0.036z"/>
   <path class="fil1" d="M1.214 2.113c-0.021,0 -0.037,-0.017 -0.037,-0.037l0 -0.037c0,-0.02 0.016,-0.036 0.037,-0.036 0.02,0 0.036,0.016 0.036,0.036l0 0.037c0,0.02 -0.016,0.037 -0.036,0.037z"/>
   <path class="fil1" d="M1.214 2.259c-0.021,0 -0.037,-0.016 -0.037,-0.037l0 -0.036c0,-0.02 0.016,-0.037 0.037,-0.037 0.02,0 0.036,0.017 0.036,0.037l0 0.036c0,0.021 -0.016,0.037 -0.036,0.037z"/>
   <path class="fil1" d="M2.678 1.747c-0.021,0 -0.037,-0.017 -0.037,-0.037l0 -0.256c0,-0.02 0.016,-0.037 0.037,-0.037l0.036 0 -0.147 -0.195 -0.146 0.195 0.037 0c0.02,0 0.037,0.017 0.037,0.037l0 0.256c0,0.02 -0.017,0.037 -0.037,0.037 -0.02,0 -0.037,-0.017 -0.037,-0.037l0 -0.22 -0.073 0c-0.014,0 -0.026,-0.007 -0.033,-0.02 -0.006,-0.012 -0.004,-0.027 0.004,-0.038l0.218 -0.293c0.007,-0.009 0.018,-0.015 0.03,-0.015 0.011,0 0.022,0.006 0.029,0.015l0.221 0.293c0.008,0.011 0.009,0.026 0.003,0.038 -0.006,0.013 -0.019,0.02 -0.033,0.02l-0.073 0 0 0.22c0,0.02 -0.016,0.037 -0.036,0.037z"/>
   <path class="fil1" d="M2.458 1.93c-0.02,0 -0.037,-0.017 -0.037,-0.037l0 -0.037c0,-0.02 0.017,-0.036 0.037,-0.036 0.02,0 0.037,0.016 0.037,0.036l0 0.037c0,0.02 -0.017,0.037 -0.037,0.037z"/>
   <path class="fil1" d="M2.858 3.014l-0.146 -0.366c-0.006,-0.014 -0.02,-0.023 -0.034,-0.023l-0.159 0 -0.137 -0.343c-0.005,-0.014 -0.019,-0.023 -0.034,-0.023l-0.158 0 -0.137 -0.343c-0.006,-0.014 -0.019,-0.023 -0.034,-0.023l-0.366 0c-0.015,0 -0.029,0.009 -0.034,0.023l-0.138 0.343 -0.158 0c-0.015,0 -0.028,0.009 -0.034,0.023l-0.137 0.343 -0.158 0c-0.015,0 -0.029,0.009 -0.034,0.023l-0.146 0.366c-0.005,0.011 -0.003,0.024 0.003,0.034 0.007,0.01 0.018,0.016 0.031,0.016l1.976 0c0.012,0 0.023,-0.006 0.03,-0.016 0.007,-0.01 0.008,-0.023 0.004,-0.034zm-0.535 -0.682l0.117 0.293 -0.55 0 0.117 -0.293 0.316 0zm-0.487 0.231l-0.093 -0.231 0.185 0 -0.092 0.231zm-0.158 -0.597l0.316 0 0.117 0.293 -0.551 0 0.118 -0.293zm-0.33 0.366l0.316 0 0.118 0.293 -0.551 0 0.117 -0.293zm-0.446 0.659l0.117 -0.293 0.316 0 0.117 0.293 -0.55 0zm0.512 -0.293l0.185 0 -0.093 0.231 -0.092 -0.231zm0.146 0.293l0.118 -0.293 0.316 0 0.117 0.293 -0.551 0zm0.513 -0.293l0.184 0 -0.092 0.231 -0.092 -0.231zm0.146 0.293l0.117 -0.293 0.317 0 0.117 0.293 -0.551 0z"/>
   <path class="fil1" d="M2.458 2.076c0.02,0 0.037,-0.016 0.037,-0.037l0 -0.036c0,-0.02 -0.017,-0.037 -0.037,-0.037 -0.02,0 -0.037,0.017 -0.037,0.037l0 0.036c0,0.021 0.017,0.037 0.037,0.037z"/>
   <path class="fil1" d="M2.458 2.222c0.02,0 0.037,-0.016 0.037,-0.036l0 -0.037c0,-0.02 -0.017,-0.036 -0.037,-0.036 -0.02,0 -0.037,0.016 -0.037,0.036l0 0.037c0,0.02 0.017,0.036 0.037,0.036z"/>
   <path class="fil1" d="M2.678 1.93c-0.021,0 -0.037,-0.017 -0.037,-0.037l0 -0.037c0,-0.02 0.016,-0.036 0.037,-0.036 0.02,0 0.036,0.016 0.036,0.036l0 0.037c0,0.02 -0.016,0.037 -0.036,0.037z"/>
   <path class="fil1" d="M2.678 2.076c-0.021,0 -0.037,-0.016 -0.037,-0.037l0 -0.036c0,-0.02 0.016,-0.037 0.037,-0.037 0.02,0 0.036,0.017 0.036,0.037l0 0.036c0,0.021 -0.016,0.037 -0.036,0.037z"/>
   <path class="fil1" d="M2.678 2.222c-0.021,0 -0.037,-0.016 -0.037,-0.036l0 -0.037c0,-0.02 0.016,-0.036 0.037,-0.036 0.02,0 0.036,0.016 0.036,0.036l0 0.037c0,0.02 -0.016,0.036 -0.036,0.036z"/>
  </g>
 </g>
</svg>
