<?xml version="1.0" encoding="UTF-8"?>
<!DOCTYPE svg PUBLIC "-//W3C//DTD SVG 1.1//EN" "http://www.w3.org/Graphics/SVG/1.1/DTD/svg11.dtd">
<!-- Creator: CorelDRAW 2018 (64-Bit) -->
<svg xmlns="http://www.w3.org/2000/svg" xml:space="preserve" width="65px" height="75px" version="1.1" style="shape-rendering:geometricPrecision; text-rendering:geometricPrecision; image-rendering:optimizeQuality; fill-rule:evenodd; clip-rule:evenodd"
viewBox="0 0 2.818 3.254"
 xmlns:xlink="http://www.w3.org/1999/xlink">
 <defs>
  <style type="text/css">
   <![CDATA[
    .str0 {stroke:#DBA71F;stroke-width:0.043;stroke-miterlimit:22.9256}
    .fil0 {fill:#FEFEFE}
    .fil1 {fill:#DBA71F}
   ]]>
  </style>
 </defs>
 <g id="Слой_x0020_1">
  <metadata id="CorelCorpID_0Corel-Layer"/>
  <polygon class="fil0 str0" points="1.409,0.025 2.102,0.425 2.796,0.826 2.796,1.627 2.796,2.428 2.102,2.828 1.409,3.229 0.715,2.828 0.022,2.428 0.022,1.627 0.022,0.826 0.715,0.425 "/>
  <g id="_2042244595184">
   <g>
    <path class="fil1" d="M1.423 1.002l-0.137 0.221 -0.167 0 0 0.51 0.406 0 0.003 0.017c0.017,0.078 0.013,0.154 -0.01,0.23l-0.013 0.044 0.313 0 0.054 0.129c0.026,0.061 0.085,0.1 0.151,0.1 0.052,0 0.1,-0.024 0.131,-0.065 0.031,-0.042 0.041,-0.094 0.027,-0.144l-0.088 -0.311 0.047 0c0.059,0 0.107,-0.048 0.107,-0.107l0 -0.295c0,-0.059 -0.048,-0.108 -0.107,-0.108l-0.075 0 -0.003 -0.017c-0.024,-0.118 -0.129,-0.204 -0.25,-0.204l-0.389 0zm0.036 0.068l0.353 0c0.079,0 0.15,0.051 0.176,0.125l0.01 0.028 -0.64 0 0.101 -0.153zm0.14 0.862c0.01,-0.058 0.01,-0.116 0,-0.174l-0.004 -0.025 0.099 0 0.095 0.223 -0.194 0 0.004 -0.024zm0.516 0.131c0.009,0.029 0.003,0.059 -0.015,0.084 -0.019,0.024 -0.047,0.038 -0.077,0.038 -0.038,0 -0.073,-0.023 -0.088,-0.059l-0.167 -0.393 0.254 0 0.093 0.33zm0.064 -0.437c0,0.022 -0.017,0.039 -0.039,0.039l-0.953 0 0 -0.374 0.953 0c0.022,0 0.039,0.018 0.039,0.04l0 0.295z"/>
   </g>
   <g>
    <path class="fil1" d="M0.955 1.314c-0.08,0.094 -0.08,0.234 0,0.329l0.049 -0.048c-0.054,-0.068 -0.054,-0.165 0,-0.233l-0.049 -0.048z"/>
   </g>
   <g>
    <path class="fil1" d="M0.902 1.205l-0.048 -0.048c-0.081,0.088 -0.125,0.201 -0.125,0.321 0,0.12 0.044,0.234 0.125,0.322l0.048 -0.049c-0.068,-0.075 -0.105,-0.171 -0.105,-0.273 0,-0.101 0.037,-0.198 0.105,-0.273z"/>
   </g>
   <g>
    <path class="fil1" d="M0.776 1.049l-0.048 -0.048c-0.252,0.267 -0.252,0.687 0,0.955l0.048 -0.048c-0.225,-0.241 -0.225,-0.618 0,-0.859z"/>
   </g>
  </g>
 </g>
</svg>
