<?xml version="1.0" encoding="UTF-8"?>
<!DOCTYPE svg PUBLIC "-//W3C//DTD SVG 1.1//EN" "http://www.w3.org/Graphics/SVG/1.1/DTD/svg11.dtd">
<!-- Creator: CorelDRAW 2018 (64-Bit) -->
<svg xmlns="http://www.w3.org/2000/svg" xml:space="preserve" width="65px" height="75px" version="1.1" style="shape-rendering:geometricPrecision; text-rendering:geometricPrecision; image-rendering:optimizeQuality; fill-rule:evenodd; clip-rule:evenodd"
viewBox="0 0 1.864 2.152"
 xmlns:xlink="http://www.w3.org/1999/xlink">
 <defs>
  <style type="text/css">
   <![CDATA[
    .str0 {stroke:#DBA71F;stroke-width:0.029;stroke-miterlimit:22.9256}
    .fil0 {fill:#FEFEFE}
    .fil1 {fill:#DBA71F;fill-rule:nonzero}
   ]]>
  </style>
 </defs>
 <g id="Слой_x0020_1">
  <metadata id="CorelCorpID_0Corel-Layer"/>
  <polygon class="fil0 str0" points="0.932,0.017 1.391,0.281 1.85,0.546 1.85,1.076 1.85,1.606 1.391,1.871 0.932,2.136 0.473,1.871 0.014,1.606 0.014,1.076 0.014,0.546 0.473,0.281 "/>
  <g id="_3038195567184">
   <path class="fil1" d="M1.523 1.2l0 -0.248 -0.136 -0.034c-0.006,-0.017 -0.013,-0.035 -0.022,-0.052l0.072 -0.12 -0.175 -0.175 -0.12 0.072c-0.017,-0.009 -0.035,-0.016 -0.052,-0.022l-0.034 -0.136 -0.248 0 -0.034 0.136c-0.017,0.006 -0.035,0.013 -0.052,0.022l-0.12 -0.072 -0.175 0.175 0.072 0.12c-0.009,0.017 -0.016,0.035 -0.022,0.052l-0.136 0.034 0 0.248 0.136 0.034c0.006,0.017 0.013,0.035 0.022,0.052l-0.072 0.12 0.175 0.176 0.12 -0.072c0.017,0.008 0.035,0.015 0.053,0.022l0.034 0.135 0.247 0 0.034 -0.135c0.017,-0.006 0.035,-0.014 0.053,-0.022l0.12 0.072 0.175 -0.176 -0.072 -0.12c0.009,-0.017 0.016,-0.035 0.022,-0.052l0.135 -0.034zm-0.134 0.2l-0.133 0.133 -0.112 -0.067 -0.01 0.005c-0.022,0.011 -0.044,0.02 -0.066,0.027l-0.01 0.004 -0.032 0.127 -0.188 0 -0.032 -0.127 -0.01 -0.004c-0.022,-0.007 -0.044,-0.016 -0.066,-0.027l-0.01 -0.005 -0.112 0.067 -0.133 -0.133 0.067 -0.112 -0.005 -0.01c-0.011,-0.022 -0.02,-0.044 -0.027,-0.066l-0.004 -0.01 -0.127 -0.032 0 -0.188 0.127 -0.032 0.004 -0.01c0.007,-0.022 0.016,-0.044 0.027,-0.066l0.005 -0.01 -0.067 -0.112 0.133 -0.134 0.112 0.068 0.01 -0.005c0.022,-0.011 0.044,-0.021 0.066,-0.028l0.01 -0.003 0.032 -0.127 0.188 0 0.032 0.127 0.01 0.004c0.022,0.007 0.044,0.016 0.066,0.027l0.01 0.005 0.112 -0.067 0.133 0.133 -0.067 0.112 0.005 0.01c0.011,0.022 0.021,0.044 0.027,0.066l0.004 0.01 0.127 0.032 0 0.188 -0.127 0.032 -0.004 0.01c-0.006,0.022 -0.016,0.044 -0.027,0.066l-0.005 0.01 0.067 0.112z"/>
   <polygon class="fil1" points="0.894,0.6 0.97,0.6 0.97,0.561 0.894,0.561 "/>
   <polygon class="fil1" points="0.894,1.591 0.97,1.591 0.97,1.552 0.894,1.552 "/>
   <polygon class="fil1" points="1.408,1.114 1.447,1.114 1.447,1.038 1.408,1.038 "/>
   <polygon class="fil1" points="0.418,1.114 0.456,1.114 0.456,1.038 0.418,1.038 "/>
   <polygon class="fil1" points="1.242,0.712 1.269,0.685 1.323,0.739 1.296,0.766 "/>
   <polygon class="fil1" points="0.568,1.386 0.541,1.413 0.595,1.467 0.622,1.44 "/>
   <polygon class="fil1" points="1.296,1.386 1.242,1.44 1.269,1.467 1.323,1.413 "/>
   <polygon class="fil1" points="0.541,0.739 0.595,0.685 0.622,0.712 0.568,0.766 "/>
   <path class="fil1" d="M0.932 0.695c-0.21,0 -0.381,0.171 -0.381,0.381 0,0.21 0.171,0.381 0.381,0.381 0.21,0 0.381,-0.171 0.381,-0.381 0,-0.21 -0.171,-0.381 -0.381,-0.381zm-0.111 0.057c-0.026,0.029 -0.048,0.068 -0.065,0.114l-0.095 0c0.041,-0.052 0.096,-0.092 0.16,-0.114zm-0.186 0.153l0.109 0c-0.012,0.045 -0.02,0.097 -0.021,0.152l-0.133 0c0.003,-0.055 0.019,-0.107 0.045,-0.152zm-0.045 0.19l0.133 0c0.001,0.055 0.009,0.107 0.021,0.152l-0.109 0c-0.026,-0.045 -0.042,-0.097 -0.045,-0.152zm0.071 0.191l0.095 0c0.016,0.046 0.039,0.085 0.064,0.114 -0.063,-0.022 -0.118,-0.062 -0.159,-0.114zm0.252 0.131c-0.046,-0.011 -0.087,-0.061 -0.115,-0.131l0.115 0 0 0.131zm0 -0.17l-0.128 0c-0.014,-0.045 -0.022,-0.097 -0.024,-0.152l0.152 0 0 0.152zm0 -0.19l-0.152 0c0.002,-0.055 0.01,-0.107 0.024,-0.152l0.128 0 0 0.152zm0 -0.191l-0.115 0c0.028,-0.071 0.069,-0.12 0.115,-0.131l0 0.131zm0.361 0.191l-0.133 0c-0.001,-0.055 -0.009,-0.107 -0.021,-0.152l0.109 0c0.026,0.045 0.042,0.097 0.045,0.152zm-0.071 -0.191l-0.095 0c-0.016,-0.046 -0.038,-0.085 -0.064,-0.114 0.063,0.022 0.118,0.062 0.159,0.114zm-0.252 -0.131c0.046,0.011 0.088,0.061 0.116,0.131l-0.116 0 0 -0.131zm0 0.17l0.129 0c0.013,0.045 0.021,0.097 0.023,0.152l-0.152 0 0 -0.152zm0 0.19l0.152 0c-0.002,0.055 -0.01,0.107 -0.023,0.152l-0.129 0 0 -0.152zm0 0.322l0 -0.131 0.116 0c-0.028,0.071 -0.07,0.12 -0.116,0.131zm0.092 -0.017c0.026,-0.029 0.048,-0.068 0.065,-0.114l0.095 0c-0.041,0.052 -0.096,0.092 -0.16,0.114zm0.077 -0.153c0.012,-0.045 0.02,-0.097 0.021,-0.152l0.133 0c-0.003,0.055 -0.019,0.107 -0.045,0.152l-0.109 0z"/>
  </g>
 </g>
</svg>
