<?xml version="1.0" encoding="UTF-8"?>
<!DOCTYPE svg PUBLIC "-//W3C//DTD SVG 1.1//EN" "http://www.w3.org/Graphics/SVG/1.1/DTD/svg11.dtd">
<!-- Creator: CorelDRAW 2018 (64-Bit) -->
<svg xmlns="http://www.w3.org/2000/svg" xml:space="preserve" width="65px" height="75px" version="1.1" style="shape-rendering:geometricPrecision; text-rendering:geometricPrecision; image-rendering:optimizeQuality; fill-rule:evenodd; clip-rule:evenodd"
viewBox="0 0 3.671 4.239"
 xmlns:xlink="http://www.w3.org/1999/xlink">
 <defs>
  <style type="text/css">
   <![CDATA[
    .str0 {stroke:#DBA71F;stroke-width:0.056;stroke-miterlimit:22.9256}
    .fil0 {fill:#FEFEFE}
    .fil1 {fill:#DBA71F;fill-rule:nonzero}
    .fil2 {fill:#DBA71F;fill-rule:nonzero}
   ]]>
  </style>
 </defs>
 <g id="Слой_x0020_1">
  <metadata id="CorelCorpID_0Corel-Layer"/>
  <polygon class="fil0 str0" points="1.836,0.033 2.739,0.554 3.643,1.076 3.643,2.12 3.643,3.163 2.739,3.685 1.836,4.207 0.932,3.685 0.028,3.163 0.028,2.12 0.028,1.076 0.932,0.554 "/>
  <g id="_2045513508208">
   <path class="fil1" d="M2.246 1.531l0.005 0.007c0.016,0.023 0.049,0.068 0.062,0.068l0.619 0c0.009,0 0.019,0.001 0.029,0.002 0.009,0.001 0.019,0.002 0.028,0.004 0.01,0.002 0.019,0.004 0.028,0.007 0.009,0.003 0.018,0.006 0.027,0.01 0.009,0.004 0.018,0.008 0.026,0.012 0.008,0.005 0.016,0.009 0.023,0.014 0.008,0.006 0.015,0.011 0.023,0.017 0.006,0.006 0.013,0.012 0.02,0.019l0.003 0.003c0.006,0.006 0.012,0.012 0.017,0.019 0.006,0.007 0.011,0.014 0.016,0.021 0.004,0.007 0.009,0.015 0.014,0.023 0.004,0.008 0.008,0.016 0.012,0.025 0.004,0.009 0.007,0.018 0.01,0.027 0.003,0.009 0.005,0.019 0.007,0.028 0.002,0.01 0.003,0.02 0.004,0.029 0.001,0.01 0.002,0.02 0.002,0.029l0 0.45c0,0.009 -0.001,0.018 -0.002,0.028 -0.001,0.01 -0.002,0.02 -0.004,0.029 -0.002,0.01 -0.004,0.019 -0.007,0.028 -0.003,0.009 -0.006,0.018 -0.01,0.027 -0.004,0.009 -0.008,0.017 -0.012,0.025 -0.005,0.009 -0.01,0.017 -0.014,0.024 -0.005,0.006 -0.01,0.013 -0.016,0.02 -0.005,0.007 -0.011,0.014 -0.017,0.02l-0.003 0.003c-0.007,0.006 -0.014,0.013 -0.02,0.018 -0.008,0.006 -0.015,0.012 -0.023,0.017 -0.007,0.005 -0.015,0.01 -0.023,0.014 -0.008,0.005 -0.016,0.009 -0.026,0.012 -0.009,0.004 -0.018,0.008 -0.027,0.01 -0.009,0.003 -0.018,0.005 -0.028,0.007 -0.009,0.002 -0.019,0.004 -0.028,0.005 -0.01,0.001 -0.02,0.001 -0.029,0.001l-0.619 0c-0.013,0 -0.046,0.046 -0.062,0.068l-0.005 0.008 -0.046 -0.033 0.006 -0.008c0.021,-0.03 0.065,-0.091 0.107,-0.091l0.619 0c0.008,0 0.016,0 0.023,-0.001 0.008,-0.001 0.016,-0.002 0.023,-0.004 0.008,-0.001 0.015,-0.003 0.023,-0.005 0.007,-0.003 0.015,-0.005 0.022,-0.008 0.006,-0.003 0.013,-0.006 0.02,-0.01 0.006,-0.004 0.013,-0.008 0.019,-0.012 0.006,-0.004 0.012,-0.008 0.018,-0.013 0.006,-0.005 0.011,-0.01 0.016,-0.015l0.003 -0.003c0.005,-0.005 0.009,-0.01 0.014,-0.015 0.004,-0.005 0.008,-0.011 0.012,-0.017 0.004,-0.006 0.008,-0.013 0.011,-0.019 0.004,-0.006 0.007,-0.013 0.01,-0.02 0.003,-0.007 0.006,-0.014 0.008,-0.021 0.002,-0.008 0.004,-0.016 0.006,-0.023 0.001,-0.008 0.003,-0.016 0.003,-0.023 0.001,-0.007 0.002,-0.015 0.002,-0.023l0 -0.45c0,-0.008 -0.001,-0.016 -0.002,-0.023 0,-0.008 -0.002,-0.016 -0.003,-0.023 -0.002,-0.008 -0.004,-0.015 -0.006,-0.023 -0.002,-0.007 -0.005,-0.015 -0.008,-0.022 -0.003,-0.006 -0.006,-0.013 -0.01,-0.02 -0.003,-0.006 -0.007,-0.012 -0.011,-0.019 -0.004,-0.006 -0.008,-0.011 -0.012,-0.016 -0.005,-0.006 -0.009,-0.011 -0.014,-0.016l-0.003 -0.002c-0.005,-0.006 -0.01,-0.011 -0.016,-0.016 -0.006,-0.004 -0.012,-0.009 -0.018,-0.013 -0.006,-0.004 -0.013,-0.008 -0.019,-0.011 -0.007,-0.004 -0.014,-0.007 -0.021,-0.01 -0.006,-0.003 -0.014,-0.006 -0.021,-0.008 -0.008,-0.002 -0.015,-0.004 -0.023,-0.006 -0.007,-0.001 -0.015,-0.003 -0.023,-0.003 -0.007,-0.001 -0.015,-0.002 -0.023,-0.002l-0.619 0c-0.042,0 -0.086,-0.061 -0.107,-0.091l-0.006 -0.008 0.046 -0.032z"/>
   <path class="fil2" d="M2.313 1.735l0.619 0c0.011,0 0.021,0.001 0.032,0.003l0 0c0.011,0.002 0.021,0.005 0.03,0.01l0 0c0.01,0.004 0.019,0.009 0.027,0.014 0.009,0.006 0.017,0.012 0.024,0.02l0 0c0.008,0.007 0.014,0.015 0.02,0.024 0.006,0.008 0.01,0.017 0.015,0.027 0.004,0.009 0.007,0.019 0.009,0.03 0.002,0.011 0.003,0.021 0.003,0.032l0 0.45c0,0.01 -0.001,0.021 -0.003,0.031 -0.002,0.011 -0.005,0.021 -0.009,0.031 -0.005,0.009 -0.009,0.018 -0.015,0.027 -0.006,0.008 -0.012,0.016 -0.02,0.023l0 0.001c-0.007,0.007 -0.015,0.014 -0.024,0.019 -0.008,0.006 -0.017,0.011 -0.027,0.015l0 0c-0.009,0.004 -0.019,0.007 -0.03,0.009l0 0c-0.011,0.002 -0.021,0.004 -0.032,0.004l-0.619 0c-0.077,0 -0.124,0.063 -0.171,0.128 -0.058,0.078 -0.116,0.158 -0.229,0.158l-1.303 0c-0.044,0 -0.084,-0.018 -0.113,-0.047l0 0c-0.029,-0.029 -0.047,-0.069 -0.047,-0.113l0 -1.022c0,-0.044 0.018,-0.084 0.047,-0.113l0 0c0.029,-0.029 0.069,-0.047 0.113,-0.047l1.303 0c0.113,0 0.171,0.079 0.229,0.157 0.047,0.065 0.094,0.129 0.171,0.129zm0.268 0.057l-0.268 0c-0.106,0 -0.161,-0.076 -0.217,-0.152 -0.049,-0.067 -0.098,-0.134 -0.183,-0.134l-1.303 0c-0.028,0 -0.054,0.011 -0.073,0.03 -0.018,0.019 -0.03,0.044 -0.03,0.073l0 1.022c0,0.028 0.012,0.054 0.03,0.072 0.019,0.019 0.045,0.031 0.073,0.031l1.303 0c0.085,0 0.134,-0.068 0.183,-0.134 0.056,-0.077 0.111,-0.152 0.217,-0.152l0.619 0c0.008,0 0.014,-0.001 0.021,-0.002 0.007,-0.001 0.013,-0.003 0.019,-0.006 0.006,-0.003 0.012,-0.006 0.018,-0.01 0.005,-0.004 0.011,-0.008 0.015,-0.012 0.005,-0.005 0.009,-0.01 0.013,-0.016 0.004,-0.005 0.007,-0.011 0.009,-0.017 0.003,-0.007 0.005,-0.013 0.007,-0.02l0 0c0.001,-0.006 0.002,-0.013 0.002,-0.02l0 -0.45c0,-0.008 -0.001,-0.014 -0.002,-0.021l0 0c-0.002,-0.006 -0.004,-0.013 -0.007,-0.019 -0.002,-0.006 -0.005,-0.012 -0.009,-0.018 -0.004,-0.005 -0.008,-0.011 -0.013,-0.015 -0.004,-0.005 -0.01,-0.009 -0.015,-0.013 -0.006,-0.004 -0.012,-0.007 -0.018,-0.009 -0.006,-0.003 -0.012,-0.005 -0.019,-0.007 -0.007,-0.001 -0.013,-0.001 -0.021,-0.001l-0.351 0z"/>
   <path class="fil2" d="M1.189 1.869l-0.295 0 -0.022 0.248 0.048 0.018c0.014,-0.01 0.03,-0.018 0.049,-0.024 0.018,-0.006 0.041,-0.009 0.068,-0.009 0.035,0 0.063,0.01 0.082,0.029 0.02,0.019 0.029,0.045 0.029,0.077 0,0.016 -0.003,0.031 -0.009,0.044 -0.007,0.014 -0.016,0.025 -0.026,0.035 -0.011,0.009 -0.024,0.015 -0.039,0.02 -0.016,0.005 -0.031,0.007 -0.049,0.007 -0.027,0 -0.052,-0.004 -0.075,-0.014 -0.024,-0.009 -0.046,-0.025 -0.068,-0.047l-0.043 0.053c0.025,0.025 0.051,0.044 0.081,0.057 0.029,0.012 0.062,0.018 0.1,0.018 0.031,0 0.058,-0.005 0.083,-0.014 0.025,-0.009 0.046,-0.021 0.062,-0.037 0.017,-0.015 0.03,-0.034 0.039,-0.055 0.01,-0.021 0.014,-0.044 0.014,-0.068 0,-0.027 -0.004,-0.051 -0.013,-0.072 -0.009,-0.021 -0.021,-0.039 -0.036,-0.053 -0.015,-0.015 -0.034,-0.026 -0.055,-0.033 -0.021,-0.008 -0.044,-0.012 -0.069,-0.012 -0.021,0 -0.039,0.003 -0.055,0.006 -0.016,0.004 -0.03,0.009 -0.044,0.016l0.009 -0.123 0.234 0 0 -0.067zm0.307 -0.01c-0.026,0 -0.049,0.003 -0.069,0.01 -0.021,0.006 -0.038,0.016 -0.053,0.028 -0.014,0.012 -0.025,0.027 -0.033,0.043 -0.008,0.017 -0.011,0.035 -0.011,0.054 0,0.019 0.003,0.037 0.011,0.053 0.008,0.017 0.02,0.031 0.035,0.041 -0.025,0.012 -0.044,0.031 -0.057,0.055 -0.015,0.023 -0.021,0.049 -0.021,0.078 0,0.024 0.004,0.045 0.012,0.064 0.008,0.02 0.02,0.036 0.037,0.051 0.017,0.013 0.037,0.025 0.061,0.033 0.024,0.008 0.052,0.012 0.085,0.012 0.034,0 0.063,-0.005 0.089,-0.013 0.024,-0.008 0.046,-0.02 0.062,-0.034 0.017,-0.015 0.029,-0.03 0.037,-0.049 0.009,-0.019 0.013,-0.038 0.013,-0.058 0,-0.029 -0.007,-0.054 -0.022,-0.075 -0.014,-0.02 -0.034,-0.037 -0.061,-0.048 0.017,-0.013 0.031,-0.028 0.04,-0.046 0.01,-0.02 0.014,-0.039 0.014,-0.06 0,-0.02 -0.003,-0.039 -0.011,-0.057 -0.008,-0.017 -0.018,-0.032 -0.033,-0.044 -0.014,-0.012 -0.032,-0.022 -0.053,-0.028 -0.021,-0.007 -0.046,-0.01 -0.072,-0.01l0 0zm-0.025 0.271l0.051 0.011c0.036,0.006 0.061,0.017 0.077,0.03 0.014,0.015 0.022,0.032 0.022,0.055 0,0.027 -0.011,0.049 -0.031,0.065 -0.021,0.017 -0.052,0.025 -0.094,0.025 -0.041,0 -0.072,-0.009 -0.094,-0.026 -0.022,-0.018 -0.033,-0.042 -0.033,-0.072 0,-0.021 0.005,-0.041 0.015,-0.058 0.011,-0.017 0.027,-0.03 0.049,-0.038 0.005,0.001 0.011,0.003 0.017,0.004l0.021 0.004zm0.049 -0.055l-0.04 -0.008c-0.026,-0.006 -0.046,-0.014 -0.06,-0.024 -0.013,-0.012 -0.02,-0.027 -0.02,-0.048 0,-0.02 0.008,-0.038 0.024,-0.053 0.015,-0.013 0.039,-0.021 0.072,-0.021 0.036,0 0.062,0.008 0.077,0.023 0.016,0.016 0.024,0.034 0.024,0.055 0,0.019 -0.004,0.035 -0.012,0.05 -0.008,0.013 -0.019,0.024 -0.036,0.033 -0.009,-0.003 -0.018,-0.005 -0.029,-0.007l0 0zm0.597 -0.206l-0.295 0 -0.022 0.248 0.048 0.018c0.013,-0.01 0.03,-0.018 0.049,-0.024 0.018,-0.006 0.041,-0.009 0.068,-0.009 0.035,0 0.062,0.01 0.082,0.029 0.019,0.019 0.029,0.045 0.029,0.077 0,0.016 -0.003,0.031 -0.01,0.044 -0.006,0.014 -0.015,0.025 -0.025,0.035 -0.011,0.009 -0.024,0.015 -0.039,0.02 -0.016,0.005 -0.032,0.007 -0.049,0.007 -0.027,0 -0.053,-0.004 -0.076,-0.014 -0.023,-0.009 -0.045,-0.025 -0.067,-0.047l-0.043 0.053c0.024,0.025 0.051,0.044 0.081,0.057 0.029,0.012 0.062,0.018 0.099,0.018 0.031,0 0.059,-0.005 0.084,-0.014 0.025,-0.009 0.045,-0.021 0.062,-0.037 0.017,-0.015 0.03,-0.034 0.039,-0.055 0.009,-0.021 0.014,-0.044 0.014,-0.068 0,-0.027 -0.005,-0.051 -0.013,-0.072 -0.009,-0.021 -0.021,-0.039 -0.036,-0.053 -0.015,-0.015 -0.034,-0.026 -0.055,-0.033 -0.021,-0.008 -0.044,-0.012 -0.069,-0.012 -0.021,0 -0.039,0.003 -0.055,0.006 -0.016,0.004 -0.031,0.009 -0.044,0.016l0.009 -0.123 0.234 0 0 -0.067z"/>
   <path class="fil2" d="M1.605 2.667l-0.946 0c-0.021,0 -0.039,-0.008 -0.053,-0.022 -0.013,-0.013 -0.022,-0.032 -0.022,-0.052l0 -0.946c0,-0.021 0.009,-0.039 0.022,-0.053 0.014,-0.013 0.032,-0.022 0.053,-0.022l0.946 0 0 0.057 -0.946 0c-0.005,0 -0.01,0.002 -0.013,0.005 -0.003,0.003 -0.005,0.008 -0.005,0.013l0 0.946c0,0.005 0.002,0.009 0.005,0.012 0.003,0.004 0.008,0.006 0.013,0.006l0.946 0 0 0.056z"/>
  </g>
 </g>
</svg>
