<?xml version="1.0" encoding="UTF-8"?>
<!DOCTYPE svg PUBLIC "-//W3C//DTD SVG 1.1//EN" "http://www.w3.org/Graphics/SVG/1.1/DTD/svg11.dtd">
<!-- Creator: CorelDRAW 2018 (64-Bit) -->
<svg xmlns="http://www.w3.org/2000/svg" xml:space="preserve" width="65px" height="75px" version="1.1" style="shape-rendering:geometricPrecision; text-rendering:geometricPrecision; image-rendering:optimizeQuality; fill-rule:evenodd; clip-rule:evenodd"
viewBox="0 0 0.867 1.001"
 xmlns:xlink="http://www.w3.org/1999/xlink">
 <defs>
  <style type="text/css">
   <![CDATA[
    .str0 {stroke:#DBA71F;stroke-width:0.013;stroke-miterlimit:22.9256}
    .fil0 {fill:#FEFEFE}
    .fil1 {fill:#DBA71F}
   ]]>
  </style>
 </defs>
 <g id="Слой_x0020_1">
  <metadata id="CorelCorpID_0Corel-Layer"/>
  <polygon class="fil0 str0" points="0.433,0.008 0.647,0.131 0.86,0.254 0.86,0.5 0.86,0.747 0.647,0.87 0.433,0.993 0.22,0.87 0.007,0.747 0.007,0.5 0.007,0.254 0.22,0.131 "/>
  <path class="fil1" d="M0.542 0.389c0.003,-0.002 0.004,-0.004 0.004,-0.007l0 -0.037 0.021 -0.042 0.021 -0.011c0.003,-0.001 0.005,-0.004 0.005,-0.007l0 -0.035c0,-0.003 -0.003,-0.006 -0.006,-0.008l-0.033 -0.011 -0.081 -0.061c-0.001,-0.001 -0.003,-0.001 -0.005,-0.001l-0.069 0c-0.002,0 -0.004,0 -0.005,0.001l-0.081 0.061 -0.033 0.011c-0.004,0.002 -0.006,0.005 -0.006,0.008l0 0.035c0,0.003 0.002,0.006 0.005,0.007l0.02 0.011 0.022 0.042 0 0.037c0,0.003 0.001,0.005 0.004,0.007l0.002 0.001 -0.001 0.003c-0.004,0.011 -0.005,0.023 -0.005,0.035 0,0.031 0.012,0.06 0.034,0.081l0.003 0.004 -0.09 0.035c-0.019,0.008 -0.035,0.021 -0.046,0.037 -0.012,0.017 -0.018,0.037 -0.018,0.057l0 0.107c0,0.004 0.004,0.008 0.009,0.008l0.441 0c0.005,0 0.008,-0.004 0.008,-0.008l0 -0.107c0,-0.02 -0.006,-0.04 -0.017,-0.057 -0.012,-0.016 -0.028,-0.029 -0.047,-0.037l-0.09 -0.035 0.004 -0.004c0.022,-0.021 0.034,-0.05 0.034,-0.081 0,-0.012 -0.002,-0.024 -0.005,-0.035l-0.001 -0.003 0.002 -0.001zm-0.116 0.352l-0.019 -0.033 0 -0.075c0,-0.003 0.001,-0.006 0.003,-0.009l0.023 -0.031 0.024 0.031c0.002,0.003 0.003,0.006 0.003,0.009l0 0.075 -0.02 0.033 -0.014 0zm-0.024 -0.205l0 0.02c0,0.008 0.003,0.016 0.009,0.022 0.002,0.002 0.003,0.003 0.005,0.004l0.003 0.002 -0.022 0.031c-0.004,0.005 -0.007,0.012 -0.007,0.018l0 0.048 -0.079 -0.132 0.063 -0.025 0.002 0.001c0.007,0.004 0.015,0.008 0.024,0.011l0.002 0zm0.031 0.035c-0.004,0 -0.007,-0.002 -0.01,-0.004 -0.003,-0.003 -0.005,-0.007 -0.005,-0.011l0 -0.016 0.004 0c0.004,0.001 0.008,0.001 0.011,0.001 0.004,0 0.008,0 0.012,-0.001l0.003 0 0 0.016c0,0.008 -0.006,0.015 -0.015,0.015zm0.037 0.044l-0.022 -0.031 0.003 -0.002c0.008,-0.006 0.014,-0.015 0.014,-0.026l0 -0.02 0.002 0c0.009,-0.003 0.017,-0.007 0.024,-0.011l0.002 -0.001 0.063 0.025 -0.08 0.132 0 -0.048c0,-0.006 -0.002,-0.013 -0.006,-0.018zm-0.125 -0.237c-0.001,-0.001 -0.002,-0.002 -0.003,-0.002 0,-0.001 -0.001,-0.001 -0.002,-0.001l-0.003 0 0 -0.024 0.193 0 0 0.025 -0.033 0.01c-0.021,0.007 -0.042,0.011 -0.064,0.011 -0.011,0 -0.022,-0.001 -0.032,-0.003 -0.011,-0.002 -0.022,-0.004 -0.032,-0.008l-0.023 -0.007 -0.001 -0.001zm-0.036 -0.089l-0.018 -0.009 0 -0.024 0.029 -0.01c0.001,0 0.001,0 0.002,-0.001l0.079 -0.06 0.064 0 0.08 0.06c0,0.001 0.001,0.001 0.002,0.001l0.029 0.01 0 0.024 -0.018 0.009c-0.002,0.001 -0.003,0.002 -0.004,0.004l-0.021 0.042 -0.199 0 -0.021 -0.042c-0.001,-0.002 -0.002,-0.003 -0.004,-0.004zm0.028 0.139c0,-0.01 0.002,-0.02 0.005,-0.03l0.001 -0.003 0.021 0.007c0.011,0.004 0.023,0.006 0.034,0.008 0.012,0.002 0.024,0.003 0.035,0.003 0.024,0 0.047,-0.004 0.069,-0.011l0.022 -0.007 0.001 0.003c0.003,0.01 0.005,0.02 0.005,0.03 0,0.032 -0.016,0.062 -0.043,0.08 0,0 0,0 0,0 -0.01,0.007 -0.021,0.011 -0.032,0.014 -0.014,0.003 -0.029,0.003 -0.043,0 -0.012,-0.003 -0.023,-0.007 -0.032,-0.014 -0.027,-0.018 -0.043,-0.048 -0.043,-0.08zm-0.116 0.214c0,-0.035 0.021,-0.066 0.053,-0.078l0.021 -0.009 0.112 0.186 -0.186 0 0 -0.099zm0.425 0.099l-0.186 0 0.111 -0.186 0.021 0.009c0.033,0.012 0.054,0.043 0.054,0.078l0 0.099zm-0.213 -0.436c0.024,0 0.043,-0.019 0.043,-0.043 0,-0.024 -0.019,-0.043 -0.043,-0.043 -0.023,0 -0.043,0.019 -0.043,0.043 0,0.024 0.02,0.043 0.043,0.043zm0 -0.07c0.015,0 0.027,0.012 0.027,0.027 0,0.015 -0.012,0.026 -0.027,0.026 -0.014,0 -0.026,-0.011 -0.026,-0.026 0,-0.015 0.012,-0.027 0.026,-0.027zm0.175 0.456l-0.024 0c-0.004,0 -0.008,0.003 -0.008,0.008 0,0.004 0.004,0.008 0.008,0.008l0.024 0c0.004,0 0.008,-0.004 0.008,-0.008 0,-0.005 -0.004,-0.008 -0.008,-0.008zm-0.07 0c-0.005,0 -0.008,0.003 -0.008,0.008 0,0.004 0.003,0.008 0.008,0.008 0.005,0 0.008,-0.004 0.008,-0.008 0,-0.005 -0.003,-0.008 -0.008,-0.008z"/>
 </g>
</svg>
