<?xml version="1.0" encoding="UTF-8"?>
<!DOCTYPE svg PUBLIC "-//W3C//DTD SVG 1.1//EN" "http://www.w3.org/Graphics/SVG/1.1/DTD/svg11.dtd">
<!-- Creator: CorelDRAW 2018 (64-Bit) -->
<svg xmlns="http://www.w3.org/2000/svg" xml:space="preserve" width="110px" height="97px" version="1.1" style="shape-rendering:geometricPrecision; text-rendering:geometricPrecision; image-rendering:optimizeQuality; fill-rule:evenodd; clip-rule:evenodd"
viewBox="0 0 14.304 12.604"
 xmlns:xlink="http://www.w3.org/1999/xlink">
 <defs>
  <style type="text/css">
   <![CDATA[
    .fil2 {fill:#030303;fill-rule:nonzero}
    .fil0 {fill:#DBA71F;fill-rule:nonzero}
    .fil1 {fill:#F0F0F0;fill-rule:nonzero}
   ]]>
  </style>
 </defs>
 <g id="Слой_x0020_1">
  <metadata id="CorelCorpID_0Corel-Layer"/>
  <g id="_2042368577008">
   <polygon class="fil0" points="5.519,0.149 3.692,0 0,3.095 1.287,4.904 2.759,3.99 2.759,12.604 5.519,12.604 "/>
   <path class="fil1" d="M6.836 12.36c-0.164,0.147 -0.379,0.236 -0.615,0.236l-1.416 0c-0.254,0 -0.485,-0.104 -0.652,-0.271 -0.167,-0.167 -0.271,-0.398 -0.271,-0.652l0 -3.384c0,-0.253 0.104,-0.484 0.271,-0.651l0.001 -0.001c0.087,-0.087 0.192,-0.157 0.308,-0.204l0 -3.704c0,-0.362 0.294,-0.656 0.656,-0.656l8.53 0c0.362,0 0.656,0.294 0.656,0.656l0 5.413 0 0.82c0,0.362 -0.294,0.657 -0.656,0.657l-3.276 0c0.038,0.653 0.312,0.984 0.815,0.984l0.329 0c0.271,0 0.492,0.221 0.492,0.492 0,0.271 -0.221,0.492 -0.492,0.492l-4.265 0c-0.174,0 -0.327,-0.091 -0.415,-0.227z"/>
   <g>
    <g>
     <path class="fil2" d="M6.968 8.978l7.008 0 0 -5.249c0,-0.181 -0.147,-0.328 -0.328,-0.328l-8.53 0c-0.181,0 -0.328,0.147 -0.328,0.328l0 3.814c-0.118,0.002 -0.229,0.032 -0.328,0.084l0 -3.898c0,-0.362 0.294,-0.656 0.656,-0.656l8.53 0c0.362,0 0.656,0.294 0.656,0.656l0 5.413c0,0.091 -0.073,0.164 -0.164,0.164l-7.172 0 0 -0.328z"/>
     <path class="fil2" d="M6.968 10.291l6.68 0c0.181,0 0.328,-0.148 0.328,-0.329l0 -0.656 -7.008 0 0 -0.328 7.172 0c0.091,0 0.164,0.074 0.164,0.164l0 0.82c0,0.362 -0.294,0.657 -0.656,0.657l-6.68 0 0 -0.328z"/>
     <path class="fil2" d="M9.875 9.963l-0.984 0c-0.091,0 -0.164,-0.074 -0.164,-0.165 0,-0.09 0.073,-0.164 0.164,-0.164l0.984 0c0.091,0 0.164,0.074 0.164,0.164 0,0.091 -0.073,0.165 -0.164,0.165z"/>
     <path class="fil2" d="M6.968 8.978l6.352 0 0 -4.921 -7.874 0 0 3.485 -0.328 0 0 -3.649c0,-0.09 0.074,-0.164 0.164,-0.164l8.202 0c0.091,0 0.164,0.074 0.164,0.164l0 5.249c0,0.091 -0.073,0.164 -0.164,0.164l-6.516 0 0 -0.328z"/>
     <path class="fil2" d="M7.251 11.931c-0.091,0 -0.164,0.074 -0.164,0.164 0,0.09 0.073,0.164 0.164,0.164l4.265 0c0.09,0 0.164,-0.074 0.164,-0.164 0,-0.09 -0.074,-0.164 -0.164,-0.164l-4.265 0zm4.265 0.656l-4.265 0c-0.242,0 -0.443,-0.175 -0.485,-0.405 0.121,-0.129 0.197,-0.301 0.202,-0.49 0.08,-0.056 0.178,-0.089 0.283,-0.089l4.265 0c0.271,0 0.492,0.221 0.492,0.492 0,0.271 -0.221,0.492 -0.492,0.492z"/>
     <path class="fil2" d="M8.378 11.603l2.011 0c-0.202,-0.224 -0.321,-0.557 -0.345,-0.984l-1.321 0c-0.024,0.427 -0.143,0.76 -0.345,0.984zm2.809 0.328l-3.608 0c-0.091,0 -0.164,-0.074 -0.164,-0.164 0,-0.091 0.073,-0.164 0.164,-0.164 0.544,0 0.82,-0.386 0.82,-1.148 0,-0.091 0.073,-0.164 0.164,-0.164l1.64 0c0.091,0 0.164,0.073 0.164,0.164 0,0.762 0.276,1.148 0.82,1.148 0.091,0 0.165,0.073 0.165,0.164 0,0.09 -0.074,0.164 -0.165,0.164z"/>
     <path class="fil2" d="M6.923 5.205l4.264 0 0 -0.492 -4.264 0 0 0.492zm4.429 0.329l-4.593 0c-0.091,0 -0.165,-0.074 -0.165,-0.165l0 -0.82c0,-0.09 0.074,-0.164 0.165,-0.164l4.593 0c0.09,0 0.164,0.074 0.164,0.164l0 0.82c0,0.091 -0.074,0.165 -0.164,0.165z"/>
     <path class="fil2" d="M7.579 6.846l0.984 0 0 -0.328 -0.984 0 0 0.328zm1.148 0.328l-1.312 0c-0.091,0 -0.164,-0.074 -0.164,-0.164l0 -0.656c0,-0.091 0.073,-0.164 0.164,-0.164l1.312 0c0.09,0 0.164,0.073 0.164,0.164l0 0.656c0,0.09 -0.074,0.164 -0.164,0.164z"/>
     <path class="fil2" d="M6.923 7.502l3.52 0 -0.232 -0.773c-0.017,-0.058 -0.001,-0.12 0.041,-0.163 0.043,-0.043 0.105,-0.059 0.163,-0.041l0.772 0.231 0 -2.043 -4.264 0 0 2.789zm3.741 0.328l-3.855 0c-0.059,-0.075 -0.132,-0.139 -0.215,-0.187l0 -3.094c0,-0.09 0.074,-0.164 0.165,-0.164l4.593 0c0.09,0 0.164,0.074 0.164,0.164l0 2.428c0,0.052 -0.025,0.1 -0.067,0.131 -0.041,0.031 -0.095,0.041 -0.145,0.026l-0.691 -0.208 0.208 0.693c0.015,0.049 0.005,0.103 -0.026,0.145 -0.031,0.042 -0.079,0.066 -0.131,0.066z"/>
     <path class="fil0" d="M11.208 7.831c0.055,0 0.11,0.021 0.152,0.063l0.36 0.36 0.232 -0.232 -0.38 -0.38c-0.035,-0.035 -0.055,-0.082 -0.055,-0.132 0,-0.049 0.02,-0.096 0.055,-0.131l0.126 -0.127 -1.085 -0.326 0.326 1.086 0.118 -0.119c0.042,-0.041 0.097,-0.062 0.151,-0.062zm0.512 0.819c-0.043,0 -0.085,-0.017 -0.116,-0.048l-0.396 -0.396 -0.231 0.232c-0.041,0.041 -0.101,0.057 -0.157,0.043 -0.056,-0.014 -0.1,-0.056 -0.117,-0.112l-0.492 -1.64c-0.017,-0.058 -0.001,-0.121 0.041,-0.163 0.043,-0.043 0.106,-0.059 0.164,-0.041l1.64 0.492c0.055,0.016 0.098,0.061 0.112,0.117 0.014,0.056 -0.003,0.115 -0.043,0.156l-0.221 0.22 0.396 0.396c0.064,0.064 0.064,0.168 0,0.232l-0.464 0.464c-0.03,0.031 -0.072,0.048 -0.116,0.048z"/>
    </g>
    <path class="fil2" d="M4.805 7.366l1.416 0c0.254,0 0.484,0.104 0.652,0.271l0.001 0.001c0.167,0.167 0.271,0.398 0.271,0.651l0 3.384c0,0.253 -0.104,0.484 -0.271,0.651l-0.001 0.001c-0.168,0.167 -0.398,0.271 -0.652,0.271l-1.416 0c-0.254,0 -0.485,-0.104 -0.652,-0.271 -0.167,-0.167 -0.271,-0.398 -0.271,-0.652l0 -3.384c0,-0.253 0.104,-0.484 0.271,-0.651l0.001 -0.001c0.167,-0.167 0.398,-0.271 0.651,-0.271zm1.416 0.353l-1.416 0c-0.157,0 -0.299,0.064 -0.403,0.167l0 0.001c-0.103,0.103 -0.167,0.245 -0.167,0.402l0 3.384c0,0.157 0.064,0.299 0.167,0.403 0.104,0.103 0.247,0.167 0.403,0.167l1.416 0c0.158,0 0.3,-0.063 0.403,-0.167l0.001 0c0.103,-0.103 0.167,-0.246 0.167,-0.403l0 -3.384c0,-0.157 -0.064,-0.299 -0.167,-0.402l-0.001 -0.001c-0.103,-0.103 -0.245,-0.167 -0.403,-0.167z"/>
    <path class="fil2" d="M5.214 8.337c-0.098,0 -0.177,-0.079 -0.177,-0.176 0,-0.097 0.079,-0.176 0.177,-0.176l0.476 0c0.097,0 0.176,0.079 0.176,0.176 0,0.097 -0.079,0.176 -0.176,0.176l-0.476 0z"/>
   </g>
  </g>
 </g>
</svg>
