<?xml version="1.0" encoding="UTF-8"?>
<!DOCTYPE svg PUBLIC "-//W3C//DTD SVG 1.1//EN" "http://www.w3.org/Graphics/SVG/1.1/DTD/svg11.dtd">
<!-- Creator: CorelDRAW 2018 (64-Bit) -->
<svg xmlns="http://www.w3.org/2000/svg" xml:space="preserve" width="135px" height="97px" version="1.1" style="shape-rendering:geometricPrecision; text-rendering:geometricPrecision; image-rendering:optimizeQuality; fill-rule:evenodd; clip-rule:evenodd"
viewBox="0 0 52.308 37.775"
 xmlns:xlink="http://www.w3.org/1999/xlink">
 <defs>
  <style type="text/css">
   <![CDATA[
    .fil2 {fill:#030303;fill-rule:nonzero}
    .fil0 {fill:#DBA71F;fill-rule:nonzero}
    .fil1 {fill:#F0F0F0;fill-rule:nonzero}
   ]]>
  </style>
 </defs>
 <g id="Слой_x0020_1">
  <metadata id="CorelCorpID_0Corel-Layer"/>
  <g id="_2045705692544">
   <path class="fil0" d="M17.358 14.774l-8.152 0 0 7.036 8.928 0c1.664,0 2.939,0.324 3.771,1.028 0.832,0.704 1.276,1.623 1.276,2.868 0,1.461 -0.61,2.598 -1.775,3.518 -1.22,0.866 -3.05,1.299 -5.49,1.299 -1.165,0 -2.218,-0.054 -3.161,-0.217 -0.998,-0.162 -1.941,-0.379 -2.884,-0.703 -0.943,-0.325 -1.83,-0.758 -2.717,-1.245 -0.887,-0.487 -1.775,-1.136 -2.718,-1.894l-4.436 5.953c2.329,1.948 4.714,3.301 7.209,4.167 2.496,0.758 5.269,1.191 8.319,1.191 2.551,0 4.825,-0.325 6.821,-0.866 1.996,-0.65 3.66,-1.462 5.047,-2.49 1.33,-1.082 2.329,-2.327 3.05,-3.788 0.72,-1.407 1.053,-2.922 1.053,-4.6 0,-2.057 -0.499,-3.788 -1.497,-5.141 -0.998,-1.407 -2.385,-2.436 -4.159,-3.031l0 -0.487c1.275,-0.704 2.273,-1.678 2.994,-2.977 0.666,-1.19 0.999,-2.597 0.999,-4.167 0,-1.515 -0.333,-2.868 -0.999,-4.167 -0.61,-1.19 -1.552,-2.273 -2.773,-3.193 -1.22,-0.92 -2.717,-1.623 -4.436,-2.11 -1.719,-0.487 -3.716,-0.758 -5.934,-0.758 -2.717,0 -5.213,0.379 -7.597,1.191 -2.33,0.757 -4.548,1.948 -6.6,3.571l4.159 5.683c1.498,-1.137 3.106,-1.894 4.659,-2.436 1.663,-0.432 3.216,-0.703 4.825,-0.703 2.218,0 3.826,0.325 4.824,1.028 1.054,0.704 1.553,1.732 1.553,3.085 0,1.082 -0.388,1.894 -1.109,2.489 -0.777,0.596 -1.775,0.866 -3.05,0.866z"/>
   <path class="fil1" d="M34.741 37.751l-2.055 0 -0.006 0 -0.659 0 -8.347 0c-0.464,0 -0.885,-0.188 -1.189,-0.493 -0.305,-0.304 -0.493,-0.725 -0.493,-1.189l0 -12.951c0,-0.463 0.188,-0.884 0.493,-1.188 0.304,-0.305 0.725,-0.494 1.189,-0.494l3.791 0 0 -9.557c0,-0.676 0.275,-1.289 0.719,-1.734 0.444,-0.444 1.057,-0.719 1.734,-0.719l19.937 0c0.676,0 1.29,0.275 1.734,0.719 0.444,0.444 0.719,1.058 0.719,1.734l0 3.873 0 0.582 0 0.006 0 2.055 0 0.006 0 1.902 0 2.986c0,0.676 -0.275,1.289 -0.719,1.733 -0.444,0.444 -1.058,0.719 -1.734,0.719l-4.419 0 0 10.328c0,0.464 -0.189,0.885 -0.493,1.189 -0.305,0.305 -0.726,0.493 -1.189,0.493l-7.222 0 -1.785 0 -0.006 0z"/>
   <path class="fil2" d="M33.894 32.601l-9.095 0c-0.182,0 -0.347,-0.074 -0.466,-0.193 -0.119,-0.12 -0.193,-0.284 -0.193,-0.466l0 -1.266c0,-0.182 0.074,-0.347 0.193,-0.466 0.119,-0.119 0.284,-0.193 0.466,-0.193l9.095 0c0.182,0 0.346,0.074 0.466,0.193 0.119,0.119 0.193,0.284 0.193,0.466l0 1.266c0,0.182 -0.074,0.347 -0.193,0.466 -0.12,0.119 -0.284,0.193 -0.466,0.193zm-3.976 -23.175l19.937 0c0.676,0 1.29,0.275 1.734,0.719 0.444,0.444 0.719,1.058 0.719,1.734l0 4.455c0,0.133 -0.054,0.254 -0.142,0.341 -0.087,0.088 -0.208,0.142 -0.341,0.142 -0.133,0 -0.254,-0.054 -0.341,-0.142 -0.087,-0.087 -0.141,-0.208 -0.141,-0.341l0 -4.455c0,-0.41 -0.167,-0.782 -0.437,-1.051 -0.269,-0.27 -0.641,-0.437 -1.051,-0.437l-19.937 0c-0.41,0 -0.782,0.167 -1.052,0.437 -0.269,0.269 -0.436,0.641 -0.436,1.051l0 9.557 3.212 0c-0.138,-0.123 -0.296,-0.223 -0.467,-0.295 -0.196,-0.082 -0.409,-0.127 -0.629,-0.127l-0.754 0c-0.203,0 -0.387,-0.083 -0.52,-0.216 -0.133,-0.133 -0.216,-0.317 -0.216,-0.52l0 -5.388c0,-0.203 0.083,-0.387 0.216,-0.52 0.133,-0.133 0.317,-0.216 0.52,-0.216l0.754 0c0.454,0 0.866,-0.185 1.164,-0.483 0.298,-0.298 0.483,-0.71 0.483,-1.163l0 -0.755c0,-0.203 0.082,-0.386 0.215,-0.519 0.134,-0.134 0.318,-0.216 0.52,-0.216l13.916 0c0.203,0 0.387,0.082 0.52,0.216 0.134,0.133 0.216,0.316 0.216,0.519l0 0.754c0,0.454 0.185,0.866 0.483,1.164 0.298,0.298 0.71,0.483 1.163,0.483l0.755 0c0.202,0 0.386,0.083 0.519,0.216 0.134,0.133 0.216,0.317 0.216,0.519l0 5.389c0,0.203 -0.082,0.387 -0.216,0.52 -0.133,0.133 -0.317,0.215 -0.519,0.215l-0.755 0c-0.453,0 -0.865,0.185 -1.163,0.483 -0.298,0.299 -0.483,0.71 -0.483,1.164l0 0.754c0,0.203 -0.082,0.387 -0.216,0.52 -0.133,0.133 -0.317,0.216 -0.52,0.216l-1.408 0 0 0.626 4.419 0c0.41,0 0.782,-0.167 1.051,-0.436 0.27,-0.269 0.437,-0.641 0.437,-1.051l0 -4.888c0,-0.133 0.054,-0.254 0.141,-0.341 0.087,-0.088 0.208,-0.142 0.341,-0.142 0.134,0 0.254,0.054 0.341,0.142 0.088,0.087 0.142,0.208 0.142,0.341l0 4.888c0,0.676 -0.275,1.289 -0.719,1.733 -0.444,0.444 -1.058,0.719 -1.734,0.719l-4.419 0 0 10.328c0,0.464 -0.189,0.885 -0.493,1.189 -0.305,0.305 -0.726,0.493 -1.189,0.493l-9.007 0c-0.133,0 -0.254,-0.054 -0.341,-0.141 -0.087,-0.087 -0.141,-0.208 -0.141,-0.341 0,-0.133 0.054,-0.254 0.141,-0.341 0.088,-0.088 0.208,-0.142 0.341,-0.142l9.007 0c0.197,0 0.376,-0.08 0.506,-0.21 0.13,-0.13 0.21,-0.309 0.21,-0.507l0 -7.156 -21.513 0 0 7.156c0,0.198 0.08,0.377 0.21,0.507 0.13,0.13 0.309,0.21 0.507,0.21l9.006 0c0.134,0 0.254,0.054 0.341,0.141 0.088,0.088 0.142,0.209 0.142,0.342 0,0.133 -0.054,0.254 -0.142,0.341 -0.087,0.087 -0.207,0.141 -0.341,0.141l-9.006 0c-0.464,0 -0.885,-0.188 -1.189,-0.493 -0.305,-0.304 -0.493,-0.725 -0.493,-1.189l0 -12.951c0,-0.463 0.188,-0.884 0.493,-1.188 0.304,-0.305 0.725,-0.494 1.189,-0.494l3.791 0 0 -9.557c0,-0.676 0.275,-1.289 0.719,-1.734 0.444,-0.444 1.057,-0.719 1.734,-0.719zm-6.961 18.522l21.513 0 0 -2.207 -21.513 0 0 2.207zm7.065 -7.9l0.524 0c0.486,0 0.951,0.138 1.352,0.382 0.396,0.241 0.729,0.587 0.953,1.006l4.758 0c-0.648,-0.384 -1.191,-0.927 -1.576,-1.576 -0.396,-0.667 -0.623,-1.446 -0.623,-2.276 0,-1.234 0.502,-2.354 1.312,-3.164 0.811,-0.811 1.93,-1.313 3.164,-1.313 1.235,0 2.354,0.502 3.164,1.313 0.811,0.81 1.313,1.93 1.313,3.164 0,0.83 -0.228,1.609 -0.624,2.276 -0.384,0.649 -0.927,1.192 -1.576,1.576l1.591 0c0.463,0 0.884,0.189 1.188,0.494 0.305,0.304 0.494,0.725 0.494,1.188l0 0.067 1.179 0 0 -0.525c0,-0.72 0.293,-1.373 0.766,-1.846 0.473,-0.473 1.126,-0.766 1.846,-0.766l0.524 0 0 -4.929 -0.524 0c-0.72,0 -1.373,-0.293 -1.846,-0.766 -0.473,-0.473 -0.766,-1.125 -0.766,-1.845l0 -0.525 -13.457 0 0 0.525c0,0.72 -0.293,1.372 -0.766,1.845 -0.473,0.473 -1.126,0.766 -1.846,0.766l-0.524 0 0 4.929zm7.383 0.018c0.635,0.635 1.513,1.029 2.481,1.029 0.968,0 1.846,-0.394 2.482,-1.029 0.636,-0.636 1.03,-1.514 1.03,-2.482 0,-0.968 -0.394,-1.846 -1.03,-2.482 -0.636,-0.636 -1.514,-1.03 -2.482,-1.03 -0.968,0 -1.846,0.394 -2.481,1.03 -0.636,0.636 -1.03,1.514 -1.03,2.482 0,0.968 0.394,1.846 1.03,2.482zm6.855 2.546c-0.129,-0.13 -0.309,-0.21 -0.506,-0.21l-20.08 0c-0.198,0 -0.377,0.08 -0.507,0.21 -0.13,0.129 -0.21,0.309 -0.21,0.506l0 1.658 21.513 0 0 -1.658c0,-0.197 -0.08,-0.377 -0.21,-0.506zm-19.927 12.929c-0.119,-0.119 -0.193,-0.284 -0.193,-0.465l0 -1.267c0,-0.181 0.074,-0.346 0.193,-0.465 0.119,-0.12 0.284,-0.193 0.466,-0.193l9.095 0c0.181,0 0.346,0.073 0.465,0.193 0.12,0.119 0.194,0.284 0.194,0.465l0 1.267c0,0.181 -0.074,0.346 -0.193,0.466 -0.12,0.119 -0.284,0.193 -0.466,0.193l-9.095 0c-0.182,0 -0.347,-0.074 -0.466,-0.194zm9.255 -1.425l-8.483 0 0 0.653 8.483 0 0 -0.653zm0 -3.134l-8.483 0 0 0.654 8.483 0 0 -0.654z"/>
   <path class="fil0" d="M40.925 35.171c-0.435,0.029 -0.888,-0.063 -1.311,-0.305 -0.424,0.242 -0.876,0.334 -1.31,0.305 -0.39,-0.027 -0.764,-0.151 -1.091,-0.354 -0.327,-0.202 -0.606,-0.483 -0.803,-0.821 -0.224,-0.383 -0.343,-0.841 -0.309,-1.344 0.026,-0.379 0.137,-0.723 0.311,-1.02 0.225,-0.385 0.554,-0.693 0.939,-0.897 0.384,-0.203 0.823,-0.303 1.268,-0.272 0.336,0.023 0.675,0.12 0.995,0.303 0.32,-0.183 0.659,-0.28 0.996,-0.303 0.444,-0.031 0.883,0.069 1.268,0.273 0.384,0.203 0.714,0.511 0.938,0.896 0.174,0.298 0.285,0.641 0.311,1.02 0.035,0.504 -0.084,0.962 -0.308,1.345 -0.197,0.338 -0.477,0.618 -0.804,0.821 -0.327,0.202 -0.701,0.326 -1.09,0.353zm-3.635 -3.121c-0.127,0.19 -0.209,0.416 -0.226,0.667 -0.023,0.343 0.071,0.647 0.241,0.89 0.121,0.174 0.28,0.317 0.462,0.42 0.182,0.103 0.386,0.166 0.597,0.18 0.295,0.02 0.603,-0.055 0.881,-0.248l0 0c0.111,-0.077 0.24,-0.115 0.369,-0.115 0.129,0 0.259,0.038 0.369,0.115 0.278,0.193 0.586,0.268 0.881,0.248 0.211,-0.014 0.415,-0.077 0.597,-0.18 0.182,-0.102 0.341,-0.245 0.463,-0.419 0.169,-0.243 0.264,-0.548 0.24,-0.891 -0.017,-0.251 -0.099,-0.478 -0.226,-0.668 -0.138,-0.206 -0.329,-0.37 -0.548,-0.478 -0.219,-0.109 -0.465,-0.161 -0.714,-0.144 -0.228,0.015 -0.458,0.089 -0.67,0.231 -0.119,0.079 -0.255,0.119 -0.392,0.119 -0.136,0 -0.273,-0.04 -0.392,-0.119 -0.212,-0.142 -0.442,-0.216 -0.669,-0.231 -0.249,-0.017 -0.496,0.035 -0.715,0.144 -0.219,0.108 -0.41,0.272 -0.548,0.479z"/>
   <path class="fil0" d="M41.514 17.655c-0.163,0.144 -0.363,0.254 -0.601,0.33 -0.238,0.075 -0.518,0.113 -0.84,0.113l-0.408 0 0 0.428 0.578 0c0.22,0 0.4,0.18 0.4,0.4l0 0c0,0.22 -0.18,0.4 -0.4,0.4l-0.578 0 0 0.627c0,0.026 -0.007,0.048 -0.024,0.068 -0.016,0.02 -0.044,0.036 -0.081,0.049 -0.037,0.013 -0.088,0.022 -0.151,0.03 -0.061,0.007 -0.142,0.011 -0.239,0.011 -0.095,0 -0.174,-0.004 -0.239,-0.011 -0.064,-0.008 -0.114,-0.018 -0.151,-0.03 -0.037,-0.013 -0.064,-0.03 -0.079,-0.049 -0.015,-0.02 -0.023,-0.044 -0.023,-0.068l0 -0.627 -0.133 0c-0.22,0 -0.4,-0.18 -0.4,-0.4l0 0c0,-0.22 0.18,-0.4 0.4,-0.4l0.133 0 0 -2.956c0,-0.118 0.031,-0.207 0.093,-0.266 0.062,-0.059 0.142,-0.089 0.243,-0.089l1.148 0c0.116,0 0.227,0.004 0.331,0.013 0.104,0.009 0.229,0.028 0.375,0.057 0.145,0.029 0.293,0.082 0.442,0.16 0.149,0.077 0.278,0.176 0.383,0.296 0.504,0.572 0.375,1.425 -0.179,1.914zm-1.123 -1.557c-0.097,-0.015 -0.198,-0.021 -0.302,-0.021l-0.424 0 0 1.149 0.447 0c0.16,0 0.292,-0.021 0.4,-0.064 0.694,-0.274 0.567,-0.964 -0.121,-1.064z"/>
  </g>
 </g>
</svg>
