<?xml version="1.0" encoding="UTF-8"?>
<!DOCTYPE svg PUBLIC "-//W3C//DTD SVG 1.1//EN" "http://www.w3.org/Graphics/SVG/1.1/DTD/svg11.dtd">
<!-- Creator: CorelDRAW 2018 (64-Bit) -->
<svg xmlns="http://www.w3.org/2000/svg" xml:space="preserve" width="110px" height="98px" version="1.1" style="shape-rendering:geometricPrecision; text-rendering:geometricPrecision; image-rendering:optimizeQuality; fill-rule:evenodd; clip-rule:evenodd"
viewBox="0 0 50.213 44.546"
 xmlns:xlink="http://www.w3.org/1999/xlink">
 <defs>
  <style type="text/css">
   <![CDATA[
    .fil3 {fill:#DBA71F}
    .fil2 {fill:#030303;fill-rule:nonzero}
    .fil0 {fill:#DBA71F;fill-rule:nonzero}
    .fil1 {fill:#F0F0F0;fill-rule:nonzero}
   ]]>
  </style>
 </defs>
 <g id="Слой_x0020_1">
  <metadata id="CorelCorpID_0Corel-Layer"/>
  <g id="_2042102458928">
   <path class="fil0" d="M34.386 44.546l0 -8.792 -18.951 0 9.508 -6.578c3.256,-2.214 5.666,-4.559 7.164,-6.903 1.498,-2.475 2.279,-5.21 2.279,-8.336 0,-2.019 -0.39,-3.908 -1.237,-5.601 -0.781,-1.758 -1.954,-3.256 -3.387,-4.429 -1.563,-1.302 -3.321,-2.214 -5.405,-2.865 -2.084,-0.716 -4.428,-1.042 -6.968,-1.042 -3.452,0 -6.643,0.456 -9.444,1.433 -2.8,0.977 -5.47,2.54 -7.945,4.689l4.884 7.098c1.759,-1.497 3.647,-2.605 5.601,-3.451 2.019,-0.782 4.103,-1.173 6.317,-1.173 2.736,0 4.755,0.522 6.057,1.564 1.303,1.107 1.954,2.54 1.954,4.298 0,1.628 -0.521,3.126 -1.498,4.559 -0.977,1.432 -2.54,2.93 -4.559,4.428l-17.844 13.286 0 7.815 33.474 0z"/>
   <path class="fil1" d="M25.166 23.237l3.857 0c0.479,0.686 1.365,1.381 2.984,1.381l10.362 -0.006c0.936,0 1.696,-0.79 1.696,-1.762 0,-0.255 -0.053,-0.498 -0.149,-0.717l0.532 -0.002c0.937,0 1.698,-0.79 1.698,-1.762 0,-0.246 -0.05,-0.481 -0.138,-0.695l0.208 -0.001c0.937,0 1.698,-0.79 1.698,-1.761 0,-0.909 -0.666,-1.658 -1.519,-1.752 0.117,-0.247 0.182,-0.524 0.182,-0.816 0,-1.041 -0.814,-1.888 -1.815,-1.888l-8.935 -0.007 1.433 -1.502c0.386,-0.389 0.598,-0.905 0.598,-1.452 0,-0.55 -0.213,-1.067 -0.601,-1.456 -0.39,-0.389 -0.907,-0.602 -1.457,-0.602 -0.551,0 -1.068,0.213 -1.456,0.602l-4.904 4.906 -4.272 -0.017c0,0 -0.002,0 -0.002,0 -0.142,0 -0.277,0.057 -0.377,0.156 -0.1,0.101 -0.158,0.237 -0.158,0.378l0 8.241c0,0.295 0.24,0.534 0.535,0.534zm24.96 18.647l-1.83 -6.099 -24.045 0 -1.83 6.099c-0.188,0.626 -0.071,1.285 0.318,1.81 0.39,0.524 0.987,0.825 1.641,0.825l23.786 0c0.653,0 1.25,-0.301 1.64,-0.825 0.391,-0.525 0.506,-1.184 0.32,-1.81zm-0.716 -10.485l-15.211 0c0.218,-0.34 0.314,-0.747 0.247,-1.169 -0.133,-0.855 -0.872,-1.451 -1.795,-1.451 -0.03,0 -0.062,0 -0.094,0.002 -0.058,0.002 -0.115,0.012 -0.168,0.03 -0.892,0.287 -1.419,1.087 -1.284,1.944 0.038,0.237 0.122,0.454 0.244,0.644l-8.214 0 0 3.43 26.275 0 0 -3.43zm-10.696 -0.037c0.017,0 0.036,0 0.054,-0.001 0.097,-0.001 0.193,-0.018 0.282,-0.049 1.189,-0.412 1.578,-1.432 1.44,-2.26 -0.139,-0.827 -0.838,-1.662 -2.086,-1.662 -0.018,0 -0.036,0 -0.054,0.001 -0.096,0.002 -0.191,0.018 -0.282,0.05 -1.189,0.412 -1.58,1.432 -1.441,2.26 0.14,0.827 0.839,1.661 2.087,1.661zm-3.566 -6.453c-0.031,0 -0.062,0 -0.093,0.002 -0.056,0.003 -0.112,0.013 -0.165,0.03 -0.866,0.278 -1.38,1.056 -1.247,1.891 0.128,0.831 0.847,1.412 1.743,1.412 0.032,0 0.062,-0.001 0.094,-0.002 0.056,-0.002 0.112,-0.012 0.165,-0.029 0.866,-0.279 1.38,-1.056 1.249,-1.891 -0.131,-0.832 -0.849,-1.413 -1.746,-1.413z"/>
   <g>
    <path class="fil2" d="M25.7 14.998l3.957 0.015c0.001,0 0.001,0 0.003,0 0.141,0 0.277,-0.056 0.376,-0.155l5.063 -5.063c0.187,-0.187 0.437,-0.29 0.701,-0.29 0.265,0 0.514,0.103 0.702,0.29 0.385,0.386 0.385,1.014 0,1.401 -0.005,0.003 -0.006,0.006 -0.01,0.008l-1.775 1.861c-0.006,0.007 -0.013,0.013 -0.018,0.02l-0.079 0.092c-0.144,0.165 -0.171,0.402 -0.069,0.596 0.183,0.351 0.275,0.733 0.275,1.133 0,1.352 -1.099,2.451 -2.449,2.451l0 1.068c1.94,0 3.518,-1.579 3.518,-3.519 0,-0.13 -0.007,-0.26 -0.023,-0.389l8.889 0.007c0.412,0 0.749,0.368 0.749,0.82 0,0.416 -0.285,0.76 -0.654,0.812l-1.003 0.005 0 0.002 -6.114 0 0 -0.404 -1.068 0 0 7.034 1.068 0 0 -0.626 4.629 -0.01c0.348,0 0.63,0.311 0.63,0.693 0,0.383 -0.282,0.694 -0.63,0.694l-10.361 0.006c-2.461,0 -2.552,-2.044 -2.555,-2.274l0 -4.749 -1.069 0 0 4.749c0,0.023 0.003,0.4 0.143,0.894l-2.826 0 0 -7.172zm21.145 2.914c0,0.383 -0.282,0.693 -0.629,0.693l-1.711 0.006c-0.019,-0.001 -0.037,-0.004 -0.057,-0.004l-6.709 0.011 0 -1.387 7.022 0c0.048,0 0.097,-0.003 0.145,-0.007l1.31 -0.006c0.347,0 0.629,0.311 0.629,0.694zm-1.766 2.457c0,0.383 -0.283,0.694 -0.632,0.694l-2.05 0.007 0 0.02c-0.01,0 -0.019,-0.001 -0.03,-0.001l-4.628 0.01 0 -1.413 6.062 -0.009 0 0.003 0.702 -0.002c0.321,0.031 0.576,0.329 0.576,0.691zm-19.913 2.868l3.857 0c0.479,0.686 1.365,1.381 2.984,1.381l10.361 -0.006c0.937,0 1.697,-0.79 1.697,-1.762 0,-0.255 -0.053,-0.498 -0.149,-0.717l0.532 -0.002c0.937,0 1.698,-0.79 1.698,-1.762 0,-0.246 -0.05,-0.481 -0.138,-0.695l0.208 -0.001c0.937,0 1.698,-0.79 1.698,-1.761 0,-0.909 -0.666,-1.658 -1.519,-1.751 0.117,-0.248 0.182,-0.525 0.182,-0.817 0,-1.041 -0.814,-1.888 -1.815,-1.888l-8.935 -0.007 1.433 -1.502c0.386,-0.389 0.598,-0.905 0.598,-1.452 0,-0.55 -0.213,-1.067 -0.601,-1.456 -0.39,-0.389 -0.907,-0.602 -1.457,-0.602 -0.551,0 -1.068,0.213 -1.456,0.602l-4.904 4.906 -4.272 -0.016c0,0 -0.002,0 -0.002,0 -0.142,0 -0.277,0.056 -0.377,0.155 -0.1,0.101 -0.158,0.237 -0.158,0.379l0 8.24c0,0.295 0.24,0.534 0.535,0.534z"/>
    <path class="fil2" d="M48.878 43.003c-0.168,0.228 -0.429,0.359 -0.712,0.359l-23.786 0c-0.284,0 -0.543,-0.131 -0.713,-0.359 -0.17,-0.228 -0.22,-0.514 -0.138,-0.786l1.583 -5.275 22.321 0 1.585 5.275c0.08,0.272 0.03,0.558 -0.14,0.786zm1.248 -1.119l-1.83 -6.099 -24.045 0 -1.83 6.099c-0.188,0.626 -0.071,1.285 0.318,1.81 0.39,0.524 0.987,0.825 1.641,0.825l23.786 0c0.653,0 1.25,-0.301 1.64,-0.825 0.391,-0.525 0.506,-1.184 0.32,-1.81z"/>
    <path class="fil2" d="M48.254 33.672l-23.962 0 0 -1.116 23.962 0 0 1.116zm1.156 -2.273c-13.905,0 -15.24,0 -26.275,0l0 3.43 26.275 0 0 -3.43z"/>
    <path class="fil2" d="M27.422 39.139l7.025 0 0 2.025 -7.025 0 0 -2.025zm-1.156 3.182l9.338 0 0 -4.339 -9.338 0 0 4.339z"/>
    <path class="fil2" d="M39.552 38.908c-0.091,0 -0.167,-0.075 -0.167,-0.168 0,-0.091 0.076,-0.167 0.167,-0.167 0.092,0 0.167,0.076 0.167,0.167 0,0.093 -0.075,0.168 -0.167,0.168zm0 -1.492c-0.729,0 -1.324,0.594 -1.324,1.324 0,0.731 0.595,1.324 1.324,1.324 0.73,0 1.325,-0.593 1.325,-1.324 0,-0.73 -0.595,-1.324 -1.325,-1.324z"/>
    <path class="fil2" d="M42.412 38.908c-0.092,0 -0.168,-0.075 -0.168,-0.168 0,-0.091 0.076,-0.167 0.168,-0.167 0.093,0 0.167,0.076 0.167,0.167 0,0.093 -0.074,0.168 -0.167,0.168zm0 -1.492c-0.73,0 -1.324,0.594 -1.324,1.324 0,0.731 0.594,1.324 1.324,1.324 0.73,0 1.324,-0.593 1.324,-1.324 0,-0.73 -0.594,-1.324 -1.324,-1.324z"/>
    <path class="fil2" d="M39.552 41.729c-0.091,0 -0.167,-0.074 -0.167,-0.167 0,-0.091 0.076,-0.167 0.167,-0.167 0.092,0 0.167,0.076 0.167,0.167 0,0.093 -0.075,0.167 -0.167,0.167zm0 -1.491c-0.729,0 -1.324,0.595 -1.324,1.324 0,0.731 0.595,1.325 1.324,1.325 0.73,0 1.325,-0.594 1.325,-1.325 0,-0.729 -0.595,-1.324 -1.325,-1.324z"/>
    <path class="fil2" d="M42.412 41.729c-0.092,0 -0.168,-0.074 -0.168,-0.167 0,-0.091 0.076,-0.167 0.168,-0.167 0.093,0 0.167,0.076 0.167,0.167 0,0.093 -0.074,0.167 -0.167,0.167zm0 -1.491c-0.73,0 -1.324,0.595 -1.324,1.324 0,0.731 0.594,1.325 1.324,1.325 0.73,0 1.324,-0.594 1.324,-1.325 0,-0.729 -0.594,-1.324 -1.324,-1.324z"/>
    <path class="fil2" d="M45.302 38.908c-0.092,0 -0.167,-0.075 -0.167,-0.168 0,-0.091 0.075,-0.167 0.167,-0.167 0.091,0 0.167,0.076 0.167,0.167 0,0.093 -0.076,0.168 -0.167,0.168zm0 -1.492c-0.731,0 -1.325,0.594 -1.325,1.324 0,0.731 0.594,1.324 1.325,1.324 0.729,0 1.323,-0.593 1.323,-1.324 0,-0.73 -0.594,-1.324 -1.323,-1.324z"/>
    <path class="fil2" d="M45.302 41.729c-0.092,0 -0.167,-0.074 -0.167,-0.167 0,-0.091 0.075,-0.167 0.167,-0.167 0.091,0 0.167,0.076 0.167,0.167 0,0.093 -0.076,0.167 -0.167,0.167zm0 -1.491c-0.731,0 -1.325,0.595 -1.325,1.324 0,0.731 0.594,1.325 1.325,1.325 0.729,0 1.323,-0.594 1.323,-1.325 0,-0.729 -0.594,-1.324 -1.323,-1.324z"/>
    <path class="fil0" d="M38.425 28.636c0.54,0.009 0.786,0.325 0.836,0.622 0.05,0.293 -0.076,0.666 -0.57,0.859 -0.538,-0.009 -0.784,-0.326 -0.834,-0.622 -0.05,-0.293 0.076,-0.668 0.568,-0.859zm0.288 2.726c0.019,0 0.037,0 0.055,0 0.097,-0.002 0.193,-0.019 0.282,-0.05 1.188,-0.412 1.578,-1.432 1.44,-2.261 -0.139,-0.826 -0.838,-1.661 -2.086,-1.661 -0.018,0 -0.036,0 -0.054,0.001 -0.096,0.002 -0.191,0.018 -0.282,0.05 -1.189,0.412 -1.58,1.431 -1.441,2.26 0.14,0.827 0.839,1.661 2.086,1.661z"/>
    <path class="fil0" d="M33.941 20.164c0.414,0.017 0.49,0.297 0.505,0.384 0.012,0.085 0.024,0.362 -0.344,0.516 -0.413,-0.018 -0.49,-0.296 -0.504,-0.383 -0.013,-0.086 -0.025,-0.364 0.343,-0.517zm0.203 2.147c0.031,0 0.062,-0.001 0.096,-0.003 0.054,-0.001 0.11,-0.011 0.163,-0.029 0.883,-0.284 1.406,-1.075 1.274,-1.924 -0.135,-0.847 -0.864,-1.437 -1.777,-1.437 -0.032,0 -0.064,0 -0.097,0.001 -0.056,0.003 -0.111,0.013 -0.164,0.03 -0.882,0.284 -1.405,1.075 -1.271,1.925 0.131,0.846 0.862,1.437 1.776,1.437z"/>
    <path class="fil0" d="M35.343 26.997c-0.386,-0.018 -0.457,-0.277 -0.471,-0.358 -0.012,-0.08 -0.023,-0.337 0.32,-0.483 0.386,0.018 0.458,0.277 0.471,0.359 0.012,0.079 0.022,0.337 -0.32,0.482zm-0.195 -2.087c-0.03,0 -0.062,0 -0.093,0.001 -0.056,0.003 -0.112,0.013 -0.165,0.03 -0.865,0.278 -1.379,1.056 -1.248,1.891 0.129,0.831 0.848,1.412 1.744,1.412 0.032,0 0.062,-0.001 0.094,-0.002 0.056,-0.002 0.112,-0.012 0.165,-0.029 0.866,-0.279 1.38,-1.056 1.249,-1.891 -0.132,-0.832 -0.849,-1.412 -1.746,-1.412z"/>
   </g>
   <path class="fil3" d="M32.437 27.996c0.94,0 1.702,0.762 1.702,1.701 0,0.94 -0.762,1.702 -1.702,1.702 -0.939,0 -1.701,-0.762 -1.701,-1.702 0,-0.939 0.762,-1.701 1.701,-1.701zm0 1.209c0.272,0 0.493,0.22 0.493,0.492 0,0.273 -0.221,0.493 -0.493,0.493 -0.272,0 -0.492,-0.22 -0.492,-0.493 0,-0.272 0.22,-0.492 0.492,-0.492z"/>
  </g>
 </g>
</svg>
