<?xml version="1.0" encoding="UTF-8"?>
<!DOCTYPE svg PUBLIC "-//W3C//DTD SVG 1.1//EN" "http://www.w3.org/Graphics/SVG/1.1/DTD/svg11.dtd">
<!-- Creator: CorelDRAW 2018 (64-Bit) -->
<svg xmlns="http://www.w3.org/2000/svg" xml:space="preserve" width="115px" height="99px" version="1.1" style="shape-rendering:geometricPrecision; text-rendering:geometricPrecision; image-rendering:optimizeQuality; fill-rule:evenodd; clip-rule:evenodd"
viewBox="0 0 4.671 4.031"
 xmlns:xlink="http://www.w3.org/1999/xlink">
 <defs>
  <style type="text/css">
   <![CDATA[
    .fil3 {fill:#DBA71F}
    .fil1 {fill:#FEFEFE;fill-rule:nonzero}
    .fil2 {fill:#2B2A29;fill-rule:nonzero}
    .fil0 {fill:#DBA71F;fill-rule:nonzero}
   ]]>
  </style>
 </defs>
 <g id="Слой_x0020_1">
  <metadata id="CorelCorpID_0Corel-Layer"/>
  <path class="fil0" d="M3.073 3.981l0 -0.786 -1.694 0 0.85 -0.587c0.291,-0.198 0.507,-0.408 0.64,-0.617 0.134,-0.222 0.204,-0.466 0.204,-0.745 0,-0.181 -0.035,-0.35 -0.11,-0.501 -0.07,-0.157 -0.175,-0.291 -0.303,-0.396 -0.14,-0.116 -0.297,-0.198 -0.483,-0.256 -0.186,-0.064 -0.396,-0.093 -0.623,-0.093 -0.308,0 -0.594,0.041 -0.844,0.128 -0.25,0.087 -0.489,0.227 -0.71,0.419l0.437 0.635c0.157,-0.134 0.325,-0.233 0.5,-0.309 0.181,-0.07 0.367,-0.105 0.565,-0.105 0.244,0 0.425,0.047 0.541,0.14 0.116,0.099 0.175,0.227 0.175,0.384 0,0.146 -0.047,0.28 -0.134,0.408 -0.088,0.128 -0.227,0.261 -0.408,0.395l-1.595 1.188 0 0.698 2.992 0z"/>
  <path class="fil1" d="M4.425 3.306l-0.777 0.164 -0.24 -0.036c0.092,-0.062 0.117,-0.189 0.056,-0.287 -0.036,-0.056 -0.102,-0.092 -0.169,-0.092l-0.568 0 -0.307 0.087 0 -0.082 -0.613 0 0 0.921 0.613 0 0 -0.133 0.573 0.174c0.026,0.01 0.051,0.01 0.077,0.005l1.442 -0.327c0.108,-0.026 0.179,-0.133 0.154,-0.241 -0.026,-0.107 -0.133,-0.179 -0.241,-0.153zm-1.851 -0.399l1.841 0c0.087,0 0.154,-0.066 0.154,-0.153l0 -1.228c0,-0.087 -0.067,-0.153 -0.154,-0.153l-0.614 0 0 -0.256c0,-0.087 -0.066,-0.154 -0.153,-0.154l-0.307 0c-0.087,0 -0.153,0.067 -0.153,0.154l0 0.256 -0.614 0c-0.087,0 -0.154,0.066 -0.154,0.153l0 1.228c0,0.087 0.067,0.153 0.154,0.153zm-0.665 -0.665l0.102 0 0 0.102 0.102 0 0 -0.102 0.103 0 0 -0.102 -0.103 0 0 -0.103 -0.102 0 0 0.103 -0.102 0 0 0.102zm2.455 -1.074l0.102 0 0 0.102 0.103 0 0 -0.102 0.102 0 0 -0.102 -0.102 0 0 -0.103 -0.103 0 0 0.103 -0.102 0 0 0.102zm-0.716 2.046l0.102 0 0 0.102 0.103 0 0 -0.102 0.102 0 0 -0.102 -0.102 0 0 -0.103 -0.103 0 0 0.103 -0.102 0 0 0.102z"/>
  <path class="fil2" d="M4.425 3.306l-0.777 0.164 -0.24 -0.036c0.092,-0.062 0.117,-0.189 0.056,-0.287 -0.036,-0.056 -0.102,-0.092 -0.169,-0.092l-0.568 0 -0.307 0.087 0 -0.082 -0.613 0 0 0.921 0.613 0 0 -0.133 0.573 0.174c0.026,0.01 0.051,0.01 0.077,0.005l1.442 -0.327c0.108,-0.026 0.179,-0.133 0.154,-0.241 -0.026,-0.107 -0.133,-0.179 -0.241,-0.153zm-2.107 0.573l-0.409 0 0 -0.716 0.204 0 0 0.409 0.103 0 0 -0.409 0.102 0 0 0.716zm2.174 -0.281l-1.442 0.327c-0.011,0 -0.016,0 -0.026,0l-0.604 -0.184 0 -0.486 0.312 -0.092 0.558 0c0.056,0 0.102,0.046 0.102,0.102 0,0.056 -0.046,0.102 -0.102,0.102l-0.358 0 0 0.052 -0.005 0.051 0.721 0.102 0.798 -0.169c0.056,-0.01 0.107,0.026 0.118,0.077 0.015,0.056 -0.021,0.107 -0.072,0.118z"/>
  <polygon class="fil2" points="2.113,3.777 2.216,3.777 2.216,3.674 2.113,3.674 "/>
  <path class="fil2" d="M2.574 2.907l1.841 0c0.087,0 0.154,-0.066 0.154,-0.153l0 -1.228c0,-0.087 -0.067,-0.153 -0.154,-0.153l-0.614 0 0 -0.256c0,-0.087 -0.066,-0.154 -0.153,-0.154l-0.307 0c-0.087,0 -0.153,0.067 -0.153,0.154l0 0.256 -0.614 0c-0.087,0 -0.154,0.066 -0.154,0.153l0 1.228c0,0.087 0.067,0.153 0.154,0.153zm1.841 -0.102l-1.841 0c-0.031,0 -0.051,-0.021 -0.051,-0.051l0 -0.921 0.767 0 0 0.307 0.409 0 0 -0.307 0.767 0 0 0.921c0,0.03 -0.02,0.051 -0.051,0.051zm-1.023 -0.972l0.205 0 0 0.204 -0.205 0 0 -0.204zm-0.102 -0.716c0,-0.031 0.02,-0.051 0.051,-0.051l0.307 0c0.031,0 0.051,0.02 0.051,0.051l0 0.256 -0.409 0 0 -0.256zm-0.716 0.358l1.841 0c0.031,0 0.051,0.02 0.051,0.051l0 0.205 -1.943 0 0 -0.205c0,-0.031 0.02,-0.051 0.051,-0.051z"/>
  <polygon class="fil1" points="2.011,2.14 2.113,2.14 2.113,2.037 2.011,2.037 "/>
  <polygon class="fil1" points="2.113,2.242 2.216,2.242 2.216,2.14 2.113,2.14 "/>
  <polygon class="fil1" points="2.011,2.344 2.113,2.344 2.113,2.242 2.011,2.242 "/>
  <polygon class="fil1" points="1.909,2.242 2.011,2.242 2.011,2.14 1.909,2.14 "/>
  <polygon class="fil0" points="4.466,1.066 4.569,1.066 4.569,0.963 4.466,0.963 "/>
  <polygon class="fil0" points="4.569,1.168 4.671,1.168 4.671,1.066 4.569,1.066 "/>
  <polygon class="fil0" points="4.466,1.27 4.569,1.27 4.569,1.168 4.466,1.168 "/>
  <polygon class="fil0" points="4.364,1.168 4.466,1.168 4.466,1.066 4.364,1.066 "/>
  <polygon class="fil0" points="3.75,3.112 3.853,3.112 3.853,3.009 3.75,3.009 "/>
  <polygon class="fil0" points="3.853,3.214 3.955,3.214 3.955,3.112 3.853,3.112 "/>
  <polygon class="fil0" points="3.75,3.316 3.853,3.316 3.853,3.214 3.75,3.214 "/>
  <polygon class="fil0" points="3.648,3.214 3.75,3.214 3.75,3.112 3.648,3.112 "/>
  <polygon class="fil3" points="2.113,2.242 2.113,2.14 2.011,2.14 2.011,2.242 "/>
 </g>
</svg>
