<?xml version="1.0" encoding="UTF-8"?>
<!DOCTYPE svg PUBLIC "-//W3C//DTD SVG 1.1//EN" "http://www.w3.org/Graphics/SVG/1.1/DTD/svg11.dtd">
<!-- Creator: CorelDRAW 2018 (64-Bit) -->
<svg xmlns="http://www.w3.org/2000/svg" xml:space="preserve" width="17px" height="20px" version="1.1" style="shape-rendering:geometricPrecision; text-rendering:geometricPrecision; image-rendering:optimizeQuality; fill-rule:evenodd; clip-rule:evenodd"
viewBox="0 0 0.242 0.288"
 xmlns:xlink="http://www.w3.org/1999/xlink">
 <defs>
  <style type="text/css">
   <![CDATA[
    .fil0 {fill:#DBA71F;fill-rule:nonzero}
   ]]>
  </style>
 </defs>
 <g id="Слой_x0020_1">
  <metadata id="CorelCorpID_0Corel-Layer"/>
  <g id="_2005999622400">
   <path class="fil0" d="M0.207 0.035c0.023,0.024 0.035,0.055 0.035,0.086l0 0c0,0.031 -0.012,0.062 -0.035,0.086l-0.079 0.079c-0.004,0.003 -0.01,0.003 -0.014,0l-0.079 -0.079c-0.023,-0.024 -0.035,-0.055 -0.035,-0.086l0 0c0,-0.031 0.012,-0.062 0.035,-0.086 0.024,-0.023 0.055,-0.035 0.086,-0.035 0.031,0 0.062,0.012 0.086,0.035zm-0.014 0.014c-0.02,-0.02 -0.046,-0.03 -0.072,-0.03 -0.026,0 -0.052,0.01 -0.072,0.03 -0.02,0.02 -0.03,0.046 -0.03,0.072l0 0c0,0.026 0.01,0.052 0.03,0.072l0.072 0.072 0.072 -0.072c0.02,-0.02 0.03,-0.046 0.03,-0.072l0 0c0,-0.026 -0.01,-0.052 -0.03,-0.072z"/>
   <path class="fil0" d="M0.083 0.069l0.075 0c0.005,0 0.009,0.002 0.012,0.005l0 0c0.003,0.003 0.005,0.006 0.006,0.01l0.014 0.051c0,0.001 0,0.002 0,0.004 0,0.004 -0.001,0.008 -0.004,0.01 -0.002,0.003 -0.005,0.005 -0.008,0.005 -0.002,0.001 -0.004,0.001 -0.005,0.001l-0.104 0c-0.001,0 -0.003,0 -0.004,-0.001 -0.004,0 -0.007,-0.002 -0.009,-0.005 -0.003,-0.002 -0.004,-0.006 -0.004,-0.01 0,-0.001 0,-0.003 0,-0.004l0.014 -0.051c0.001,-0.004 0.003,-0.007 0.006,-0.01 0,0 0,-0.001 0,-0.001 0.003,-0.002 0.007,-0.004 0.011,-0.004zm0.074 0.019l-0.072 0c0,0.001 0,0.001 0,0.001l-0.013 0.047 0.098 0 -0.013 -0.047c0,0 0,0 0,-0.001z"/>
  </g>
 </g>
</svg>
