<?xml version="1.0" encoding="UTF-8"?>
<!DOCTYPE svg PUBLIC "-//W3C//DTD SVG 1.1//EN" "http://www.w3.org/Graphics/SVG/1.1/DTD/svg11.dtd">
<!-- Creator: CorelDRAW 2018 (64-Bit) -->
<svg xmlns="http://www.w3.org/2000/svg" xml:space="preserve" width="264px" height="84px" version="1.1" style="shape-rendering:geometricPrecision; text-rendering:geometricPrecision; image-rendering:optimizeQuality; fill-rule:evenodd; clip-rule:evenodd"
viewBox="0 0 69.645 22.245"
 xmlns:xlink="http://www.w3.org/1999/xlink">
 <defs>
  <style type="text/css">
   <![CDATA[
    .fil1 {fill:#DBA71F;fill-rule:nonzero}
    .fil0 {fill:#FEFEFE;fill-rule:nonzero}
   ]]>
  </style>
 </defs>
 <g id="Слой_x0020_1">
  <metadata id="CorelCorpID_0Corel-Layer"/>
  <g id="_2079591289600">
   <g>
    <path class="fil0" d="M34.339 4.198l0.759 -1.097c-0.349,-0.297 -0.759,-0.513 -1.22,-0.656 -0.461,-0.144 -0.974,-0.215 -1.528,-0.215 -0.41,0 -0.779,0.041 -1.128,0.143 -0.328,0.082 -0.625,0.226 -0.861,0.4 -0.236,0.174 -0.431,0.4 -0.554,0.666 -0.143,0.257 -0.205,0.565 -0.205,0.903 0,0.625 0.185,1.097 0.554,1.425 0.369,0.328 0.892,0.533 1.558,0.625l1.056 0.134c0.349,0.051 0.595,0.133 0.749,0.246 0.154,0.112 0.226,0.276 0.226,0.471 0,0.236 -0.113,0.421 -0.328,0.554 -0.226,0.133 -0.565,0.205 -1.016,0.205 -0.42,0 -0.83,-0.051 -1.21,-0.154 -0.379,-0.102 -0.769,-0.277 -1.148,-0.512l-0.646 1.261c0.441,0.297 0.902,0.502 1.364,0.615 0.461,0.113 0.984,0.174 1.548,0.174 0.482,0 0.902,-0.051 1.271,-0.164 0.38,-0.102 0.687,-0.246 0.944,-0.451 0.246,-0.184 0.43,-0.42 0.564,-0.697 0.133,-0.277 0.194,-0.574 0.194,-0.913 0,-0.584 -0.184,-1.056 -0.553,-1.404 -0.38,-0.37 -0.943,-0.595 -1.692,-0.698l-1.005 -0.133c-0.318,-0.041 -0.543,-0.113 -0.687,-0.215 -0.143,-0.092 -0.215,-0.246 -0.215,-0.441 0,-0.215 0.092,-0.379 0.287,-0.502 0.195,-0.113 0.513,-0.175 0.964,-0.175 0.359,0 0.707,0.052 1.046,0.154 0.338,0.103 0.635,0.257 0.912,0.451zm7.803 -1.825l-6.224 0 0 1.395 2.348 0 0 5.475 1.528 0 0 -5.475 2.348 0 0 -1.395zm4.521 0l-1.692 0 -2.819 6.87 1.671 0 0.513 -1.364 2.942 0 0.523 1.364 1.702 0 -2.84 -6.87zm-1.825 4.153l0.923 -2.615 0.103 0 0.912 2.615 -1.938 0zm10.44 -4.153l-6.223 0 0 1.395 2.347 0 0 5.475 1.528 0 0 -5.475 2.348 0 0 -1.395zm2.789 0l-1.548 0 0 3.845c0,0.482 0.072,0.923 0.205,1.312 0.133,0.39 0.341,0.726 0.595,0.995 0.269,0.285 0.597,0.486 0.984,0.636 0.382,0.147 0.82,0.225 1.322,0.225 0.503,0 0.958,-0.071 1.344,-0.225 0.383,-0.154 0.704,-0.382 0.963,-0.657 0.264,-0.279 0.464,-0.617 0.595,-1.004 0.136,-0.403 0.205,-0.831 0.205,-1.313l0 -3.814 -1.548 0 0 3.845c0,0.584 -0.136,1.023 -0.39,1.323 -0.259,0.305 -0.646,0.461 -1.169,0.461 -0.512,0 -0.901,-0.165 -1.158,-0.482 -0.266,-0.328 -0.4,-0.769 -0.4,-1.322l0 -3.825zm10.635 1.825l0.759 -1.097c-0.349,-0.297 -0.759,-0.513 -1.22,-0.656 -0.462,-0.144 -0.975,-0.215 -1.528,-0.215 -0.41,0 -0.778,0.048 -1.128,0.143 -0.326,0.089 -0.626,0.226 -0.861,0.4 -0.236,0.174 -0.421,0.405 -0.554,0.666 -0.133,0.262 -0.205,0.565 -0.205,0.903 0,0.625 0.185,1.097 0.554,1.425 0.369,0.328 0.891,0.541 1.558,0.625l1.056 0.134c0.35,0.044 0.595,0.133 0.749,0.246 0.153,0.112 0.225,0.276 0.225,0.471 0,0.236 -0.111,0.423 -0.328,0.554 -0.224,0.135 -0.564,0.205 -1.015,0.205 -0.42,0 -0.831,-0.051 -1.21,-0.154 -0.379,-0.102 -0.769,-0.277 -1.148,-0.512l-0.646 1.261c0.441,0.297 0.903,0.502 1.364,0.615 0.461,0.113 0.984,0.174 1.548,0.174 0.482,0 0.9,-0.057 1.271,-0.164 0.378,-0.108 0.684,-0.25 0.943,-0.451 0.243,-0.188 0.431,-0.421 0.564,-0.697 0.134,-0.277 0.195,-0.574 0.195,-0.913 0,-0.584 -0.187,-1.053 -0.553,-1.404 -0.382,-0.367 -0.943,-0.598 -1.692,-0.698l-1.005 -0.133c-0.318,-0.042 -0.541,-0.116 -0.687,-0.215 -0.141,-0.096 -0.215,-0.246 -0.215,-0.441 0,-0.215 0.09,-0.383 0.287,-0.502 0.192,-0.117 0.513,-0.175 0.964,-0.175 0.359,0 0.707,0.052 1.045,0.154 0.339,0.103 0.636,0.257 0.913,0.451z"/>
    <path class="fil1" d="M35.867 15.945l-2.676 0 0 1.281 1.21 0.072 0 1.046c-0.359,0.174 -0.78,0.267 -1.272,0.267 -0.318,0 -0.605,-0.052 -0.871,-0.154 -0.267,-0.092 -0.503,-0.236 -0.687,-0.431 -0.205,-0.184 -0.349,-0.41 -0.461,-0.676 -0.113,-0.267 -0.165,-0.575 -0.165,-0.913 0,-0.328 0.052,-0.625 0.154,-0.892 0.113,-0.277 0.257,-0.502 0.451,-0.697 0.195,-0.185 0.421,-0.328 0.698,-0.431 0.266,-0.102 0.563,-0.154 0.892,-0.154 0.358,0 0.697,0.052 0.994,0.154 0.308,0.113 0.574,0.277 0.81,0.492l0.861 -1.107c-0.348,-0.318 -0.748,-0.554 -1.179,-0.708 -0.451,-0.153 -0.922,-0.235 -1.435,-0.235 -0.585,0 -1.118,0.092 -1.579,0.287 -0.461,0.195 -0.861,0.451 -1.189,0.779 -0.318,0.328 -0.575,0.707 -0.739,1.148 -0.184,0.431 -0.266,0.892 -0.266,1.384 0,0.554 0.092,1.046 0.266,1.487 0.175,0.441 0.431,0.81 0.749,1.118 0.318,0.307 0.707,0.543 1.158,0.707 0.452,0.164 0.954,0.246 1.497,0.246 0.533,0 1.036,-0.071 1.497,-0.215 0.472,-0.144 0.902,-0.369 1.282,-0.677l0 -3.178zm4.757 -3.086c-0.533,0 -1.025,0.092 -1.466,0.287 -0.441,0.184 -0.83,0.441 -1.148,0.759 -0.328,0.317 -0.585,0.697 -0.759,1.138 -0.174,0.441 -0.267,0.902 -0.267,1.394 0,0.502 0.093,0.974 0.267,1.415 0.174,0.441 0.431,0.82 0.759,1.138 0.318,0.318 0.707,0.574 1.148,0.759 0.441,0.174 0.933,0.266 1.466,0.266 0.544,0 1.036,-0.092 1.487,-0.287 0.441,-0.184 0.83,-0.441 1.148,-0.759 0.318,-0.328 0.574,-0.707 0.749,-1.148 0.174,-0.43 0.266,-0.892 0.266,-1.384 0,-0.513 -0.092,-0.984 -0.266,-1.425 -0.175,-0.431 -0.421,-0.81 -0.749,-1.128 -0.307,-0.318 -0.697,-0.574 -1.148,-0.759 -0.451,-0.174 -0.943,-0.266 -1.487,-0.266zm0 1.374c0.328,0 0.626,0.051 0.892,0.164 0.257,0.112 0.482,0.266 0.656,0.461 0.185,0.195 0.328,0.431 0.421,0.708 0.092,0.266 0.143,0.553 0.143,0.871 0,0.297 -0.051,0.584 -0.133,0.851 -0.103,0.267 -0.236,0.502 -0.41,0.697 -0.185,0.205 -0.41,0.369 -0.677,0.482 -0.256,0.113 -0.553,0.174 -0.892,0.174 -0.328,0 -0.625,-0.061 -0.881,-0.164 -0.257,-0.123 -0.482,-0.276 -0.667,-0.471 -0.185,-0.195 -0.328,-0.431 -0.42,-0.697 -0.093,-0.277 -0.144,-0.564 -0.144,-0.872 0,-0.308 0.051,-0.595 0.144,-0.861 0.092,-0.267 0.235,-0.503 0.42,-0.697 0.174,-0.195 0.4,-0.359 0.656,-0.472 0.267,-0.113 0.564,-0.174 0.892,-0.174zm6.48 -1.231l-1.538 0 0 6.87 5.25 0 0 -1.405 -3.712 0 0 -5.465zm7.464 0l-2.532 0 0 6.87 2.501 0c0.564,0 1.087,-0.082 1.538,-0.257 0.472,-0.174 0.862,-0.41 1.19,-0.707 0.328,-0.308 0.584,-0.677 0.758,-1.087 0.175,-0.43 0.267,-0.882 0.267,-1.384 0,-0.502 -0.082,-0.974 -0.256,-1.384 -0.175,-0.421 -0.421,-0.79 -0.749,-1.087 -0.318,-0.308 -0.707,-0.543 -1.169,-0.718 -0.461,-0.164 -0.974,-0.246 -1.548,-0.246zm-1.005 5.486l0 -4.102 0.974 0c0.718,0 1.272,0.175 1.641,0.523 0.39,0.349 0.574,0.862 0.574,1.528 0,0.318 -0.061,0.605 -0.164,0.861 -0.123,0.257 -0.266,0.462 -0.472,0.646 -0.184,0.164 -0.42,0.308 -0.697,0.4 -0.266,0.092 -0.553,0.144 -0.871,0.144l-0.985 0z"/>
   </g>
   <g>
    <path class="fil1" d="M8.76 9.833c-0.369,0.651 -0.441,1.39 -0.259,2.059 0.182,0.669 0.62,1.269 1.269,1.644 0.647,0.373 1.385,0.451 2.056,0.274 0.672,-0.176 1.276,-0.607 1.655,-1.25 0.233,-0.398 0.745,-0.532 1.143,-0.298l3.191 1.842c0.4,0.23 0.538,0.741 0.308,1.14 -0.076,0.132 -0.182,0.236 -0.306,0.307l0.001 0.001 -6.357 3.671c-0.285,0.165 -0.627,0.143 -0.884,-0.028l-6.56 -3.788c-0.269,-0.154 -0.419,-0.435 -0.419,-0.724l-0.004 0 0 -3.405 -1.875 -1.082c-0.187,1.889 0.205,3.748 1.062,5.36 1.029,1.937 2.73,3.517 4.903,4.366 2.174,0.85 4.497,0.841 6.566,0.115 2.07,-0.726 3.887,-2.169 5.053,-4.19 0.128,-0.221 0.246,-0.448 0.355,-0.679l1.451 0.838c-0.111,0.228 -0.231,0.452 -0.358,0.674 -1.374,2.381 -3.515,4.081 -5.951,4.936 -2.435,0.855 -5.167,0.865 -7.726,-0.134 -2.56,-1.001 -4.563,-2.86 -5.774,-5.139 -1.204,-2.267 -1.626,-4.952 -1.036,-7.621 0.017,-0.094 0.05,-0.188 0.101,-0.276 0.232,-0.4 0.743,-0.536 1.143,-0.304l3.292 1.9c0.279,0.136 0.471,0.423 0.471,0.754l0 3.407 5.769 3.331 4.687 -2.707 -1.293 -0.746c-0.589,0.67 -1.354,1.13 -2.182,1.348 -1.083,0.285 -2.274,0.159 -3.32,-0.445 -1.044,-0.603 -1.748,-1.572 -2.042,-2.653 -0.295,-1.081 -0.179,-2.273 0.415,-3.323l1.455 0.825z"/>
    <polygon class="fil1" points="13.782,13.706 11.954,12.651 10.611,12.651 10.611,10.974 12.396,10.974 14.621,12.258 "/>
    <path class="fil0" d="M13.496 9.809c-0.232,-0.434 -0.576,-0.788 -0.986,-1.033 -0.409,-0.245 -0.884,-0.381 -1.378,-0.381 -0.494,0.001 -0.968,0.138 -1.378,0.384 -0.409,0.245 -0.752,0.599 -0.985,1.035 -0.217,0.407 -0.723,0.561 -1.13,0.344l-1.467 -0.847 -1.884 -1.088c-0.393,-0.233 -0.527,-0.738 -0.299,-1.135 0.078,-0.136 0.188,-0.242 0.316,-0.313l6.344 -3.663c0.268,-0.153 0.585,-0.143 0.834,0.002l0.001 -0.002 6.599 3.811c0.268,0.154 0.418,0.435 0.418,0.723l0.002 0 0 3.311 2.013 1.156c0.202,-1.898 -0.18,-3.767 -1.033,-5.388 -1.022,-1.945 -2.72,-3.534 -4.895,-4.391 -2.179,-0.859 -4.506,-0.855 -6.58,-0.131 -2.075,0.725 -3.898,2.17 -5.066,4.195l-0.001 0.002 0.001 0.001c-0.151,0.262 -0.29,0.531 -0.415,0.805l-1.455 -0.84c0.129,-0.273 0.27,-0.541 0.422,-0.804l0.002 0.001c1.376,-2.385 3.521,-4.087 5.962,-4.939 2.442,-0.853 5.179,-0.858 7.739,0.15 2.563,1.01 4.563,2.882 5.767,5.171 1.197,2.276 1.607,4.965 1.003,7.631 -0.016,0.095 -0.049,0.189 -0.099,0.277 -0.23,0.402 -0.742,0.541 -1.144,0.311l-3.443 -1.976c-0.27,-0.139 -0.455,-0.421 -0.455,-0.746l0 -3.314 -5.763 -3.326 -4.681 2.702 1.394 0.805c0.318,-0.386 0.697,-0.711 1.119,-0.965 0.663,-0.398 1.433,-0.619 2.237,-0.619 0.803,-0.001 1.573,0.22 2.237,0.617 0.663,0.397 1.222,0.972 1.602,1.681l-1.475 0.786z"/>
   </g>
  </g>
 </g>
</svg>
