<?xml version="1.0" encoding="UTF-8"?>
<!DOCTYPE svg PUBLIC "-//W3C//DTD SVG 1.1//EN" "http://www.w3.org/Graphics/SVG/1.1/DTD/svg11.dtd">
<!-- Creator: CorelDRAW 2018 (64-Bit) -->
<svg xmlns="http://www.w3.org/2000/svg" xml:space="preserve" width="302px" height="96px" version="1.1" style="shape-rendering:geometricPrecision; text-rendering:geometricPrecision; image-rendering:optimizeQuality; fill-rule:evenodd; clip-rule:evenodd"
viewBox="0 0 22.949 7.33"
 xmlns:xlink="http://www.w3.org/1999/xlink">
 <defs>
  <style type="text/css">
   <![CDATA[
    .fil1 {fill:#DBA71F;fill-rule:nonzero}
    .fil0 {fill:#FEFEFE;fill-rule:nonzero}
   ]]>
  </style>
 </defs>
 <g id="Слой_x0020_1">
  <metadata id="CorelCorpID_0Corel-Layer"/>
  <g id="_1689909589088">
   <g>
    <path class="fil0" d="M11.315 1.383l0.25 -0.361c-0.115,-0.098 -0.25,-0.169 -0.402,-0.216 -0.152,-0.048 -0.321,-0.071 -0.503,-0.071 -0.135,0 -0.257,0.013 -0.372,0.047 -0.108,0.027 -0.206,0.074 -0.284,0.132 -0.077,0.057 -0.142,0.132 -0.182,0.219 -0.047,0.085 -0.068,0.186 -0.068,0.298 0,0.206 0.061,0.361 0.183,0.469 0.121,0.108 0.294,0.176 0.513,0.206l0.348 0.044c0.115,0.017 0.196,0.044 0.247,0.081 0.05,0.037 0.074,0.092 0.074,0.156 0,0.077 -0.037,0.138 -0.108,0.182 -0.074,0.044 -0.186,0.068 -0.334,0.068 -0.139,0 -0.274,-0.017 -0.399,-0.051 -0.125,-0.034 -0.254,-0.091 -0.378,-0.169l-0.213 0.416c0.145,0.098 0.297,0.165 0.449,0.202 0.152,0.038 0.324,0.058 0.51,0.058 0.159,0 0.297,-0.017 0.419,-0.054 0.125,-0.034 0.226,-0.081 0.311,-0.149 0.081,-0.061 0.142,-0.138 0.186,-0.23 0.044,-0.091 0.064,-0.189 0.064,-0.3 0,-0.193 -0.061,-0.348 -0.183,-0.463 -0.125,-0.122 -0.31,-0.196 -0.557,-0.23l-0.331 -0.044c-0.105,-0.013 -0.179,-0.037 -0.226,-0.071 -0.048,-0.03 -0.071,-0.081 -0.071,-0.145 0,-0.071 0.03,-0.125 0.094,-0.166 0.064,-0.037 0.169,-0.057 0.318,-0.057 0.118,0 0.233,0.017 0.344,0.051 0.112,0.033 0.21,0.084 0.301,0.148zm2.571 -0.601l-2.051 0 0 0.459 0.774 0 0 1.805 0.503 0 0 -1.805 0.774 0 0 -0.459zm1.49 0l-0.557 0 -0.93 2.264 0.551 0 0.169 -0.45 0.97 0 0.172 0.45 0.561 0 -0.936 -2.264zm-0.601 1.368l0.304 -0.861 0.033 0 0.301 0.861 -0.638 0zm3.44 -1.368l-2.051 0 0 0.459 0.774 0 0 1.805 0.503 0 0 -1.805 0.774 0 0 -0.459zm0.919 0l-0.511 0 0 1.267c0,0.159 0.024,0.304 0.068,0.432 0.044,0.129 0.112,0.239 0.196,0.328 0.089,0.094 0.197,0.16 0.324,0.21 0.126,0.048 0.271,0.074 0.436,0.074 0.166,0 0.316,-0.024 0.443,-0.074 0.126,-0.051 0.232,-0.126 0.317,-0.217 0.087,-0.092 0.153,-0.203 0.196,-0.331 0.045,-0.132 0.068,-0.273 0.068,-0.432l0 -1.257 -0.51 0 0 1.267c0,0.192 -0.045,0.337 -0.129,0.436 -0.085,0.1 -0.213,0.152 -0.385,0.152 -0.169,0 -0.297,-0.054 -0.382,-0.159 -0.087,-0.108 -0.131,-0.253 -0.131,-0.436l0 -1.26zm3.504 0.601l0.25 -0.361c-0.115,-0.098 -0.25,-0.169 -0.402,-0.216 -0.152,-0.048 -0.321,-0.071 -0.504,-0.071 -0.135,0 -0.256,0.015 -0.371,0.047 -0.108,0.029 -0.206,0.074 -0.284,0.132 -0.078,0.057 -0.138,0.133 -0.182,0.219 -0.044,0.087 -0.068,0.186 -0.068,0.298 0,0.206 0.061,0.361 0.183,0.469 0.121,0.108 0.293,0.179 0.513,0.206l0.348 0.044c0.115,0.015 0.196,0.044 0.247,0.081 0.05,0.037 0.074,0.092 0.074,0.156 0,0.077 -0.037,0.139 -0.108,0.182 -0.074,0.045 -0.186,0.068 -0.335,0.068 -0.138,0 -0.273,-0.017 -0.398,-0.051 -0.125,-0.034 -0.254,-0.091 -0.379,-0.169l-0.212 0.416c0.145,0.098 0.297,0.165 0.449,0.202 0.152,0.038 0.324,0.058 0.51,0.058 0.159,0 0.297,-0.019 0.419,-0.054 0.124,-0.036 0.225,-0.083 0.311,-0.149 0.08,-0.062 0.142,-0.138 0.186,-0.23 0.043,-0.091 0.064,-0.189 0.064,-0.3 0,-0.193 -0.062,-0.347 -0.183,-0.463 -0.126,-0.121 -0.31,-0.197 -0.557,-0.23l-0.331 -0.044c-0.105,-0.014 -0.178,-0.038 -0.227,-0.071 -0.046,-0.031 -0.071,-0.081 -0.071,-0.145 0,-0.071 0.03,-0.126 0.095,-0.166 0.064,-0.038 0.169,-0.057 0.318,-0.057 0.118,0 0.233,0.017 0.344,0.051 0.112,0.033 0.21,0.084 0.301,0.148z"/>
    <path class="fil1" d="M11.818 5.254l-0.881 0 0 0.422 0.398 0.024 0 0.345c-0.118,0.057 -0.256,0.087 -0.419,0.087 -0.104,0 -0.199,-0.017 -0.287,-0.05 -0.088,-0.031 -0.165,-0.078 -0.226,-0.142 -0.068,-0.061 -0.115,-0.135 -0.152,-0.223 -0.037,-0.088 -0.054,-0.189 -0.054,-0.301 0,-0.108 0.017,-0.206 0.05,-0.294 0.038,-0.091 0.085,-0.165 0.149,-0.23 0.064,-0.06 0.139,-0.108 0.23,-0.141 0.088,-0.034 0.186,-0.051 0.294,-0.051 0.118,0 0.23,0.017 0.328,0.051 0.101,0.037 0.189,0.091 0.266,0.162l0.284 -0.365c-0.115,-0.105 -0.246,-0.183 -0.388,-0.233 -0.149,-0.051 -0.304,-0.078 -0.473,-0.078 -0.193,0 -0.369,0.03 -0.521,0.095 -0.152,0.064 -0.283,0.148 -0.391,0.256 -0.105,0.109 -0.19,0.234 -0.244,0.379 -0.061,0.142 -0.088,0.294 -0.088,0.456 0,0.182 0.031,0.345 0.088,0.49 0.058,0.145 0.142,0.267 0.247,0.368 0.105,0.101 0.233,0.179 0.382,0.233 0.148,0.054 0.314,0.081 0.493,0.081 0.176,0 0.341,-0.023 0.493,-0.071 0.156,-0.047 0.297,-0.121 0.422,-0.223l0 -1.047zm1.568 -1.017c-0.176,0 -0.338,0.03 -0.483,0.095 -0.145,0.06 -0.274,0.145 -0.378,0.25 -0.109,0.104 -0.193,0.229 -0.25,0.375 -0.058,0.145 -0.088,0.297 -0.088,0.459 0,0.166 0.03,0.321 0.088,0.466 0.057,0.146 0.141,0.271 0.25,0.375 0.104,0.105 0.233,0.19 0.378,0.25 0.145,0.058 0.307,0.088 0.483,0.088 0.179,0 0.341,-0.03 0.49,-0.094 0.145,-0.061 0.274,-0.146 0.378,-0.25 0.105,-0.108 0.189,-0.233 0.247,-0.379 0.057,-0.142 0.088,-0.294 0.088,-0.456 0,-0.169 -0.031,-0.324 -0.088,-0.469 -0.058,-0.142 -0.139,-0.267 -0.247,-0.372 -0.101,-0.105 -0.229,-0.189 -0.378,-0.25 -0.149,-0.058 -0.311,-0.088 -0.49,-0.088zm0 0.453c0.108,0 0.206,0.017 0.294,0.054 0.084,0.037 0.159,0.088 0.216,0.152 0.061,0.064 0.108,0.142 0.139,0.233 0.03,0.088 0.047,0.182 0.047,0.287 0,0.098 -0.017,0.193 -0.044,0.281 -0.034,0.087 -0.078,0.165 -0.135,0.229 -0.061,0.068 -0.135,0.122 -0.223,0.159 -0.084,0.037 -0.182,0.058 -0.294,0.058 -0.108,0 -0.206,-0.021 -0.29,-0.055 -0.085,-0.04 -0.159,-0.091 -0.22,-0.155 -0.061,-0.064 -0.108,-0.142 -0.139,-0.23 -0.03,-0.091 -0.047,-0.185 -0.047,-0.287 0,-0.101 0.017,-0.196 0.047,-0.284 0.031,-0.087 0.078,-0.165 0.139,-0.229 0.057,-0.065 0.132,-0.119 0.216,-0.156 0.088,-0.037 0.186,-0.057 0.294,-0.057zm2.135 -0.406l-0.507 0 0 2.264 1.73 0 0 -0.463 -1.223 0 0 -1.801zm2.46 0l-0.835 0 0 2.264 0.825 0c0.185,0 0.358,-0.027 0.506,-0.085 0.156,-0.057 0.284,-0.135 0.392,-0.233 0.108,-0.101 0.193,-0.223 0.25,-0.358 0.058,-0.142 0.088,-0.29 0.088,-0.456 0,-0.165 -0.027,-0.321 -0.084,-0.456 -0.058,-0.138 -0.139,-0.26 -0.247,-0.358 -0.105,-0.101 -0.233,-0.179 -0.385,-0.237 -0.152,-0.054 -0.321,-0.081 -0.51,-0.081zm-0.331 1.808l0 -1.352 0.321 0c0.236,0 0.419,0.058 0.54,0.173 0.129,0.115 0.189,0.284 0.189,0.503 0,0.105 -0.02,0.199 -0.054,0.284 -0.04,0.084 -0.088,0.152 -0.155,0.213 -0.061,0.054 -0.139,0.101 -0.23,0.132 -0.088,0.03 -0.182,0.047 -0.287,0.047l-0.324 0z"/>
   </g>
   <g>
    <path class="fil1" d="M2.886 3.24c-0.121,0.215 -0.145,0.458 -0.085,0.679 0.06,0.22 0.204,0.418 0.418,0.541 0.214,0.123 0.457,0.149 0.678,0.091 0.221,-0.059 0.42,-0.201 0.545,-0.412 0.077,-0.132 0.246,-0.176 0.377,-0.099l1.051 0.608c0.132,0.075 0.177,0.243 0.102,0.375 -0.025,0.044 -0.06,0.078 -0.101,0.101l0 0.001 -2.095 1.209c-0.093,0.054 -0.206,0.047 -0.291,-0.009l-2.161 -1.248c-0.089,-0.051 -0.138,-0.143 -0.139,-0.239l-0.001 0 0 -1.122 -0.617 -0.356c-0.062,0.622 0.067,1.235 0.349,1.766 0.339,0.638 0.9,1.159 1.616,1.439 0.716,0.279 1.482,0.277 2.164,0.037 0.681,-0.239 1.28,-0.714 1.664,-1.38 0.043,-0.073 0.082,-0.148 0.118,-0.224l0.478 0.276c-0.037,0.075 -0.076,0.149 -0.118,0.222 -0.453,0.785 -1.158,1.345 -1.961,1.627 -0.803,0.281 -1.703,0.285 -2.546,-0.045 -0.844,-0.329 -1.504,-0.942 -1.903,-1.693 -0.397,-0.747 -0.535,-1.631 -0.341,-2.511 0.006,-0.031 0.016,-0.062 0.033,-0.091 0.077,-0.132 0.245,-0.177 0.377,-0.1l1.085 0.626c0.092,0.045 0.155,0.139 0.155,0.248l0 1.123 1.901 1.097 1.544 -0.891 -0.426 -0.246c-0.194,0.221 -0.446,0.372 -0.719,0.444 -0.357,0.094 -0.749,0.052 -1.094,-0.147 -0.344,-0.198 -0.576,-0.517 -0.673,-0.874 -0.097,-0.356 -0.059,-0.749 0.137,-1.095l0.479 0.272z"/>
    <polygon class="fil1" points="4.541,4.516 3.939,4.169 3.496,4.169 3.496,3.616 4.085,3.616 4.818,4.039 "/>
    <path class="fil0" d="M4.447 3.232c-0.076,-0.143 -0.19,-0.259 -0.325,-0.34 -0.135,-0.081 -0.291,-0.126 -0.454,-0.126 -0.163,0 -0.319,0.046 -0.454,0.127 -0.135,0.081 -0.248,0.197 -0.324,0.341 -0.072,0.134 -0.239,0.185 -0.373,0.113l-0.483 -0.279 -0.621 -0.359c-0.13,-0.076 -0.174,-0.243 -0.099,-0.373 0.026,-0.045 0.063,-0.08 0.105,-0.104l2.09 -1.206c0.088,-0.051 0.193,-0.048 0.275,0l0 0 2.175 1.255c0.088,0.051 0.137,0.144 0.137,0.239l0.001 0 0 1.091 0.663 0.38c0.067,-0.625 -0.059,-1.241 -0.34,-1.775 -0.337,-0.641 -0.897,-1.165 -1.613,-1.447 -0.718,-0.283 -1.485,-0.282 -2.168,-0.043 -0.684,0.239 -1.285,0.715 -1.67,1.382l0 0.001 0 0c-0.049,0.087 -0.095,0.175 -0.136,0.265l-0.48 -0.276c0.043,-0.09 0.089,-0.179 0.139,-0.265l0.001 0c0.453,-0.786 1.16,-1.347 1.964,-1.627 0.805,-0.281 1.707,-0.283 2.551,0.049 0.844,0.333 1.503,0.95 1.9,1.704 0.394,0.75 0.529,1.636 0.33,2.514 -0.005,0.032 -0.016,0.063 -0.032,0.092 -0.076,0.132 -0.245,0.178 -0.377,0.102l-1.135 -0.651c-0.089,-0.046 -0.15,-0.139 -0.15,-0.246l0 -1.092 -1.899 -1.096 -1.542 0.891 0.459 0.265c0.105,-0.127 0.23,-0.235 0.369,-0.318 0.218,-0.131 0.472,-0.204 0.737,-0.204 0.265,0 0.518,0.072 0.737,0.203 0.219,0.131 0.403,0.321 0.528,0.554l-0.486 0.259z"/>
   </g>
  </g>
 </g>
</svg>
