<?xml version="1.0" encoding="UTF-8"?>
<!DOCTYPE svg PUBLIC "-//W3C//DTD SVG 1.1//EN" "http://www.w3.org/Graphics/SVG/1.1/DTD/svg11.dtd">
<!-- Creator: CorelDRAW 2018 (64-Bit) -->
<svg xmlns="http://www.w3.org/2000/svg" xml:space="preserve" width="17px" height="12px" version="1.1" style="shape-rendering:geometricPrecision; text-rendering:geometricPrecision; image-rendering:optimizeQuality; fill-rule:evenodd; clip-rule:evenodd"
viewBox="0 0 0.244 0.171"
 xmlns:xlink="http://www.w3.org/1999/xlink">
 <defs>
  <style type="text/css">
   <![CDATA[
    .fil0 {fill:#DBA71F;fill-rule:nonzero}
   ]]>
  </style>
 </defs>
 <g id="Слой_x0020_1">
  <metadata id="CorelCorpID_0Corel-Layer"/>
  <g id="_2044039095776">
   <path class="fil0" d="M0.069 0.058l0.053 0.031 0.052 -0.031c0.005,-0.002 0.01,-0.001 0.013,0.004 0.003,0.004 0.001,0.01 -0.003,0.013l-0.057 0.033c-0.003,0.002 -0.007,0.002 -0.01,0l-0.057 -0.033c-0.005,-0.003 -0.006,-0.009 -0.004,-0.013 0.003,-0.005 0.009,-0.006 0.013,-0.004z"/>
   <path class="fil0" d="M0.029 0l0.186 0c0.016,0 0.029,0.013 0.029,0.029l0 0.114c0,0.015 -0.013,0.028 -0.029,0.028l-0.186 0c-0.016,0 -0.029,-0.013 -0.029,-0.028l0 -0.114c0,-0.016 0.013,-0.029 0.029,-0.029zm-0.01 0.143c0,0.005 0.004,0.009 0.01,0.009l0.186 0c0.005,0 0.009,-0.004 0.009,-0.009l0 -0.114c0,-0.006 -0.004,-0.01 -0.009,-0.01l-0.186 0c-0.006,0 -0.01,0.004 -0.01,0.01l0 0.114z"/>
  </g>
 </g>
</svg>
