<?xml version="1.0" encoding="UTF-8"?>
<!DOCTYPE svg PUBLIC "-//W3C//DTD SVG 1.1//EN" "http://www.w3.org/Graphics/SVG/1.1/DTD/svg11.dtd">
<!-- Creator: CorelDRAW 2018 (64-Bit) -->
<svg xmlns="http://www.w3.org/2000/svg" xml:space="preserve" width="26px" height="26px" version="1.1" style="shape-rendering:geometricPrecision; text-rendering:geometricPrecision; image-rendering:optimizeQuality; fill-rule:evenodd; clip-rule:evenodd"
viewBox="0 0 4.727 4.727"
 xmlns:xlink="http://www.w3.org/1999/xlink">
 <defs>
  <style type="text/css">
   <![CDATA[
    .fil0 {fill:#DBA71F;fill-rule:nonzero}
   ]]>
  </style>
 </defs>
 <g id="Слой_x0020_1">
  <metadata id="CorelCorpID_0Corel-Layer"/>
  <g id="_1687972603120">
   <path class="fil0" d="M0.72 4.173c-0.024,0 -0.048,0.01 -0.065,0.027 -0.017,0.017 -0.027,0.041 -0.027,0.065 0,0.025 0.01,0.048 0.027,0.066 0.017,0.017 0.041,0.027 0.065,0.027 0.024,0 0.048,-0.01 0.065,-0.027 0.018,-0.018 0.027,-0.041 0.027,-0.066 0,-0.024 -0.009,-0.048 -0.027,-0.065 -0.017,-0.017 -0.041,-0.027 -0.065,-0.027z"/>
   <path class="fil0" d="M4.27 1.662c-0.025,0 -0.049,0.01 -0.066,0.027 -0.017,0.017 -0.027,0.041 -0.027,0.065 0,0.025 0.01,0.048 0.027,0.065 0.017,0.018 0.041,0.028 0.066,0.028 0.024,0 0.048,-0.01 0.065,-0.028 0.017,-0.017 0.027,-0.04 0.027,-0.065 0,-0.024 -0.01,-0.048 -0.027,-0.065 -0.017,-0.017 -0.041,-0.027 -0.065,-0.027z"/>
   <path class="fil0" d="M3.499 2.621c-0.142,0 -0.257,-0.116 -0.257,-0.257 0,-0.142 0.115,-0.258 0.257,-0.258 0.142,0 0.257,0.116 0.257,0.258 0,0.141 -0.115,0.257 -0.257,0.257zm1.043 1.921l-0.659 0c0.018,-0.039 0.028,-0.083 0.028,-0.129 0,-0.046 -0.01,-0.09 -0.028,-0.129l0.029 0c0.173,0 0.314,-0.141 0.314,-0.314 0,-0.051 -0.012,-0.098 -0.033,-0.141 0.133,-0.036 0.231,-0.158 0.231,-0.302 0,-0.07 -0.023,-0.135 -0.062,-0.187l0 -1.17c0,-0.051 -0.041,-0.093 -0.092,-0.093 -0.051,0 -0.093,0.042 -0.093,0.093l0 1.05c-0.021,-0.004 -0.044,-0.007 -0.067,-0.007l-0.003 0c0.018,-0.039 0.028,-0.083 0.028,-0.129 0,-0.173 -0.141,-0.314 -0.314,-0.314l-0.148 0c0.157,-0.068 0.268,-0.224 0.268,-0.406 0,-0.244 -0.198,-0.442 -0.442,-0.442 -0.244,0 -0.442,0.198 -0.442,0.442 0,0.182 0.111,0.338 0.268,0.406l-0.504 0 0 -1.756c0.165,-0.036 0.295,-0.166 0.331,-0.331l0.694 0c0.036,0.165 0.166,0.295 0.331,0.331l0 0.287c0,0.051 0.042,0.093 0.093,0.093 0.051,0 0.092,-0.042 0.092,-0.093l0 -0.369c0,-0.051 -0.041,-0.092 -0.092,-0.092 -0.138,0 -0.249,-0.112 -0.249,-0.249 0,-0.051 -0.041,-0.092 -0.092,-0.092l-0.86 0c-0.051,0 -0.092,0.041 -0.092,0.092 0,0.137 -0.111,0.249 -0.249,0.249 -0.051,0 -0.092,0.041 -0.092,0.092l0 1.838 -0.18 0 0 -2.585 2.086 0 0 4.357 0 0zm-2.694 0c-0.068,0 -0.134,-0.024 -0.185,-0.069l-0.223 -0.194 0 -1.277 0.403 -0.403 0.073 0.286c0.011,0.041 0.048,0.069 0.09,0.069l1.815 0c0.071,0 0.129,0.058 0.129,0.13 0,0.071 -0.058,0.129 -0.129,0.129l-0.93 0c-0.051,0 -0.092,0.041 -0.092,0.092 0,0.051 0.041,0.093 0.092,0.093l1.219 0c0.071,0 0.129,0.058 0.129,0.129 0,0.071 -0.058,0.129 -0.129,0.129l-1.219 0c-0.051,0 -0.092,0.041 -0.092,0.092 0,0.051 0.041,0.093 0.092,0.093l1.021 0c0.072,0 0.13,0.058 0.13,0.129 0,0.071 -0.058,0.129 -0.13,0.129l-1.021 0c-0.051,0 -0.092,0.042 -0.092,0.093 0,0.051 0.041,0.092 0.092,0.092l0.707 0c0.071,0 0.129,0.058 0.129,0.129 0,0.071 -0.058,0.129 -0.129,0.129l-1.75 0 0 0zm-0.685 0l-0.886 0c-0.051,0 -0.092,-0.041 -0.092,-0.092l0 -1.505c0,-0.051 0.041,-0.092 0.092,-0.092l0.351 0 0 1.063c0,0.051 0.041,0.093 0.092,0.093 0.051,0 0.092,-0.042 0.092,-0.093l0 -1.063 0.351 0c0.051,0 0.093,0.041 0.093,0.092l0 1.505c0,0.051 -0.042,0.092 -0.093,0.092zm1.108 -3.994l0 0.342 -0.062 0.016c-0.023,0.007 -0.044,0.022 -0.056,0.043 -0.012,0.022 -0.015,0.047 -0.009,0.07 0.035,0.133 -0.043,0.269 -0.176,0.305 -0.023,0.006 -0.044,0.022 -0.056,0.043 -0.012,0.021 -0.015,0.046 -0.009,0.07l0.36 1.333 -0.185 0 -0.096 -0.374c-0.003,-0.012 -0.008,-0.023 -0.015,-0.032l-0.434 -1.619 0.738 -0.197zm0 1.544l-0.168 -0.623c0.07,-0.037 0.128,-0.091 0.168,-0.156l0 0.779zm2.429 -2.065c-0.017,-0.017 -0.041,-0.027 -0.065,-0.027l-2.272 0c-0.051,0 -0.092,0.041 -0.092,0.092l0 0.264 -0.875 0.235c-0.049,0.013 -0.079,0.064 -0.065,0.113l0.453 1.693 -0.392 0.392c-0.05,-0.073 -0.134,-0.121 -0.229,-0.121l-0.886 0c-0.153,0 -0.277,0.124 -0.277,0.277l0 1.505c0,0.153 0.124,0.277 0.277,0.277l0.886 0c0.13,0 0.239,-0.09 0.269,-0.21l0.11 0.095c0.085,0.074 0.193,0.115 0.306,0.115l2.787 0c0.051,0 0.092,-0.041 0.092,-0.092l0 -4.543c0,-0.024 -0.01,-0.048 -0.027,-0.065z"/>
  </g>
 </g>
</svg>
