<?xml version="1.0" encoding="UTF-8"?>
<!DOCTYPE svg PUBLIC "-//W3C//DTD SVG 1.1//EN" "http://www.w3.org/Graphics/SVG/1.1/DTD/svg11.dtd">
<!-- Creator: CorelDRAW 2018 (64-Bit) -->
<svg xmlns="http://www.w3.org/2000/svg" xml:space="preserve" width="340px" height="75px" version="1.1" style="shape-rendering:geometricPrecision; text-rendering:geometricPrecision; image-rendering:optimizeQuality; fill-rule:evenodd; clip-rule:evenodd"
viewBox="0 0 17158 3792"
 xmlns:xlink="http://www.w3.org/1999/xlink">
 <defs>
  <style type="text/css">
   <![CDATA[
    .str0 {stroke:#DBA71F;stroke-width:50;stroke-miterlimit:22.9256}
    .fil2 {fill:none}
    .fil3 {fill:#FEFEFE}
    .fil0 {fill:#DBA71F}
    .fil1 {fill:#DBA71F;fill-rule:nonzero}
   ]]>
  </style>
 </defs>
 <g id="Слой_x0020_1">
  <metadata id="CorelCorpID_0Corel-Layer"/>
  <g>
   <path class="fil0" d="M0 382l17158 0 0 3028 -17158 0 0 -3028zm17108 50l-17058 0 0 2927 17058 0 0 -2927z"/>
  </g>
  <g>
   <path class="fil1" d="M16184 2126c29,29 77,29 107,0 29,-30 29,-78 0,-107l-353 -353c-30,-30 -78,-30 -107,0l-354 353c-29,29 -29,77 0,107 30,29 78,29 107,0l300 -300 300 300z"/>
   <polygon class="fil2" points="17158,2099 16676,2099 16676,1692 17158,1692 "/>
  </g>
  <g>
   <polygon class="fil3 str0" points="2253,29 3061,496 3870,962 3870,1896 3870,2829 3061,3296 2253,3762 1445,3296 636,2829 636,1896 636,962 1445,496 "/>
   <path class="fil0" d="M3231 1736c-19,-62 -79,-104 -144,-102l-15 1c-41,2 -79,19 -109,48l-231 229 -5 -7c-5,-8 -11,-15 -17,-22 -29,-30 -69,-47 -110,-47l-318 0c-60,0 -119,-7 -176,-23 -143,-40 -279,-11 -393,82 -40,33 -76,71 -105,113l-4 6 -5 -4c-24,-16 -52,-25 -80,-24 -37,0 -71,15 -97,41l-205 214c-13,13 -13,34 0,47l166 163c13,13 34,13 47,0 13,-13 13,-34 0,-47l-143 -140 184 -190c12,-14 30,-21 49,-22 18,0 36,7 50,20l318 309c13,13 21,31 21,49 0,19 -7,37 -20,50l-180 185 -50 -48c-13,-13 -34,-12 -47,1 -12,14 -12,35 1,47l74 71c6,6 15,9 23,9 9,0 18,-4 24,-10l203 -208c26,-27 39,-61 39,-98 0,-16 -3,-32 -9,-48l-4 -8 80 -9c34,-4 68,-6 102,-6l484 0c8,0 15,0 22,-1l47 -4c45,-4 90,-19 128,-46 18,-13 35,-28 50,-45l326 -385c34,-39 44,-92 29,-141zm-80 98l-326 385c-11,12 -24,24 -38,33 -28,20 -61,32 -95,35l-46 4c-6,0 -11,0 -17,0l-484 0c-37,0 -73,2 -109,7l-119 13 -263 -253 4 -4c26,-40 60,-77 97,-107 98,-80 211,-104 333,-70 63,18 128,26 194,26l318 0c23,0 46,10 62,26 11,12 19,27 22,44 0,3 0,6 1,10 1,21 -5,42 -18,58l-2 2c-16,20 -40,32 -66,32l-277 0c-19,0 -34,15 -34,33 0,18 15,33 34,33l277 0c46,0 90,-20 118,-56l2 -2c21,-27 33,-60 33,-94l0 -3 259 -256c17,-17 40,-27 64,-28l15 -1c35,-1 67,21 77,55 9,27 3,56 -16,78zm-998 246l-2 1c-18,4 -29,22 -25,40 4,15 17,26 33,26 2,0 5,-1 7,-1l2 -1c18,-4 29,-22 25,-40 -4,-18 -22,-29 -40,-25zm219 -360c230,0 417,-188 417,-418 0,-229 -187,-417 -417,-417 -94,0 -183,31 -257,89 -17,14 -33,28 -48,44 -21,23 -41,49 -57,77 -36,63 -55,135 -55,207 0,230 187,418 417,418zm-304 -592c14,-23 30,-45 48,-65 13,-13 26,-25 40,-36 62,-49 137,-75 216,-75 194,0 351,157 351,350 0,194 -157,351 -351,351 -193,0 -350,-157 -350,-351 0,-60 16,-121 46,-174zm305 199c29,2 66,35 66,66 0,23 -8,40 -28,52 -15,10 -36,14 -54,14 -37,0 -58,-43 -58,-75 0,-18 -15,-33 -33,-33 -19,0 -34,15 -34,33 0,60 35,121 95,138l4 1 1 5c1,17 15,31 33,31 18,0 33,-14 33,-33l0 -5 5 -1c62,-16 103,-61 103,-127 0,-67 -67,-133 -133,-133 -26,0 -66,-18 -66,-49 0,-37 29,-66 66,-66 15,0 30,9 40,19 10,10 8,19 8,32 0,19 15,33 33,33 19,0 34,-15 34,-33 0,-33 -3,-55 -28,-79 -16,-16 -35,-28 -57,-34l-5 -2 0 -5c-1,-17 -16,-31 -33,-31 -19,0 -34,15 -34,33l0 8 -4 1c-55,21 -87,65 -87,124 0,70 68,116 133,116zm-858 1177l-2 1c-18,4 -29,22 -25,40 4,15 17,25 33,25 2,0 5,0 8,0l2 -1c18,-4 29,-22 24,-40 -4,-18 -22,-29 -40,-25zm4 -354c-56,0 -102,46 -102,102 0,56 46,102 102,102 56,0 102,-46 102,-102 0,-56 -46,-102 -102,-102zm0 137c-19,0 -35,-16 -35,-35 0,-19 16,-35 35,-35 19,0 35,16 35,35 0,19 -16,35 -35,35z"/>
  </g>
 </g>
</svg>
