<?xml version="1.0" encoding="UTF-8"?>
<!DOCTYPE svg PUBLIC "-//W3C//DTD SVG 1.1//EN" "http://www.w3.org/Graphics/SVG/1.1/DTD/svg11.dtd">
<!-- Creator: CorelDRAW 2018 (64-Bit) -->
<svg xmlns="http://www.w3.org/2000/svg" xml:space="preserve" width="340px" height="75px" version="1.1" style="shape-rendering:geometricPrecision; text-rendering:geometricPrecision; image-rendering:optimizeQuality; fill-rule:evenodd; clip-rule:evenodd"
viewBox="0 0 17161 3792"
 xmlns:xlink="http://www.w3.org/1999/xlink">
 <defs>
  <style type="text/css">
   <![CDATA[
    .str0 {stroke:#DBA71F;stroke-width:50;stroke-miterlimit:22.9256}
    .fil2 {fill:none}
    .fil3 {fill:#FEFEFE}
    .fil0 {fill:#DBA71F}
    .fil1 {fill:#DBA71F;fill-rule:nonzero}
   ]]>
  </style>
 </defs>
 <g id="Слой_x0020_1">
  <metadata id="CorelCorpID_0Corel-Layer"/>
  <g>
   <path class="fil0" d="M0 382l17161 0 0 3028 -17161 0 0 -3028zm17110 50l-17060 0 0 2928 17060 0 0 -2928z"/>
  </g>
  <g>
   <path class="fil1" d="M16186 2126c30,30 77,30 107,0 30,-29 30,-77 0,-107l-353 -353c-30,-30 -78,-30 -107,0l-353 353c-30,30 -30,78 0,107 29,30 77,30 107,0l299 -299 300 299z"/>
   <polygon class="fil2" points="17161,2099 16678,2099 16678,1693 17161,1693 "/>
  </g>
  <polygon class="fil3 str0" points="2253,29 3062,496 3870,963 3870,1896 3870,2830 3062,3296 2253,3763 1445,3296 636,2830 636,1896 636,963 1445,496 "/>
  <g>
   <path class="fil1" d="M3294 2114l0 -436 -239 -60c-10,-31 -23,-62 -39,-93l127 -211 -308 -308 -211 126c-31,-15 -62,-28 -93,-39l-60 -238 -436 0 -60 239c-30,10 -61,23 -92,39l-212 -127 -308 308 127 211c-15,31 -28,62 -39,93l-239 60 0 436 239 60c11,30 24,61 39,92l-127 212 309 308 211 -126c31,15 62,27 93,39l60 238 436 0 60 -238c30,-11 61,-24 92,-39l212 126 308 -308 -126 -212c15,-31 27,-62 39,-92l237 -60zm-235 353l-234 234 -199 -118 -16 8c-39,20 -78,37 -117,49l-18 6 -56 223 -331 0 -56 -223 -18 -6c-39,-12 -78,-29 -117,-49l-17 -8 -198 118 -234 -234 118 -198 -8 -17c-20,-39 -37,-78 -49,-117l-6 -18 -223 -56 0 -331 223 -56 6 -18c12,-39 29,-78 49,-117l8 -17 -118 -198 234 -234 198 118 17 -8c39,-20 78,-37 117,-49l18 -6 56 -223 331 0 56 224 18 5c39,13 78,30 117,49l16 9 199 -119 234 234 -119 199 9 17c20,38 36,78 49,117l5 17 224 57 0 331 -224 55 -5 18c-13,39 -30,78 -49,117l-9 17 119 198z"/>
   <polygon class="fil1" points="2186,1056 2321,1056 2321,989 2186,989 "/>
   <polygon class="fil1" points="2186,2802 2321,2802 2321,2735 2186,2735 "/>
   <polygon class="fil1" points="3093,1963 3160,1963 3160,1828 3093,1828 "/>
   <polygon class="fil1" points="1347,1963 1414,1963 1414,1828 1347,1828 "/>
   <polygon class="fil1" points="2800,1255 2847,1207 2942,1302 2895,1350 "/>
   <polygon class="fil1" points="1612,2442 1565,2489 1660,2584 1707,2537 "/>
   <polygon class="fil1" points="2894,2442 2800,2537 2847,2584 2942,2489 "/>
   <polygon class="fil1" points="1565,1302 1660,1207 1707,1255 1612,1350 "/>
   <path class="fil1" d="M2253 1224c-370,0 -671,301 -671,672 0,370 301,671 671,671 371,0 672,-301 672,-671 0,-371 -301,-672 -672,-672zm-196 101c-46,51 -84,120 -114,201l-167 0c72,-92 169,-163 281,-201zm-327 269l192 0c-22,80 -35,171 -37,268l-235 0c6,-97 34,-189 80,-268zm-80 335l235 0c2,97 15,188 38,269l-192 0c-47,-80 -75,-171 -81,-269zm126 336l167 0c29,82 68,150 114,202 -112,-39 -209,-110 -281,-202zm444 231c-82,-19 -154,-106 -204,-231l204 0 0 231zm0 -298l-227 0c-23,-81 -38,-172 -41,-269l268 0 0 269zm0 -336l-268 0c3,-97 18,-188 41,-268l227 0 0 268zm0 -336l-204 0c50,-125 122,-211 204,-231l0 231zm636 336l-234 0c-3,-97 -16,-188 -38,-268l192 0c46,80 74,171 80,268zm-125 -336l-167 0c-30,-82 -69,-150 -114,-201 112,38 209,109 281,201zm-444 -230c81,19 154,106 203,230l-203 0 0 -230zm0 298l226 0c24,80 39,171 42,268l-268 0 0 -268zm0 335l268 0c-3,97 -18,188 -42,269l-226 0 0 -269zm0 567l0 -231 203 0c-49,125 -122,212 -203,231zm163 -29c45,-52 84,-121 113,-202l167 0c-71,92 -168,163 -280,202zm134 -269c22,-81 35,-172 38,-269l234 0c-5,98 -33,189 -80,269l-192 0z"/>
  </g>
 </g>
</svg>
