<?xml version="1.0" encoding="UTF-8"?>
<!DOCTYPE svg PUBLIC "-//W3C//DTD SVG 1.1//EN" "http://www.w3.org/Graphics/SVG/1.1/DTD/svg11.dtd">
<!-- Creator: CorelDRAW 2018 (64-Bit) -->
<svg xmlns="http://www.w3.org/2000/svg" xml:space="preserve" width="340px" height="75px" version="1.1" style="shape-rendering:geometricPrecision; text-rendering:geometricPrecision; image-rendering:optimizeQuality; fill-rule:evenodd; clip-rule:evenodd"
viewBox="0 0 29.135 6.438"
 xmlns:xlink="http://www.w3.org/1999/xlink">
 <defs>
  <style type="text/css">
   <![CDATA[
    .str0 {stroke:#DBA71F;stroke-width:0.086;stroke-miterlimit:22.9256}
    .fil2 {fill:none}
    .fil3 {fill:#FEFEFE}
    .fil0 {fill:#DBA71F}
    .fil1 {fill:#DBA71F;fill-rule:nonzero}
   ]]>
  </style>
 </defs>
 <g id="Слой_x0020_1">
  <metadata id="CorelCorpID_0Corel-Layer"/>
  <g>
   <path class="fil0" d="M0 0.648l29.135 0 0 5.142 -29.135 0 0 -5.142zm29.05 0.086l-28.964 0 0 4.97 28.964 0 0 -4.97z"/>
  </g>
  <g>
   <path class="fil1" d="M27.48 2.828c0.05,-0.05 0.132,-0.05 0.182,0 0.05,0.051 0.05,0.132 0,0.182l-0.6 0.6c-0.05,0.05 -0.131,0.05 -0.181,0l-0.6 -0.6c-0.05,-0.05 -0.05,-0.131 0,-0.182 0.05,-0.05 0.132,-0.05 0.182,0l0.509 0.509 0.508 -0.509z"/>
   <polygon class="fil2" points="29.135,2.874 28.316,2.874 28.316,3.564 29.135,3.564 "/>
  </g>
  <polygon class="fil3 str0" points="3.826,0.049 5.198,0.842 6.571,1.634 6.571,3.219 6.571,4.804 5.198,5.596 3.826,6.389 2.453,5.596 1.081,4.804 1.081,3.219 1.081,1.634 2.453,0.842 "/>
  <path class="fil0" d="M3.855 1.984l-0.272 0.437 -0.331 0 0 1.009 0.803 0 0.007 0.033c0.033,0.155 0.025,0.305 -0.02,0.456l-0.027 0.087 0.619 0 0.109 0.254c0.051,0.12 0.168,0.198 0.298,0.198 0.103,0 0.197,-0.047 0.259,-0.129 0.062,-0.082 0.081,-0.185 0.053,-0.284l-0.174 -0.615 0.093 0c0.117,0 0.213,-0.095 0.213,-0.213l0 -0.583c0,-0.117 -0.096,-0.213 -0.213,-0.213l-0.147 0 -0.007 -0.034c-0.048,-0.234 -0.255,-0.403 -0.495,-0.403l-0.768 0zm0.069 0.134l0.699 0c0.157,0 0.297,0.1 0.349,0.247l0.02 0.056 -1.267 0 0.199 -0.303zm0.278 1.704c0.02,-0.114 0.019,-0.229 0,-0.343l-0.008 -0.049 0.195 0 0.188 0.441 -0.383 0 0.008 -0.049zm1.022 0.26c0.016,0.057 0.005,0.118 -0.031,0.166 -0.037,0.048 -0.092,0.075 -0.152,0.075 -0.076,0 -0.145,-0.045 -0.174,-0.115l-0.331 -0.778 0.503 0 0.185 0.652zm0.126 -0.865c0,0.043 -0.035,0.079 -0.078,0.079l-1.886 0 0 -0.74 1.886 0c0.043,0 0.078,0.035 0.078,0.078l0 0.583z"/>
  <path class="fil0" d="M2.928 2.6c-0.159,0.187 -0.159,0.464 0,0.651l0.096 -0.095c-0.107,-0.134 -0.107,-0.326 0,-0.461l-0.096 -0.095z"/>
  <path class="fil0" d="M2.823 2.385l-0.096 -0.095c-0.159,0.174 -0.246,0.398 -0.246,0.636 0,0.237 0.087,0.461 0.246,0.635l0.096 -0.095c-0.134,-0.149 -0.208,-0.339 -0.208,-0.54 0,-0.202 0.074,-0.392 0.208,-0.541z"/>
  <path class="fil0" d="M2.574 2.076l-0.096 -0.095c-0.498,0.529 -0.498,1.36 0,1.89l0.096 -0.096c-0.447,-0.477 -0.447,-1.222 0,-1.699z"/>
  <path class="fil1" d="M9.291 2.645l-1.017 0 0 0.154 0.422 0 0 0.994 0.173 0 0 -0.994 0.422 0 0 -0.154zm0.725 -0.024c-0.089,0 -0.17,0.015 -0.245,0.048 -0.072,0.031 -0.137,0.074 -0.189,0.127 -0.055,0.053 -0.096,0.116 -0.125,0.188 -0.029,0.074 -0.045,0.151 -0.045,0.235 0,0.084 0.016,0.161 0.043,0.235 0.031,0.072 0.072,0.135 0.124,0.188 0.055,0.055 0.116,0.098 0.192,0.129 0.072,0.031 0.154,0.046 0.245,0.046 0.091,0 0.173,-0.015 0.245,-0.048 0.075,-0.031 0.137,-0.073 0.192,-0.127 0.051,-0.054 0.092,-0.118 0.123,-0.191 0.028,-0.072 0.043,-0.15 0.043,-0.232 0,-0.084 -0.015,-0.163 -0.043,-0.236 -0.031,-0.074 -0.07,-0.137 -0.123,-0.191 -0.053,-0.053 -0.117,-0.096 -0.19,-0.126 -0.074,-0.03 -0.156,-0.045 -0.247,-0.045zm0 0.153c0.067,0 0.127,0.012 0.18,0.032 0.053,0.024 0.099,0.055 0.135,0.093 0.036,0.041 0.065,0.087 0.084,0.14 0.021,0.055 0.031,0.115 0.031,0.18 0,0.064 -0.01,0.124 -0.029,0.177 -0.019,0.055 -0.048,0.102 -0.084,0.142 -0.038,0.039 -0.082,0.07 -0.137,0.094 -0.052,0.021 -0.113,0.033 -0.18,0.033 -0.067,0 -0.125,-0.012 -0.18,-0.035 -0.052,-0.022 -0.098,-0.054 -0.134,-0.094 -0.036,-0.039 -0.065,-0.087 -0.086,-0.14 -0.018,-0.055 -0.029,-0.113 -0.029,-0.177 0,-0.063 0.011,-0.122 0.029,-0.176 0.019,-0.054 0.048,-0.102 0.084,-0.141 0.036,-0.039 0.081,-0.072 0.136,-0.094 0.051,-0.022 0.113,-0.034 0.18,-0.034zm0.968 -0.129l-0.173 0 0 0.386c0,0.142 0.038,0.248 0.11,0.318 0.075,0.071 0.176,0.107 0.308,0.107 0.07,0 0.134,-0.009 0.196,-0.023 0.058,-0.017 0.113,-0.039 0.161,-0.07l0 0.43 0.174 0 0 -1.148 -0.174 0 0 0.56c-0.045,0.031 -0.096,0.055 -0.151,0.074 -0.058,0.017 -0.118,0.026 -0.182,0.026 -0.092,0 -0.161,-0.026 -0.204,-0.074 -0.043,-0.051 -0.065,-0.122 -0.065,-0.214l0 -0.372zm1.237 0l-0.176 0 0 1.148 0.176 0 0 -0.509 0.617 0 0 0.509 0.175 0 0 -1.148 -0.175 0 0 0.483 -0.617 0 0 -0.483zm1.63 -0.024c-0.089,0 -0.169,0.015 -0.245,0.048 -0.072,0.031 -0.137,0.074 -0.188,0.127 -0.055,0.053 -0.096,0.116 -0.125,0.188 -0.03,0.074 -0.045,0.151 -0.045,0.235 0,0.084 0.015,0.161 0.043,0.235 0.031,0.072 0.072,0.135 0.123,0.188 0.055,0.055 0.117,0.098 0.192,0.129 0.072,0.031 0.154,0.046 0.245,0.046 0.091,0 0.173,-0.015 0.245,-0.048 0.076,-0.031 0.138,-0.073 0.192,-0.127 0.052,-0.054 0.093,-0.118 0.124,-0.191 0.027,-0.072 0.043,-0.15 0.043,-0.232 0,-0.084 -0.016,-0.163 -0.043,-0.236 -0.031,-0.074 -0.071,-0.137 -0.124,-0.191 -0.053,-0.053 -0.116,-0.096 -0.19,-0.126 -0.074,-0.03 -0.156,-0.045 -0.247,-0.045zm0 0.153c0.067,0 0.127,0.012 0.18,0.032 0.053,0.024 0.1,0.055 0.136,0.093 0.036,0.041 0.065,0.087 0.084,0.14 0.02,0.055 0.031,0.115 0.031,0.18 0,0.064 -0.011,0.124 -0.03,0.177 -0.018,0.055 -0.048,0.102 -0.084,0.142 -0.037,0.039 -0.082,0.07 -0.137,0.094 -0.051,0.021 -0.113,0.033 -0.18,0.033 -0.067,0 -0.125,-0.012 -0.18,-0.035 -0.051,-0.022 -0.097,-0.054 -0.133,-0.094 -0.036,-0.039 -0.065,-0.087 -0.086,-0.14 -0.019,-0.055 -0.029,-0.113 -0.029,-0.177 0,-0.063 0.01,-0.122 0.029,-0.176 0.019,-0.054 0.048,-0.102 0.084,-0.141 0.036,-0.039 0.081,-0.072 0.135,-0.094 0.052,-0.022 0.113,-0.034 0.18,-0.034zm1.771 0.123l0.091 -0.123c-0.055,-0.048 -0.12,-0.086 -0.192,-0.112 -0.076,-0.027 -0.153,-0.041 -0.235,-0.041 -0.098,0 -0.187,0.015 -0.264,0.046 -0.077,0.031 -0.144,0.074 -0.197,0.129 -0.055,0.053 -0.096,0.116 -0.127,0.19 -0.027,0.074 -0.043,0.153 -0.043,0.237 0,0.092 0.016,0.174 0.043,0.248 0.031,0.074 0.072,0.135 0.123,0.187 0.055,0.051 0.117,0.091 0.192,0.118 0.072,0.028 0.155,0.041 0.244,0.041 0.197,0 0.356,-0.06 0.48,-0.178l-0.098 -0.12c-0.052,0.046 -0.108,0.081 -0.17,0.106 -0.063,0.024 -0.13,0.036 -0.204,0.036 -0.063,0 -0.121,-0.01 -0.173,-0.031 -0.055,-0.02 -0.099,-0.049 -0.139,-0.087 -0.039,-0.038 -0.068,-0.084 -0.091,-0.139 -0.022,-0.055 -0.032,-0.116 -0.032,-0.185 0,-0.067 0.01,-0.128 0.032,-0.183 0.021,-0.053 0.05,-0.1 0.09,-0.139 0.037,-0.04 0.084,-0.069 0.137,-0.089 0.055,-0.021 0.115,-0.031 0.181,-0.031 0.139,0 0.256,0.039 0.352,0.12zm1.287 -0.252l-1.016 0 0 0.154 0.421 0 0 0.994 0.173 0 0 -0.994 0.422 0 0 -0.154zm0.399 0l-0.175 0 0 1.148 0.475 0c0.062,0 0.12,-0.008 0.171,-0.027 0.055,-0.017 0.1,-0.041 0.138,-0.076 0.039,-0.03 0.068,-0.072 0.09,-0.12 0.023,-0.046 0.033,-0.099 0.033,-0.157 0,-0.062 -0.01,-0.117 -0.034,-0.165 -0.021,-0.046 -0.052,-0.085 -0.093,-0.12 -0.038,-0.031 -0.086,-0.056 -0.137,-0.073 -0.055,-0.018 -0.111,-0.026 -0.175,-0.026l-0.293 0 0 -0.384zm0 0.997l0 -0.462 0.273 0c0.092,0 0.162,0.019 0.212,0.056 0.048,0.038 0.072,0.096 0.072,0.175 0,0.075 -0.024,0.132 -0.07,0.173 -0.046,0.038 -0.118,0.058 -0.213,0.058l-0.274 0z"/>
 </g>
</svg>
