<?xml version="1.0" encoding="UTF-8"?>
<!DOCTYPE svg PUBLIC "-//W3C//DTD SVG 1.1//EN" "http://www.w3.org/Graphics/SVG/1.1/DTD/svg11.dtd">
<!-- Creator: CorelDRAW 2018 (64-Bit) -->
<svg xmlns="http://www.w3.org/2000/svg" xml:space="preserve" width="340px" height="75px" version="1.1" style="shape-rendering:geometricPrecision; text-rendering:geometricPrecision; image-rendering:optimizeQuality; fill-rule:evenodd; clip-rule:evenodd"
viewBox="0 0 29.135 6.438"
 xmlns:xlink="http://www.w3.org/1999/xlink">
 <defs>
  <style type="text/css">
   <![CDATA[
    .str0 {stroke:#DBA71F;stroke-width:0.086;stroke-miterlimit:22.9256}
    .fil1 {fill:none}
    .fil3 {fill:#FEFEFE}
    .fil2 {fill:#DBA71F}
    .fil0 {fill:#DBA71F;fill-rule:nonzero}
   ]]>
  </style>
 </defs>
 <g id="Слой_x0020_1">
  <metadata id="CorelCorpID_0Corel-Layer"/>
  <g id="_1691718999904">
   <path class="fil0" d="M26.463 3.61c-0.05,0.05 -0.132,0.05 -0.182,0 -0.05,-0.05 -0.05,-0.132 0,-0.182l0.6 -0.6c0.05,-0.05 0.131,-0.05 0.181,0l0.6 0.6c0.05,0.05 0.05,0.132 0,0.182 -0.05,0.05 -0.132,0.05 -0.182,0l-0.508 -0.509 -0.509 0.509z"/>
   <polygon class="fil1" points="29.135,2.874 28.316,2.874 28.316,3.564 29.135,3.564 "/>
  </g>
  <g>
   <path class="fil2" d="M0 0.648l29.135 0 0 5.142 -29.135 0 0 -5.142zm29.05 0.086l-28.964 0 0 4.97 28.964 0 0 -4.97z"/>
  </g>
  <g>
   <polygon class="fil3 str0" points="3.826,0.049 5.198,0.842 6.571,1.634 6.571,3.219 6.571,4.804 5.198,5.596 3.826,6.389 2.453,5.596 1.081,4.804 1.081,3.219 1.081,1.634 2.453,0.842 "/>
   <g id="_1691719000608">
    <path class="fil0" d="M3.992 2.208c-0.03,0 -0.055,-0.025 -0.055,-0.056l0 -0.333c0,-0.031 0.025,-0.056 0.055,-0.056l0.056 0 -0.224 -0.296 -0.221 0.296 0.056 0c0.031,0 0.055,0.025 0.055,0.056l0 0.333c0,0.031 -0.024,0.056 -0.055,0.056 -0.031,0 -0.056,-0.025 -0.056,-0.056l0 -0.278 -0.111 0c-0.021,0 -0.04,-0.012 -0.05,-0.03 -0.009,-0.019 -0.007,-0.042 0.006,-0.059l0.331 -0.444c0.011,-0.014 0.027,-0.022 0.045,-0.022 0.017,0 0.034,0.008 0.044,0.022l0.336 0.444c0.012,0.017 0.014,0.04 0.005,0.059 -0.01,0.018 -0.029,0.03 -0.05,0.03l-0.111 0 0 0.278c0,0.031 -0.025,0.056 -0.056,0.056z"/>
    <path class="fil0" d="M2.881 2.708c-0.031,0 -0.056,-0.025 -0.056,-0.056l0 -0.389c0,-0.03 0.025,-0.055 0.056,-0.055l0.055 0 -0.223 -0.297 -0.222 0.297 0.056 0c0.031,0 0.056,0.025 0.056,0.055l0 0.389c0,0.031 -0.025,0.056 -0.056,0.056 -0.03,0 -0.055,-0.025 -0.055,-0.056l0 -0.333 -0.112 0c-0.021,0 -0.04,-0.012 -0.049,-0.031 -0.01,-0.019 -0.008,-0.041 0.005,-0.058l0.332 -0.445c0.01,-0.014 0.027,-0.022 0.044,-0.022 0.018,0 0.034,0.008 0.045,0.022l0.335 0.445c0.012,0.017 0.014,0.039 0.005,0.058 -0.009,0.019 -0.028,0.031 -0.05,0.031l-0.111 0 0 0.333c0,0.031 -0.025,0.056 -0.055,0.056z"/>
    <path class="fil0" d="M3.992 2.486c-0.03,0 -0.055,-0.025 -0.055,-0.056l0 -0.055c0,-0.031 0.025,-0.056 0.055,-0.056 0.031,0 0.056,0.025 0.056,0.056l0 0.055c0,0.031 -0.025,0.056 -0.056,0.056z"/>
    <path class="fil0" d="M3.659 2.486c-0.031,0 -0.056,-0.025 -0.056,-0.056l0 -0.055c0,-0.031 0.025,-0.056 0.056,-0.056 0.031,0 0.055,0.025 0.055,0.056l0 0.055c0,0.031 -0.024,0.056 -0.055,0.056z"/>
    <path class="fil0" d="M3.992 2.708c-0.03,0 -0.055,-0.025 -0.055,-0.056l0 -0.055c0,-0.031 0.025,-0.056 0.055,-0.056 0.031,0 0.056,0.025 0.056,0.056l0 0.055c0,0.031 -0.025,0.056 -0.056,0.056z"/>
    <path class="fil0" d="M3.659 2.708c-0.031,0 -0.056,-0.025 -0.056,-0.056l0 -0.055c0,-0.031 0.025,-0.056 0.056,-0.056 0.031,0 0.055,0.025 0.055,0.056l0 0.055c0,0.031 -0.024,0.056 -0.055,0.056z"/>
    <path class="fil0" d="M2.547 2.986c-0.03,0 -0.055,-0.025 -0.055,-0.056l0 -0.055c0,-0.031 0.025,-0.056 0.055,-0.056 0.031,0 0.056,0.025 0.056,0.056l0 0.055c0,0.031 -0.025,0.056 -0.056,0.056z"/>
    <path class="fil0" d="M2.547 3.208c-0.03,0 -0.055,-0.025 -0.055,-0.055l0 -0.056c0,-0.031 0.025,-0.055 0.055,-0.055 0.031,0 0.056,0.024 0.056,0.055l0 0.056c0,0.03 -0.025,0.055 -0.056,0.055z"/>
    <path class="fil0" d="M2.547 3.431c-0.03,0 -0.055,-0.025 -0.055,-0.056l0 -0.056c0,-0.03 0.025,-0.055 0.055,-0.055 0.031,0 0.056,0.025 0.056,0.055l0 0.056c0,0.031 -0.025,0.056 -0.056,0.056z"/>
    <path class="fil0" d="M2.881 2.986c-0.031,0 -0.056,-0.025 -0.056,-0.056l0 -0.055c0,-0.031 0.025,-0.056 0.056,-0.056 0.03,0 0.055,0.025 0.055,0.056l0 0.055c0,0.031 -0.025,0.056 -0.055,0.056z"/>
    <path class="fil0" d="M2.881 3.208c-0.031,0 -0.056,-0.025 -0.056,-0.055l0 -0.056c0,-0.031 0.025,-0.055 0.056,-0.055 0.03,0 0.055,0.024 0.055,0.055l0 0.056c0,0.03 -0.025,0.055 -0.055,0.055z"/>
    <path class="fil0" d="M2.881 3.431c-0.031,0 -0.056,-0.025 -0.056,-0.056l0 -0.056c0,-0.03 0.025,-0.055 0.056,-0.055 0.03,0 0.055,0.025 0.055,0.055l0 0.056c0,0.031 -0.025,0.056 -0.055,0.056z"/>
    <path class="fil0" d="M5.104 2.652c-0.031,0 -0.056,-0.024 -0.056,-0.055l0 -0.389c0,-0.031 0.025,-0.056 0.056,-0.056l0.055 0 -0.223 -0.296 -0.221 0.296 0.056 0c0.03,0 0.055,0.025 0.055,0.056l0 0.389c0,0.031 -0.025,0.055 -0.055,0.055 -0.031,0 -0.056,-0.024 -0.056,-0.055l0 -0.334 -0.111 0c-0.021,0 -0.041,-0.012 -0.05,-0.03 -0.009,-0.019 -0.007,-0.042 0.005,-0.059l0.332 -0.444c0.011,-0.014 0.027,-0.022 0.045,-0.022 0.017,0 0.034,0.008 0.044,0.022l0.335 0.444c0.013,0.017 0.015,0.04 0.005,0.059 -0.009,0.018 -0.028,0.03 -0.049,0.03l-0.111 0 0 0.334c0,0.031 -0.025,0.055 -0.056,0.055z"/>
    <path class="fil0" d="M4.771 2.93c-0.031,0 -0.056,-0.025 -0.056,-0.055l0 -0.056c0,-0.03 0.025,-0.055 0.056,-0.055 0.03,0 0.055,0.025 0.055,0.055l0 0.056c0,0.03 -0.025,0.055 -0.055,0.055z"/>
    <path class="fil0" d="M5.378 4.577l-0.222 -0.556c-0.009,-0.021 -0.029,-0.035 -0.052,-0.035l-0.24 0 -0.209 -0.52c-0.008,-0.022 -0.028,-0.035 -0.051,-0.035l-0.24 0 -0.209 -0.521c-0.008,-0.021 -0.029,-0.035 -0.051,-0.035l-0.556 0c-0.023,0 -0.044,0.014 -0.052,0.035l-0.208 0.521 -0.241 0c-0.022,0 -0.043,0.013 -0.051,0.035l-0.209 0.52 -0.24 0c-0.023,0 -0.043,0.014 -0.051,0.035l-0.223 0.556c-0.006,0.017 -0.004,0.037 0.006,0.052 0.01,0.015 0.027,0.024 0.046,0.024l3.001 0c0.019,0 0.036,-0.009 0.046,-0.024 0.011,-0.015 0.013,-0.035 0.006,-0.052zm-0.812 -1.035l0.178 0.444 -0.836 0 0.178 -0.444 0.48 0zm-0.74 0.35l-0.14 -0.35 0.28 0 -0.14 0.35zm-0.241 -0.906l0.481 0 0.178 0.445 -0.836 0 0.177 -0.445zm-0.5 0.556l0.48 0 0.178 0.444 -0.836 0 0.178 -0.444zm-0.678 1l0.178 -0.444 0.48 0 0.178 0.444 -0.836 0zm0.778 -0.444l0.28 0 -0.14 0.35 -0.14 -0.35zm0.223 0.444l0.177 -0.444 0.481 0 0.178 0.444 -0.836 0zm0.778 -0.444l0.28 0 -0.14 0.35 -0.14 -0.35zm0.222 0.444l0.178 -0.444 0.48 0 0.178 0.444 -0.836 0z"/>
    <path class="fil0" d="M4.771 3.153c0.03,0 0.055,-0.025 0.055,-0.056l0 -0.055c0,-0.031 -0.025,-0.056 -0.055,-0.056 -0.031,0 -0.056,0.025 -0.056,0.056l0 0.055c0,0.031 0.025,0.056 0.056,0.056z"/>
    <path class="fil0" d="M4.771 3.375c0.03,0 0.055,-0.025 0.055,-0.056l0 -0.055c0,-0.031 -0.025,-0.056 -0.055,-0.056 -0.031,0 -0.056,0.025 -0.056,0.056l0 0.055c0,0.031 0.025,0.056 0.056,0.056z"/>
    <path class="fil0" d="M5.104 2.93c-0.031,0 -0.056,-0.025 -0.056,-0.055l0 -0.056c0,-0.03 0.025,-0.055 0.056,-0.055 0.031,0 0.056,0.025 0.056,0.055l0 0.056c0,0.03 -0.025,0.055 -0.056,0.055z"/>
    <path class="fil0" d="M5.104 3.153c-0.031,0 -0.056,-0.025 -0.056,-0.056l0 -0.055c0,-0.031 0.025,-0.056 0.056,-0.056 0.031,0 0.056,0.025 0.056,0.056l0 0.055c0,0.031 -0.025,0.056 -0.056,0.056z"/>
    <path class="fil0" d="M5.104 3.375c-0.031,0 -0.056,-0.025 -0.056,-0.056l0 -0.055c0,-0.031 0.025,-0.056 0.056,-0.056 0.031,0 0.056,0.025 0.056,0.056l0 0.055c0,0.031 -0.025,0.056 -0.056,0.056z"/>
   </g>
  </g>
  <path class="fil0" d="M8.482 2.636l-0.173 0 0 0.385c0,0.142 0.037,0.249 0.109,0.319 0.076,0.07 0.177,0.106 0.309,0.106 0.07,0 0.134,-0.008 0.195,-0.022 0.059,-0.017 0.113,-0.039 0.161,-0.07l0 0.43 0.175 0 0 -1.148 -0.175 0 0 0.56c-0.044,0.031 -0.096,0.055 -0.15,0.074 -0.059,0.017 -0.119,0.025 -0.182,0.025 -0.093,0 -0.161,-0.025 -0.204,-0.073 -0.043,-0.052 -0.065,-0.122 -0.065,-0.215l0 -0.371zm1.887 0l-0.826 0 0 1.148 0.857 0 0 -0.154 -0.686 0 0 -0.367 0.576 0 0 -0.151 -0.576 0 0 -0.324 0.655 0 0 -0.152zm1.17 0.251l0.091 -0.123c-0.055,-0.048 -0.12,-0.086 -0.192,-0.111 -0.075,-0.028 -0.152,-0.041 -0.235,-0.041 -0.097,0 -0.186,0.015 -0.264,0.046 -0.077,0.031 -0.143,0.074 -0.197,0.128 -0.054,0.054 -0.096,0.117 -0.126,0.191 -0.028,0.073 -0.043,0.152 -0.043,0.236 0,0.093 0.015,0.175 0.043,0.249 0.03,0.073 0.072,0.135 0.123,0.186 0.055,0.052 0.117,0.091 0.192,0.119 0.072,0.027 0.154,0.041 0.243,0.041 0.197,0 0.357,-0.06 0.48,-0.178l-0.097 -0.12c-0.052,0.046 -0.108,0.08 -0.17,0.106 -0.064,0.024 -0.13,0.036 -0.204,0.036 -0.064,0 -0.122,-0.01 -0.173,-0.031 -0.055,-0.021 -0.1,-0.05 -0.139,-0.087 -0.039,-0.038 -0.069,-0.084 -0.091,-0.139 -0.022,-0.055 -0.032,-0.117 -0.032,-0.185 0,-0.067 0.01,-0.129 0.032,-0.184 0.021,-0.053 0.05,-0.099 0.089,-0.139 0.038,-0.039 0.084,-0.068 0.137,-0.089 0.055,-0.02 0.115,-0.03 0.182,-0.03 0.139,0 0.255,0.039 0.351,0.119zm1.287 -0.251l-1.016 0 0 0.154 0.422 0 0 0.994 0.173 0 0 -0.994 0.421 0 0 -0.154zm0.401 0l-0.176 0 0 1.148 0.176 0 0 -0.509 0.617 0 0 0.509 0.175 0 0 -1.148 -0.175 0 0 0.483 -0.617 0 0 -0.483zm1.69 0l-0.204 0 -0.478 1.148 0.187 0 0.101 -0.261 0.581 0 0.103 0.261 0.192 0 -0.482 -1.148zm-0.336 0.737l0.223 -0.561 0.021 0 0.221 0.561 -0.465 0zm1.918 0.411l0 -1.148 -0.485 0c-0.063,0 -0.121,0.008 -0.175,0.027 -0.051,0.019 -0.096,0.045 -0.133,0.079 -0.038,0.032 -0.067,0.074 -0.088,0.12 -0.02,0.046 -0.031,0.099 -0.031,0.156 0,0.082 0.023,0.154 0.067,0.214 0.045,0.06 0.108,0.105 0.191,0.13l-0.302 0.422 0.211 0 0.259 -0.379 0.311 0 0 0.379 0.175 0zm-0.473 -0.998l0.298 0 0 0.468 -0.291 0c-0.082,0 -0.147,-0.02 -0.197,-0.061 -0.05,-0.042 -0.074,-0.1 -0.074,-0.175 0,-0.077 0.024,-0.136 0.071,-0.173 0.048,-0.04 0.113,-0.059 0.193,-0.059zm1.447 -0.15l-0.175 0 0 1.148 0.929 0 0.012 0.248 0.146 0 0.017 -0.324 0 -0.077 -0.168 0 0 -0.995 -0.173 0 0 0.995 -0.588 0 0 -0.995zm1.967 0l-0.826 0 0 1.148 0.857 0 0 -0.154 -0.685 0 0 -0.367 0.575 0 0 -0.151 -0.575 0 0 -0.324 0.654 0 0 -0.152zm0.449 0l-0.176 0 0 1.148 0.176 0 0 -0.509 0.617 0 0 0.509 0.175 0 0 -1.148 -0.175 0 0 0.483 -0.617 0 0 -0.483zm1.69 0l-0.204 0 -0.478 1.148 0.187 0 0.101 -0.261 0.581 0 0.103 0.261 0.192 0 -0.482 -1.148zm-0.336 0.737l0.223 -0.561 0.021 0 0.221 0.561 -0.465 0z"/>
 </g>
</svg>
