<?xml version="1.0" encoding="UTF-8"?>
<!DOCTYPE svg PUBLIC "-//W3C//DTD SVG 1.1//EN" "http://www.w3.org/Graphics/SVG/1.1/DTD/svg11.dtd">
<!-- Creator: CorelDRAW 2018 (64-Bit) -->
<svg xmlns="http://www.w3.org/2000/svg" xml:space="preserve" width="340px" height="75px" version="1.1" style="shape-rendering:geometricPrecision; text-rendering:geometricPrecision; image-rendering:optimizeQuality; fill-rule:evenodd; clip-rule:evenodd"
viewBox="0 0 29.135 6.438"
 xmlns:xlink="http://www.w3.org/1999/xlink">
 <defs>
  <style type="text/css">
   <![CDATA[
    .str0 {stroke:#DBA71F;stroke-width:0.086;stroke-miterlimit:22.9256}
    .fil3 {fill:none}
    .fil1 {fill:#FEFEFE}
    .fil0 {fill:#DBA71F}
    .fil2 {fill:#DBA71F;fill-rule:nonzero}
   ]]>
  </style>
 </defs>
 <g id="Слой_x0020_1">
  <metadata id="CorelCorpID_0Corel-Layer"/>
  <g>
   <path class="fil0" d="M0 0.648l29.135 0 0 5.142 -29.135 0 0 -5.142zm29.05 0.086l-28.964 0 0 4.97 28.964 0 0 -4.97z"/>
  </g>
  <g>
   <polygon class="fil1 str0" points="3.826,0.049 5.198,0.842 6.571,1.634 6.571,3.219 6.571,4.804 5.198,5.596 3.826,6.389 2.453,5.596 1.081,4.804 1.081,3.219 1.081,1.634 2.453,0.842 "/>
   <g id="_1691759455008">
    <path class="fil2" d="M3.809 4.831c0.564,0.001 1.078,-0.321 1.325,-0.828 0.246,-0.507 0.182,-1.111 -0.167,-1.554l0.138 -0.138 0.052 0.052c0.045,0.046 0.11,0.064 0.172,0.048 0.062,-0.016 0.11,-0.064 0.127,-0.126 0.016,-0.062 -0.003,-0.128 -0.049,-0.172l-0.353 -0.354c-0.045,-0.045 -0.11,-0.064 -0.172,-0.048 -0.062,0.016 -0.11,0.065 -0.126,0.127 -0.017,0.061 0.002,0.127 0.048,0.171l0.052 0.053 -0.138 0.137c-0.196,-0.154 -0.428,-0.256 -0.673,-0.295l0 -0.196 0.029 0c0.114,0 0.206,-0.093 0.206,-0.207 0,-0.114 -0.092,-0.206 -0.206,-0.206l-0.53 0c-0.114,0 -0.207,0.092 -0.207,0.206 0,0.114 0.093,0.207 0.207,0.207l0.029 0 0 0.196c-0.758,0.123 -1.294,0.807 -1.232,1.572 0.062,0.765 0.7,1.355 1.468,1.355zm1.078 -2.988c0.023,-0.023 0.06,-0.023 0.083,0l0.354 0.353c0.023,0.023 0.023,0.061 0,0.084 -0.024,0.022 -0.06,0.022 -0.084,0l-0.353 -0.354c-0.023,-0.023 -0.023,-0.06 0,-0.083zm0.052 0.302l0.083 0.083 -0.131 0.131c-0.027,-0.029 -0.055,-0.056 -0.083,-0.083l0.131 -0.131zm-1.484 -0.644c0,-0.048 0.04,-0.088 0.089,-0.088l0.53 0c0.049,0 0.088,0.04 0.088,0.088 0,0.049 -0.039,0.089 -0.088,0.089l-0.53 0c-0.024,0 -0.046,-0.009 -0.063,-0.026 -0.016,-0.017 -0.026,-0.039 -0.026,-0.063zm0.236 0.207l0.236 0 0 0.182c-0.039,-0.003 -0.078,-0.006 -0.118,-0.006 -0.04,0 -0.079,0.003 -0.118,0.006l0 -0.182zm0.118 0.294c0.748,0 1.355,0.607 1.355,1.356 0,0.748 -0.607,1.355 -1.355,1.355 -0.749,0 -1.356,-0.607 -1.356,-1.355 0.001,-0.748 0.608,-1.355 1.356,-1.356z"/>
    <path class="fil2" d="M3.809 4.536c0.651,0 1.178,-0.527 1.178,-1.178 0,-0.651 -0.527,-1.179 -1.178,-1.179 -0.651,0 -1.179,0.528 -1.179,1.179 0.001,0.65 0.528,1.178 1.179,1.178zm0 -2.239c0.586,0 1.061,0.475 1.061,1.061 0,0.586 -0.475,1.061 -1.061,1.061 -0.586,0 -1.061,-0.475 -1.061,-1.061 0.001,-0.586 0.475,-1.06 1.061,-1.061z"/>
    <path class="fil2" d="M4.117 2.593c0.291,0.118 0.491,0.392 0.514,0.706l-0.41 0c-0.032,0 -0.059,0.026 -0.059,0.059 0,0.032 0.027,0.059 0.059,0.059l0.41 0c0.033,0 0.064,-0.014 0.086,-0.038 0.023,-0.024 0.035,-0.057 0.032,-0.09 -0.028,-0.358 -0.255,-0.67 -0.588,-0.806 -0.02,-0.008 -0.043,-0.005 -0.06,0.008 -0.017,0.013 -0.025,0.034 -0.022,0.055 0.003,0.021 0.018,0.039 0.038,0.047z"/>
    <path class="fil2" d="M3.809 3.594c0.13,0 0.236,-0.106 0.236,-0.236 -0.001,-0.039 -0.011,-0.077 -0.029,-0.11l-0.06 -0.775c-0.006,-0.077 -0.07,-0.136 -0.147,-0.136 -0.078,0 -0.142,0.06 -0.148,0.137l-0.059 0.773c-0.019,0.034 -0.029,0.072 -0.029,0.111 0,0.13 0.106,0.236 0.236,0.236zm0 -0.118c-0.065,0 -0.118,-0.053 -0.118,-0.118 0,-0.065 0.053,-0.118 0.118,-0.118 0.065,0 0.118,0.053 0.118,0.118 0,0.065 -0.053,0.118 -0.118,0.118zm0 -1.021c0.016,0 0.029,0.012 0.03,0.028l0.05 0.654c-0.052,-0.02 -0.109,-0.02 -0.161,0l0.051 -0.653c0,-0.016 0.014,-0.029 0.03,-0.029z"/>
   </g>
  </g>
  <g>
   <path class="fil2" d="M27.48 2.828c0.05,-0.05 0.132,-0.05 0.182,0 0.05,0.051 0.05,0.132 0,0.182l-0.6 0.6c-0.05,0.05 -0.131,0.05 -0.181,0l-0.6 -0.6c-0.05,-0.05 -0.05,-0.131 0,-0.182 0.05,-0.05 0.132,-0.05 0.182,0l0.509 0.509 0.508 -0.509z"/>
   <polygon class="fil3" points="29.135,2.874 28.316,2.874 28.316,3.564 29.135,3.564 "/>
  </g>
  <path class="fil2" d="M9.25 2.897l0.09 -0.123c-0.054,-0.048 -0.119,-0.086 -0.191,-0.112 -0.076,-0.027 -0.153,-0.041 -0.235,-0.041 -0.098,0 -0.187,0.015 -0.264,0.046 -0.077,0.031 -0.144,0.074 -0.197,0.129 -0.055,0.053 -0.096,0.116 -0.127,0.19 -0.028,0.074 -0.043,0.153 -0.043,0.237 0,0.092 0.015,0.174 0.043,0.248 0.031,0.074 0.072,0.135 0.123,0.187 0.055,0.051 0.117,0.091 0.192,0.118 0.072,0.028 0.154,0.041 0.244,0.041 0.197,0 0.356,-0.06 0.479,-0.178l-0.097 -0.12c-0.052,0.046 -0.108,0.081 -0.17,0.106 -0.063,0.024 -0.13,0.036 -0.204,0.036 -0.063,0 -0.122,-0.01 -0.173,-0.031 -0.055,-0.02 -0.099,-0.049 -0.139,-0.087 -0.039,-0.038 -0.068,-0.084 -0.091,-0.139 -0.022,-0.055 -0.032,-0.116 -0.032,-0.185 0,-0.067 0.01,-0.128 0.032,-0.183 0.021,-0.053 0.05,-0.1 0.09,-0.139 0.037,-0.04 0.083,-0.069 0.137,-0.089 0.054,-0.021 0.114,-0.031 0.181,-0.031 0.139,0 0.256,0.039 0.352,0.12zm0.502 -0.252l-0.172 0 0 1.148 0.172 0 0 -0.534 0.181 0 0.407 0.534 0.222 0 -0.49 -0.617 0.448 -0.531 -0.216 0 -0.374 0.458 -0.178 0.013 0 -0.471zm1.517 -0.024c-0.09,0 -0.17,0.015 -0.246,0.048 -0.072,0.031 -0.137,0.074 -0.188,0.127 -0.055,0.053 -0.096,0.116 -0.125,0.188 -0.029,0.074 -0.045,0.151 -0.045,0.235 0,0.084 0.016,0.161 0.043,0.235 0.031,0.072 0.072,0.135 0.124,0.188 0.054,0.055 0.116,0.098 0.191,0.129 0.072,0.031 0.155,0.046 0.246,0.046 0.09,0 0.173,-0.015 0.245,-0.048 0.075,-0.031 0.137,-0.073 0.192,-0.127 0.051,-0.054 0.092,-0.118 0.123,-0.191 0.027,-0.072 0.043,-0.15 0.043,-0.232 0,-0.084 -0.016,-0.163 -0.043,-0.236 -0.031,-0.074 -0.07,-0.137 -0.123,-0.191 -0.054,-0.053 -0.117,-0.096 -0.191,-0.126 -0.073,-0.03 -0.156,-0.045 -0.246,-0.045zm0 0.153c0.066,0 0.126,0.012 0.18,0.032 0.053,0.024 0.099,0.055 0.135,0.093 0.036,0.041 0.065,0.087 0.084,0.14 0.02,0.055 0.031,0.115 0.031,0.18 0,0.064 -0.011,0.124 -0.029,0.177 -0.019,0.055 -0.048,0.102 -0.084,0.142 -0.038,0.039 -0.083,0.07 -0.137,0.094 -0.052,0.021 -0.114,0.033 -0.18,0.033 -0.067,0 -0.126,-0.012 -0.18,-0.035 -0.052,-0.022 -0.098,-0.054 -0.134,-0.094 -0.036,-0.039 -0.065,-0.087 -0.086,-0.14 -0.019,-0.055 -0.029,-0.113 -0.029,-0.177 0,-0.063 0.01,-0.122 0.029,-0.176 0.019,-0.054 0.048,-0.102 0.084,-0.141 0.036,-0.039 0.081,-0.072 0.136,-0.094 0.051,-0.022 0.113,-0.034 0.18,-0.034zm1.326 -0.129l-0.488 0 0 1.148 0.176 0 0 -0.348 0.293 0c0.064,0 0.122,-0.008 0.177,-0.027 0.056,-0.019 0.104,-0.045 0.145,-0.081 0.042,-0.034 0.074,-0.075 0.098,-0.126 0.022,-0.048 0.034,-0.105 0.034,-0.168 0,-0.06 -0.01,-0.114 -0.032,-0.163 -0.022,-0.05 -0.052,-0.091 -0.091,-0.125 -0.038,-0.036 -0.084,-0.062 -0.137,-0.083 -0.053,-0.017 -0.112,-0.027 -0.175,-0.027zm-0.312 0.65l0 -0.499 0.302 0c0.087,0 0.154,0.022 0.2,0.065 0.047,0.044 0.071,0.106 0.071,0.183 0,0.079 -0.026,0.141 -0.076,0.184 -0.051,0.044 -0.12,0.067 -0.207,0.067l-0.29 0zm1.532 -0.674c-0.089,0 -0.169,0.015 -0.245,0.048 -0.072,0.031 -0.137,0.074 -0.188,0.127 -0.055,0.053 -0.096,0.116 -0.125,0.188 -0.03,0.074 -0.045,0.151 -0.045,0.235 0,0.084 0.015,0.161 0.043,0.235 0.031,0.072 0.072,0.135 0.123,0.188 0.055,0.055 0.117,0.098 0.192,0.129 0.072,0.031 0.155,0.046 0.245,0.046 0.091,0 0.173,-0.015 0.245,-0.048 0.076,-0.031 0.138,-0.073 0.192,-0.127 0.052,-0.054 0.093,-0.118 0.124,-0.191 0.027,-0.072 0.043,-0.15 0.043,-0.232 0,-0.084 -0.016,-0.163 -0.043,-0.236 -0.031,-0.074 -0.07,-0.137 -0.124,-0.191 -0.053,-0.053 -0.116,-0.096 -0.19,-0.126 -0.074,-0.03 -0.156,-0.045 -0.247,-0.045zm0 0.153c0.067,0 0.127,0.012 0.18,0.032 0.053,0.024 0.1,0.055 0.136,0.093 0.036,0.041 0.065,0.087 0.084,0.14 0.02,0.055 0.031,0.115 0.031,0.18 0,0.064 -0.011,0.124 -0.03,0.177 -0.018,0.055 -0.048,0.102 -0.084,0.142 -0.037,0.039 -0.082,0.07 -0.137,0.094 -0.051,0.021 -0.113,0.033 -0.18,0.033 -0.067,0 -0.125,-0.012 -0.18,-0.035 -0.051,-0.022 -0.097,-0.054 -0.133,-0.094 -0.036,-0.039 -0.065,-0.087 -0.086,-0.14 -0.019,-0.055 -0.029,-0.113 -0.029,-0.177 0,-0.063 0.01,-0.122 0.029,-0.176 0.019,-0.054 0.048,-0.102 0.084,-0.141 0.036,-0.039 0.081,-0.072 0.135,-0.094 0.052,-0.022 0.113,-0.034 0.18,-0.034zm1.771 0.123l0.091 -0.123c-0.055,-0.048 -0.12,-0.086 -0.192,-0.112 -0.076,-0.027 -0.153,-0.041 -0.235,-0.041 -0.098,0 -0.187,0.015 -0.264,0.046 -0.077,0.031 -0.144,0.074 -0.197,0.129 -0.055,0.053 -0.096,0.116 -0.127,0.19 -0.027,0.074 -0.043,0.153 -0.043,0.237 0,0.092 0.016,0.174 0.043,0.248 0.031,0.074 0.072,0.135 0.123,0.187 0.055,0.051 0.117,0.091 0.192,0.118 0.072,0.028 0.155,0.041 0.244,0.041 0.197,0 0.356,-0.06 0.48,-0.178l-0.098 -0.12c-0.052,0.046 -0.108,0.081 -0.17,0.106 -0.063,0.024 -0.13,0.036 -0.204,0.036 -0.063,0 -0.121,-0.01 -0.173,-0.031 -0.055,-0.02 -0.099,-0.049 -0.139,-0.087 -0.039,-0.038 -0.068,-0.084 -0.09,-0.139 -0.023,-0.055 -0.033,-0.116 -0.033,-0.185 0,-0.067 0.01,-0.128 0.033,-0.183 0.02,-0.053 0.049,-0.1 0.089,-0.139 0.037,-0.04 0.084,-0.069 0.137,-0.089 0.055,-0.021 0.115,-0.031 0.181,-0.031 0.139,0 0.256,0.039 0.352,0.12zm1.287 -0.252l-1.016 0 0 0.154 0.421 0 0 0.994 0.173 0 0 -0.994 0.422 0 0 -0.154zm0.399 0l-0.175 0 0 1.148 0.475 0c0.062,0 0.12,-0.008 0.172,-0.027 0.054,-0.017 0.099,-0.041 0.137,-0.076 0.039,-0.03 0.068,-0.072 0.09,-0.12 0.023,-0.046 0.033,-0.099 0.033,-0.157 0,-0.062 -0.01,-0.117 -0.034,-0.165 -0.021,-0.046 -0.052,-0.085 -0.093,-0.12 -0.038,-0.031 -0.086,-0.056 -0.137,-0.073 -0.055,-0.018 -0.111,-0.026 -0.175,-0.026l-0.293 0 0 -0.384zm0 0.997l0 -0.462 0.273 0c0.092,0 0.163,0.019 0.212,0.056 0.048,0.038 0.072,0.096 0.072,0.175 0,0.075 -0.024,0.132 -0.07,0.173 -0.046,0.038 -0.118,0.058 -0.213,0.058l-0.274 0z"/>
 </g>
</svg>
