<?xml version="1.0" encoding="UTF-8"?>
<!DOCTYPE svg PUBLIC "-//W3C//DTD SVG 1.1//EN" "http://www.w3.org/Graphics/SVG/1.1/DTD/svg11.dtd">
<!-- Creator: CorelDRAW 2018 (64-Bit) -->
<svg xmlns="http://www.w3.org/2000/svg" xml:space="preserve" width="340px" height="75px" version="1.1" style="shape-rendering:geometricPrecision; text-rendering:geometricPrecision; image-rendering:optimizeQuality; fill-rule:evenodd; clip-rule:evenodd"
viewBox="0 0 17161 3792"
 xmlns:xlink="http://www.w3.org/1999/xlink">
 <defs>
  <style type="text/css">
   <![CDATA[
    .str0 {stroke:#DBA71F;stroke-width:50;stroke-miterlimit:22.9256}
    .fil2 {fill:none}
    .fil3 {fill:#FEFEFE}
    .fil0 {fill:#DBA71F}
    .fil4 {fill:#DBA71F;fill-rule:nonzero}
    .fil1 {fill:#DBA71F;fill-rule:nonzero}
   ]]>
  </style>
 </defs>
 <g id="Слой_x0020_1">
  <metadata id="CorelCorpID_0Corel-Layer"/>
  <g>
   <path class="fil0" d="M0 382l17161 0 0 3028 -17161 0 0 -3028zm17110 50l-17060 0 0 2928 17060 0 0 -2928z"/>
  </g>
  <g>
   <path class="fil1" d="M16186 1666c30,-30 77,-30 107,0 30,30 30,77 0,107l-353 353c-30,30 -78,30 -107,0l-353 -353c-30,-30 -30,-77 0,-107 29,-30 77,-30 107,0l299 300 300 -300z"/>
   <polygon class="fil2" points="17161,1693 16678,1693 16678,2099 17161,2099 "/>
  </g>
  <g>
   <polygon class="fil3 str0" points="2253,29 3062,496 3870,963 3870,1896 3870,2830 3062,3296 2253,3763 1445,3296 636,2830 636,1896 636,963 1445,496 "/>
   <g id="_1852084491520">
    <path class="fil4" d="M2620 1369l5 7c14,20 43,61 55,61l554 0c8,0 17,0 26,1 8,1 17,2 25,4 9,2 17,4 25,6 8,3 16,6 24,9 8,3 16,7 23,11 7,4 15,8 21,13 7,4 14,9 20,15 6,5 12,10 18,16l3 3c5,6 11,11 16,17 5,7 9,13 13,19 5,6 9,13 13,21 4,7 7,14 11,22 3,8 6,16 9,24 2,8 4,17 6,25 2,9 3,18 4,26 1,9 1,18 1,26l0 402c0,8 0,17 -1,26 -1,9 -2,17 -4,26 -2,8 -4,17 -6,25 -3,8 -6,16 -9,24 -3,8 -7,15 -11,22 -4,8 -8,15 -13,21 -4,6 -8,13 -13,19 -5,6 -11,12 -16,17l-3 3c-6,6 -12,11 -18,17 -6,5 -13,10 -20,14 -6,5 -13,9 -21,13 -7,4 -14,8 -23,11 -8,3 -16,6 -24,9 -8,2 -16,5 -25,6 -8,2 -17,3 -25,4 -9,1 -18,2 -26,2l-554 0c-12,0 -41,40 -55,60l-5 7 -41 -29 5 -7c19,-27 58,-82 96,-82l554 0c7,0 14,0 21,-1 7,-1 14,-2 20,-3 7,-1 14,-3 20,-5 7,-2 14,-5 20,-7 6,-3 12,-6 18,-9 6,-3 11,-7 17,-10 6,-4 11,-8 16,-12 5,-5 10,-9 15,-14l2 -2c5,-5 9,-9 12,-14 4,-4 8,-9 11,-15 4,-6 8,-11 11,-17 3,-6 6,-12 9,-18 2,-6 5,-13 7,-19 2,-7 3,-14 5,-20 1,-7 2,-14 3,-21 1,-7 1,-13 1,-21l0 -402c0,-7 0,-14 -1,-21 -1,-7 -2,-14 -3,-20 -2,-7 -3,-14 -5,-21 -2,-6 -5,-13 -7,-19 -3,-6 -6,-12 -9,-18 -3,-6 -7,-11 -11,-17 -3,-6 -7,-10 -11,-15 -3,-5 -7,-9 -12,-14l-2 -2c-5,-5 -10,-9 -15,-14 -5,-4 -10,-8 -16,-11 -5,-4 -11,-8 -17,-11 -6,-3 -12,-6 -18,-9 -6,-2 -13,-5 -20,-7 -6,-2 -13,-3 -20,-5 -6,-1 -13,-2 -20,-3 -7,-1 -14,-1 -21,-1l-554 0c-38,0 -77,-55 -96,-82l-5 -7 41 -29z"/>
    <path class="fil1" d="M2680 1552l554 0c10,0 19,1 28,3l1 0c9,2 18,5 27,8l0 0c8,4 16,8 24,13 7,5 15,11 21,18l0 0c7,7 13,14 18,21 5,8 9,16 13,24 3,9 6,18 8,28 2,9 3,18 3,28l0 402c0,10 -1,19 -3,29 -2,9 -5,18 -8,27 -4,8 -8,17 -13,24 -5,8 -11,15 -18,21l0 0c-6,7 -14,13 -21,18 -8,5 -16,9 -24,13l0 0c-9,4 -18,7 -27,8l-1 0c-9,2 -18,3 -28,3l-554 0c-69,0 -111,57 -153,115 -51,70 -103,141 -204,141l-1166 0c-39,0 -75,-16 -101,-42l0 0c-26,-26 -42,-62 -42,-101l0 -914c0,-39 16,-75 42,-101l0 0c26,-26 62,-42 101,-42l1166 0c101,0 153,71 204,141 42,58 84,115 153,115zm240 51l-240 0c-94,0 -144,-68 -194,-136 -43,-60 -88,-120 -163,-120l-1166 0c-25,0 -48,10 -65,27 -17,17 -27,40 -27,65l0 914c0,25 10,49 27,65 17,17 40,27 65,27l1166 0c75,0 120,-60 163,-120 50,-68 100,-135 194,-135l554 0c7,0 13,-1 18,-2 7,-1 12,-3 18,-6 5,-2 11,-5 16,-8 5,-4 9,-7 13,-11 5,-5 8,-9 12,-14 3,-5 6,-11 8,-16 3,-6 5,-11 6,-17l0 0c1,-6 2,-12 2,-19l0 -402c0,-7 -1,-13 -2,-18l0 -1c-1,-5 -3,-11 -6,-17 -2,-5 -5,-11 -8,-16 -4,-5 -7,-9 -12,-13 -4,-5 -8,-8 -13,-12 -5,-3 -11,-6 -16,-8 -6,-3 -11,-5 -18,-6 -5,-1 -11,-1 -18,-1l-314 0z"/>
    <path class="fil1" d="M1675 1672l-264 0 -19 222 42 16c12,-9 27,-17 44,-21 16,-6 37,-8 61,-8 31,0 56,8 73,25 18,17 26,40 26,69 0,15 -3,28 -8,40 -6,12 -14,22 -23,30 -10,8 -22,14 -35,19 -14,4 -28,6 -44,6 -24,0 -47,-4 -67,-13 -21,-8 -41,-22 -60,-42l-39 48c22,22 46,39 72,51 26,10 56,16 89,16 28,0 52,-4 75,-12 22,-8 41,-19 56,-34 14,-13 26,-30 34,-49 9,-19 13,-39 13,-61 0,-24 -4,-46 -12,-65 -8,-18 -19,-34 -32,-47 -14,-13 -31,-23 -49,-30 -19,-6 -40,-10 -62,-10 -19,0 -35,2 -49,5 -14,4 -27,9 -40,15l9 -111 209 0 0 -59zm274 -10c-22,0 -43,3 -61,10 -19,5 -34,14 -47,25 -13,11 -23,24 -30,38 -7,15 -10,31 -10,49 0,16 3,32 10,47 7,16 17,28 31,36 -22,12 -39,28 -51,50 -13,21 -19,44 -19,70 0,21 4,40 11,57 7,17 18,32 33,46 15,12 33,22 55,29 21,7 47,11 76,11 30,0 56,-4 79,-12 22,-7 41,-18 55,-30 16,-13 27,-27 34,-44 8,-17 12,-34 12,-52 0,-26 -7,-48 -20,-67 -13,-18 -31,-33 -55,-43 16,-11 28,-25 36,-41 9,-18 13,-35 13,-54 0,-18 -3,-35 -11,-51 -6,-15 -16,-28 -29,-39 -12,-11 -29,-20 -47,-25 -19,-7 -41,-10 -65,-10l0 0zm-22 243l46 10c32,6 54,15 68,27 13,13 20,29 20,49 0,24 -9,44 -27,58 -20,16 -47,23 -85,23 -36,0 -64,-8 -84,-24 -20,-16 -29,-37 -29,-64 0,-19 4,-36 13,-52 10,-15 24,-27 44,-34 4,1 10,3 15,4l19 3zm44 -49l-36 -7c-23,-5 -41,-13 -54,-22 -11,-11 -18,-24 -18,-42 0,-19 7,-34 22,-48 14,-12 35,-18 64,-18 32,0 56,6 69,20 14,14 21,30 21,49 0,17 -3,32 -10,44 -7,13 -17,23 -32,30 -8,-2 -16,-4 -26,-6l0 0zm534 -184l-264 0 -20 222 43 16c12,-9 27,-17 44,-21 16,-6 37,-8 61,-8 31,0 56,8 73,25 18,17 26,40 26,69 0,15 -3,28 -8,40 -6,12 -14,22 -23,30 -10,8 -22,14 -35,19 -14,4 -28,6 -44,6 -24,0 -47,-4 -67,-13 -21,-8 -41,-22 -60,-42l-39 48c22,22 46,39 72,51 26,10 56,16 89,16 28,0 52,-4 75,-12 22,-8 41,-19 55,-34 15,-13 27,-30 35,-49 9,-19 13,-39 13,-61 0,-24 -4,-46 -12,-65 -8,-18 -19,-34 -32,-47 -14,-13 -31,-23 -49,-30 -19,-6 -40,-10 -62,-10 -19,0 -35,2 -49,5 -15,4 -27,9 -40,15l9 -111 209 0 0 -59z"/>
    <path class="fil1" d="M2047 2386l-847 0c-18,0 -35,-8 -47,-20 -12,-12 -19,-28 -19,-47l0 -846c0,-18 7,-35 19,-47 13,-12 29,-19 47,-19l847 0 0 50 -847 0c-4,0 -8,2 -11,5 -3,3 -5,7 -5,11l0 846c0,5 2,9 5,11 3,3 7,5 11,5l847 0 0 51z"/>
   </g>
  </g>
 </g>
</svg>
