<?xml version="1.0" encoding="UTF-8"?>
<!DOCTYPE svg PUBLIC "-//W3C//DTD SVG 1.1//EN" "http://www.w3.org/Graphics/SVG/1.1/DTD/svg11.dtd">
<!-- Creator: CorelDRAW 2018 (64-Bit) -->
<svg xmlns="http://www.w3.org/2000/svg" xml:space="preserve" width="340px" height="75px" version="1.1" style="shape-rendering:geometricPrecision; text-rendering:geometricPrecision; image-rendering:optimizeQuality; fill-rule:evenodd; clip-rule:evenodd"
viewBox="0 0 29.135 6.438"
 xmlns:xlink="http://www.w3.org/1999/xlink">
 <defs>
  <style type="text/css">
   <![CDATA[
    .str0 {stroke:#DBA71F;stroke-width:0.086;stroke-miterlimit:22.9256}
    .fil2 {fill:none}
    .fil3 {fill:#FEFEFE}
    .fil0 {fill:#DBA71F}
    .fil1 {fill:#DBA71F;fill-rule:nonzero}
   ]]>
  </style>
 </defs>
 <g id="Слой_x0020_1">
  <metadata id="CorelCorpID_0Corel-Layer"/>
  <g>
   <path class="fil0" d="M0 0.648l29.135 0 0 5.142 -29.135 0 0 -5.142zm29.05 0.086l-28.964 0 0 4.97 28.964 0 0 -4.97z"/>
  </g>
  <g>
   <path class="fil1" d="M27.48 2.828c0.05,-0.05 0.132,-0.05 0.182,0 0.05,0.051 0.05,0.132 0,0.182l-0.6 0.6c-0.05,0.05 -0.131,0.05 -0.181,0l-0.6 -0.6c-0.05,-0.05 -0.05,-0.131 0,-0.182 0.05,-0.05 0.132,-0.05 0.182,0l0.509 0.509 0.508 -0.509z"/>
   <polygon class="fil2" points="29.135,2.874 28.316,2.874 28.316,3.564 29.135,3.564 "/>
  </g>
  <g>
   <polygon class="fil3 str0" points="3.826,0.049 5.198,0.842 6.571,1.634 6.571,3.219 6.571,4.804 5.198,5.596 3.826,6.389 2.453,5.596 1.081,4.804 1.081,3.219 1.081,1.634 2.453,0.842 "/>
   <path class="fil0" d="M5.487 2.948c-0.033,-0.106 -0.134,-0.177 -0.245,-0.173l-0.025 0.001c-0.07,0.003 -0.135,0.032 -0.185,0.081l-0.393 0.389 -0.008 -0.011c-0.009,-0.014 -0.019,-0.026 -0.03,-0.038 -0.048,-0.05 -0.116,-0.079 -0.186,-0.079l-0.54 0c-0.101,0 -0.202,-0.013 -0.299,-0.04 -0.242,-0.067 -0.473,-0.018 -0.668,0.14 -0.067,0.055 -0.128,0.121 -0.178,0.192l-0.006 0.009 -0.009 -0.006c-0.04,-0.028 -0.088,-0.042 -0.136,-0.041 -0.063,0.001 -0.12,0.026 -0.164,0.071l-0.349 0.363c-0.022,0.022 -0.021,0.057 0.001,0.079l0.281 0.278c0.022,0.022 0.058,0.021 0.08,-0.001 0.022,-0.022 0.022,-0.058 0,-0.08l-0.242 -0.238 0.311 -0.323c0.022,-0.023 0.052,-0.035 0.083,-0.036 0.032,-0.001 0.062,0.011 0.085,0.033l0.541 0.525c0.023,0.022 0.035,0.052 0.036,0.084 0,0.031 -0.012,0.062 -0.034,0.084l-0.305 0.314 -0.085 -0.081c-0.023,-0.022 -0.059,-0.021 -0.08,0.002 -0.022,0.023 -0.021,0.059 0.002,0.08l0.125 0.119c0.011,0.01 0.024,0.016 0.039,0.016 0.015,0 0.03,-0.006 0.041,-0.017l0.344 -0.354c0.044,-0.044 0.067,-0.103 0.066,-0.165 0,-0.028 -0.006,-0.055 -0.016,-0.081l-0.005 -0.014 0.136 -0.016c0.057,-0.007 0.114,-0.01 0.172,-0.01l0.823 0c0.012,0 0.024,0 0.037,-0.001l0.078 -0.007c0.078,-0.007 0.154,-0.034 0.218,-0.078 0.031,-0.022 0.06,-0.048 0.085,-0.077l0.554 -0.653c0.057,-0.067 0.075,-0.156 0.05,-0.24zm-0.136 0.167l-0.555 0.652c-0.018,0.022 -0.039,0.041 -0.063,0.058 -0.048,0.033 -0.104,0.053 -0.162,0.058l-0.079 0.007c-0.009,0 -0.018,0.001 -0.027,0.001l-0.823 0c-0.062,0 -0.124,0.003 -0.185,0.01l-0.202 0.024 -0.446 -0.43 0.006 -0.008c0.045,-0.067 0.102,-0.13 0.165,-0.181 0.167,-0.136 0.358,-0.176 0.565,-0.118 0.107,0.029 0.218,0.043 0.33,0.043l0.54 0c0.039,0 0.077,0.017 0.104,0.045 0.02,0.02 0.033,0.045 0.038,0.074 0,0.005 0.001,0.01 0.002,0.018 0.002,0.035 -0.009,0.07 -0.031,0.098l-0.002 0.003c-0.028,0.034 -0.069,0.054 -0.113,0.054l-0.471 0c-0.031,0 -0.056,0.025 -0.056,0.056 0,0.032 0.025,0.057 0.056,0.057l0.471 0c0.079,0 0.152,-0.035 0.201,-0.096l0.002 -0.003c0.037,-0.046 0.057,-0.102 0.057,-0.16l0 -0.005 0.439 -0.435c0.029,-0.029 0.068,-0.046 0.11,-0.048l0.025 -0.001c0.059,-0.002 0.114,0.036 0.131,0.093 0.015,0.047 0.005,0.097 -0.027,0.134zm-1.695 0.417l-0.003 0.001c-0.031,0.007 -0.05,0.038 -0.043,0.068 0.006,0.026 0.029,0.044 0.056,0.044 0.004,0 0.008,0 0.013,-0.001l0.003 -0.001c0.03,-0.007 0.049,-0.038 0.042,-0.068 -0.007,-0.031 -0.038,-0.05 -0.068,-0.043zm0.372 -0.612c0.391,0 0.708,-0.318 0.708,-0.708 0,-0.391 -0.317,-0.708 -0.708,-0.708 -0.16,0 -0.311,0.052 -0.437,0.15 -0.028,0.023 -0.055,0.048 -0.08,0.074 -0.038,0.04 -0.07,0.084 -0.097,0.132 -0.062,0.107 -0.094,0.228 -0.094,0.352 0,0.39 0.318,0.708 0.708,0.708zm-0.516 -1.004c0.023,-0.04 0.05,-0.077 0.081,-0.11 0.021,-0.023 0.044,-0.044 0.068,-0.063 0.106,-0.082 0.233,-0.126 0.367,-0.126 0.328,0 0.595,0.267 0.595,0.595 0,0.328 -0.267,0.595 -0.595,0.595 -0.328,0 -0.595,-0.267 -0.595,-0.595 0,-0.104 0.027,-0.206 0.079,-0.296zm0.518 0.338c0.049,0.003 0.112,0.058 0.112,0.112 0,0.039 -0.014,0.068 -0.048,0.088 -0.026,0.016 -0.062,0.024 -0.093,0.024 -0.062,0 -0.097,-0.073 -0.097,-0.127 0,-0.031 -0.025,-0.057 -0.057,-0.057 -0.031,0 -0.056,0.026 -0.056,0.057 0,0.101 0.059,0.204 0.16,0.233l0.008 0.002 0 0.008c0.002,0.03 0.027,0.053 0.056,0.053 0.031,0 0.056,-0.024 0.057,-0.055l0 -0.009 0.009 -0.002c0.104,-0.027 0.174,-0.103 0.174,-0.215 0,-0.114 -0.114,-0.226 -0.225,-0.226 -0.045,0 -0.113,-0.03 -0.113,-0.084 0,-0.063 0.049,-0.112 0.113,-0.112 0.025,0 0.05,0.016 0.068,0.033 0.016,0.016 0.013,0.032 0.013,0.054 0,0.031 0.025,0.057 0.056,0.057 0.031,0 0.057,-0.026 0.057,-0.057 0,-0.055 -0.005,-0.093 -0.046,-0.134 -0.027,-0.027 -0.061,-0.048 -0.098,-0.059l-0.008 -0.002 0 -0.008c-0.002,-0.03 -0.027,-0.053 -0.057,-0.053 -0.031,0 -0.056,0.025 -0.056,0.056l0 0.013 -0.008 0.002c-0.093,0.035 -0.147,0.11 -0.147,0.21 0,0.118 0.115,0.197 0.226,0.198zm-1.457 1.998l-0.003 0.001c-0.031,0.007 -0.05,0.037 -0.043,0.068 0.006,0.025 0.029,0.044 0.055,0.044 0.005,0 0.009,-0.001 0.013,-0.002l0.004 -0.001c0.03,-0.007 0.049,-0.038 0.042,-0.068 -0.007,-0.03 -0.038,-0.049 -0.068,-0.042zm0.006 -0.601c-0.095,0 -0.173,0.078 -0.173,0.173 0,0.095 0.078,0.173 0.173,0.173 0.095,0 0.173,-0.078 0.173,-0.173 0,-0.096 -0.078,-0.173 -0.173,-0.173zm0 0.232c-0.033,0 -0.059,-0.026 -0.059,-0.059 0,-0.033 0.026,-0.06 0.059,-0.06 0.033,0 0.06,0.027 0.06,0.06 0,0.033 -0.027,0.059 -0.06,0.059z"/>
  </g>
  <path class="fil1" d="M9.375 1.623l-0.802 0 0 0.124c0,0.067 -0.002,0.134 -0.005,0.199 -0.004,0.067 -0.009,0.13 -0.016,0.192 -0.008,0.061 -0.017,0.12 -0.029,0.174 -0.012,0.055 -0.024,0.105 -0.039,0.148 -0.019,0.053 -0.045,0.094 -0.076,0.12 -0.031,0.027 -0.06,0.041 -0.087,0.041l-0.047 0 0 0.077 0.012 0.322 0.148 0 0.015 -0.248 0.919 0 0.012 0.248 0.146 0 0.017 -0.324 0 -0.077 -0.168 0 0 -0.996zm-0.633 0.151l0.46 0 0 0.845 -0.617 0c0.049,-0.065 0.089,-0.171 0.114,-0.319 0.028,-0.147 0.042,-0.322 0.043,-0.526zm1.851 -0.151l-0.826 0 0 1.149 0.857 0 0 -0.155 -0.685 0 0 -0.366 0.575 0 0 -0.151 -0.575 0 0 -0.324 0.654 0 0 -0.153zm0.449 0l-0.176 0 0 1.149 0.176 0 0 -0.509 0.617 0 0 0.509 0.175 0 0 -1.149 -0.175 0 0 0.484 -0.617 0 0 -0.484zm1.253 0l-0.175 0 0 1.149 0.475 0c0.062,0 0.12,-0.009 0.171,-0.028 0.055,-0.017 0.1,-0.041 0.138,-0.075 0.039,-0.031 0.068,-0.072 0.09,-0.12 0.023,-0.046 0.033,-0.099 0.033,-0.158 0,-0.061 -0.01,-0.116 -0.034,-0.164 -0.021,-0.047 -0.052,-0.086 -0.093,-0.12 -0.038,-0.031 -0.086,-0.057 -0.137,-0.074 -0.055,-0.017 -0.111,-0.026 -0.175,-0.026l-0.293 0 0 -0.384zm0 0.998l0 -0.463 0.273 0c0.092,0 0.162,0.019 0.212,0.057 0.048,0.037 0.072,0.096 0.072,0.175 0,0.075 -0.024,0.132 -0.07,0.173 -0.046,0.037 -0.118,0.058 -0.213,0.058l-0.274 0zm1.784 -0.998l-0.836 0 0 1.149 0.175 0 0 -0.994 0.661 0 0 -0.155zm0.379 0l-0.171 0 0 1.149 0.173 0 0.644 -0.866 0 0.866 0.172 0 0 -1.149 -0.158 0 -0.66 0.888 0 -0.888zm2.434 0.593l-0.801 0 0 0.144 0.801 0 0 -0.144zm-8.366 1.427l-0.192 0 0 1.148 0.167 0 0 -0.881 0.015 0 0.35 0.54 0.087 0 0.351 -0.54 0.016 0 0 0.881 0.17 0 0 -1.148 -0.187 0 -0.389 0.598 -0.388 -0.598zm1.8 -0.024c-0.089,0 -0.17,0.015 -0.245,0.048 -0.072,0.03 -0.137,0.073 -0.189,0.126 -0.055,0.053 -0.096,0.117 -0.125,0.189 -0.029,0.074 -0.044,0.151 -0.044,0.235 0,0.084 0.015,0.161 0.042,0.234 0.031,0.072 0.072,0.136 0.124,0.189 0.055,0.055 0.116,0.098 0.192,0.129 0.072,0.03 0.154,0.046 0.245,0.046 0.091,0 0.173,-0.016 0.245,-0.048 0.075,-0.031 0.137,-0.074 0.192,-0.127 0.051,-0.055 0.093,-0.118 0.123,-0.192 0.028,-0.072 0.043,-0.149 0.043,-0.231 0,-0.084 -0.015,-0.163 -0.043,-0.237 -0.03,-0.074 -0.07,-0.137 -0.123,-0.19 -0.053,-0.053 -0.117,-0.096 -0.19,-0.127 -0.074,-0.029 -0.156,-0.044 -0.247,-0.044zm0 0.152c0.067,0 0.127,0.012 0.18,0.033 0.053,0.024 0.099,0.054 0.135,0.092 0.036,0.041 0.065,0.088 0.084,0.141 0.021,0.055 0.031,0.115 0.031,0.18 0,0.063 -0.01,0.123 -0.029,0.176 -0.019,0.055 -0.048,0.103 -0.084,0.142 -0.038,0.04 -0.082,0.071 -0.137,0.095 -0.052,0.02 -0.113,0.032 -0.18,0.032 -0.067,0 -0.125,-0.012 -0.18,-0.034 -0.051,-0.022 -0.098,-0.055 -0.134,-0.094 -0.036,-0.04 -0.065,-0.088 -0.085,-0.141 -0.019,-0.055 -0.03,-0.113 -0.03,-0.176 0,-0.064 0.011,-0.122 0.03,-0.177 0.018,-0.053 0.048,-0.101 0.084,-0.14 0.036,-0.04 0.08,-0.072 0.135,-0.095 0.051,-0.022 0.113,-0.034 0.18,-0.034zm1.03 -0.128l-0.192 0 0 1.148 0.166 0 0 -0.881 0.016 0 0.349 0.54 0.088 0 0.351 -0.54 0.015 0 0 0.881 0.17 0 0 -1.148 -0.187 0 -0.389 0.598 -0.387 -0.598zm2.074 0l-0.826 0 0 1.148 0.857 0 0 -0.154 -0.686 0 0 -0.367 0.576 0 0 -0.151 -0.576 0 0 -0.324 0.655 0 0 -0.152zm0.449 0l-0.177 0 0 1.148 0.177 0 0 -0.509 0.617 0 0 0.509 0.175 0 0 -1.148 -0.175 0 0 0.483 -0.617 0 0 -0.483zm2.034 0l-1.016 0 0 0.154 0.421 0 0 0.994 0.174 0 0 -0.994 0.421 0 0 -0.154zm0.699 0l-0.204 0 -0.478 1.148 0.187 0 0.101 -0.261 0.581 0 0.103 0.261 0.192 0 -0.482 -1.148zm-0.336 0.737l0.223 -0.561 0.021 0 0.221 0.561 -0.465 0zm2.054 -0.737l-0.804 0 0 0.181c0,0.192 -0.005,0.35 -0.016,0.477 -0.01,0.123 -0.034,0.217 -0.07,0.279 -0.017,0.027 -0.036,0.046 -0.056,0.057 -0.021,0.012 -0.045,0.017 -0.071,0.017 -0.024,0 -0.051,-0.005 -0.08,-0.014l-0.038 0.147c0.022,0.009 0.045,0.016 0.069,0.019 0.02,0.004 0.046,0.005 0.072,0.005 0.051,0 0.096,-0.01 0.135,-0.027 0.039,-0.019 0.072,-0.048 0.099,-0.084 0.03,-0.039 0.054,-0.091 0.071,-0.153 0.017,-0.06 0.031,-0.13 0.039,-0.207 0.009,-0.077 0.016,-0.163 0.017,-0.255 0.002,-0.093 0.004,-0.191 0.004,-0.292l0.452 0 0 0.998 0.177 0 0 -1.148zm0.459 0l-0.175 0 0 1.148 0.475 0c0.062,0 0.12,-0.009 0.171,-0.028 0.055,-0.017 0.1,-0.041 0.137,-0.075 0.04,-0.031 0.069,-0.072 0.091,-0.12 0.023,-0.046 0.033,-0.099 0.033,-0.158 0,-0.061 -0.01,-0.116 -0.034,-0.164 -0.021,-0.046 -0.052,-0.086 -0.093,-0.12 -0.038,-0.031 -0.086,-0.057 -0.137,-0.074 -0.055,-0.017 -0.112,-0.026 -0.175,-0.026l-0.293 0 0 -0.383zm0 0.997l0 -0.463 0.272 0c0.093,0 0.163,0.019 0.213,0.057 0.048,0.038 0.072,0.096 0.072,0.175 0,0.075 -0.024,0.132 -0.07,0.173 -0.047,0.037 -0.119,0.058 -0.213,0.058l-0.274 0zm1.124 -0.997l-0.176 0 0 1.148 0.176 0 0 -0.509 0.617 0 0 0.509 0.175 0 0 -1.148 -0.175 0 0 0.483 -0.617 0 0 -0.483zm1.63 -0.024c-0.089,0 -0.17,0.015 -0.245,0.048 -0.072,0.03 -0.137,0.073 -0.188,0.126 -0.055,0.053 -0.096,0.117 -0.126,0.189 -0.029,0.074 -0.044,0.151 -0.044,0.235 0,0.084 0.015,0.161 0.043,0.234 0.031,0.072 0.072,0.136 0.123,0.189 0.055,0.055 0.117,0.098 0.192,0.129 0.072,0.03 0.154,0.046 0.245,0.046 0.091,0 0.173,-0.016 0.245,-0.048 0.076,-0.031 0.137,-0.074 0.192,-0.127 0.052,-0.055 0.093,-0.118 0.124,-0.192 0.027,-0.072 0.042,-0.149 0.042,-0.231 0,-0.084 -0.015,-0.163 -0.042,-0.237 -0.031,-0.074 -0.071,-0.137 -0.124,-0.19 -0.053,-0.053 -0.116,-0.096 -0.19,-0.127 -0.074,-0.029 -0.156,-0.044 -0.247,-0.044zm0 0.152c0.067,0 0.127,0.012 0.18,0.033 0.053,0.024 0.1,0.054 0.135,0.092 0.036,0.041 0.066,0.088 0.084,0.141 0.021,0.055 0.031,0.115 0.031,0.18 0,0.063 -0.01,0.123 -0.029,0.176 -0.019,0.055 -0.048,0.103 -0.084,0.142 -0.037,0.04 -0.082,0.071 -0.137,0.095 -0.051,0.02 -0.113,0.032 -0.18,0.032 -0.067,0 -0.125,-0.012 -0.18,-0.034 -0.051,-0.022 -0.098,-0.055 -0.134,-0.094 -0.035,-0.04 -0.065,-0.088 -0.085,-0.141 -0.019,-0.055 -0.029,-0.113 -0.029,-0.176 0,-0.064 0.01,-0.122 0.029,-0.177 0.019,-0.053 0.048,-0.101 0.084,-0.14 0.036,-0.04 0.08,-0.072 0.135,-0.095 0.052,-0.022 0.113,-0.034 0.18,-0.034z"/>
 </g>
</svg>
