<?xml version="1.0" encoding="UTF-8"?>
<!DOCTYPE svg PUBLIC "-//W3C//DTD SVG 1.1//EN" "http://www.w3.org/Graphics/SVG/1.1/DTD/svg11.dtd">
<!-- Creator: CorelDRAW 2018 (64-Bit) -->
<svg xmlns="http://www.w3.org/2000/svg" xml:space="preserve" width="340px" height="75px" version="1.1" style="shape-rendering:geometricPrecision; text-rendering:geometricPrecision; image-rendering:optimizeQuality; fill-rule:evenodd; clip-rule:evenodd"
viewBox="0 0 29.135 6.438"
 xmlns:xlink="http://www.w3.org/1999/xlink">
 <defs>
  <style type="text/css">
   <![CDATA[
    .str0 {stroke:#DBA71F;stroke-width:0.086;stroke-miterlimit:22.9256}
    .fil2 {fill:none}
    .fil3 {fill:#FEFEFE}
    .fil0 {fill:#DBA71F}
    .fil4 {fill:#DBA71F;fill-rule:nonzero}
    .fil1 {fill:#DBA71F;fill-rule:nonzero}
   ]]>
  </style>
 </defs>
 <g id="Слой_x0020_1">
  <metadata id="CorelCorpID_0Corel-Layer"/>
  <g>
   <path class="fil0" d="M0 0.648l29.135 0 0 5.142 -29.135 0 0 -5.142zm29.05 0.086l-28.964 0 0 4.97 28.964 0 0 -4.97z"/>
  </g>
  <g>
   <path class="fil1" d="M27.48 2.828c0.05,-0.05 0.132,-0.05 0.182,0 0.05,0.051 0.05,0.132 0,0.182l-0.6 0.6c-0.05,0.05 -0.131,0.05 -0.181,0l-0.6 -0.6c-0.05,-0.05 -0.05,-0.131 0,-0.182 0.05,-0.05 0.132,-0.05 0.182,0l0.509 0.509 0.508 -0.509z"/>
   <polygon class="fil2" points="29.135,2.874 28.316,2.874 28.316,3.564 29.135,3.564 "/>
  </g>
  <g>
   <polygon class="fil3 str0" points="3.826,0.049 5.198,0.842 6.571,1.634 6.571,3.219 6.571,4.804 5.198,5.596 3.826,6.389 2.453,5.596 1.081,4.804 1.081,3.219 1.081,1.634 2.453,0.842 "/>
   <g id="_3040960652160">
    <path class="fil4" d="M4.448 2.324l0.009 0.012c0.024,0.034 0.073,0.103 0.093,0.103l0.941 0c0.013,0 0.028,0.001 0.043,0.002 0.014,0.002 0.029,0.004 0.044,0.007 0.014,0.003 0.028,0.007 0.042,0.011 0.014,0.004 0.027,0.009 0.041,0.015 0.014,0.006 0.026,0.012 0.038,0.018 0.013,0.007 0.025,0.014 0.037,0.022 0.011,0.008 0.022,0.016 0.033,0.025 0.011,0.009 0.021,0.018 0.031,0.029l0.005 0.004c0.009,0.01 0.018,0.019 0.026,0.03 0.009,0.01 0.016,0.021 0.023,0.031 0.008,0.011 0.015,0.023 0.022,0.036 0.007,0.012 0.013,0.024 0.018,0.038 0.006,0.013 0.011,0.027 0.015,0.041 0.005,0.013 0.008,0.028 0.011,0.042 0.003,0.015 0.006,0.03 0.007,0.044 0.002,0.015 0.002,0.03 0.002,0.044l0 0.683c0,0.014 0,0.028 -0.002,0.043 -0.001,0.015 -0.004,0.029 -0.007,0.044 -0.003,0.015 -0.006,0.029 -0.011,0.043 -0.004,0.014 -0.009,0.027 -0.015,0.041 -0.005,0.013 -0.011,0.025 -0.018,0.037 -0.007,0.013 -0.014,0.025 -0.022,0.037 -0.007,0.01 -0.014,0.02 -0.023,0.031 -0.008,0.01 -0.017,0.02 -0.026,0.029l-0.005 0.005c-0.01,0.01 -0.02,0.019 -0.031,0.028 -0.011,0.009 -0.022,0.017 -0.033,0.025 -0.012,0.008 -0.024,0.015 -0.037,0.022 -0.011,0.006 -0.024,0.012 -0.038,0.018 -0.013,0.006 -0.027,0.011 -0.041,0.015 -0.014,0.005 -0.028,0.008 -0.042,0.011 -0.015,0.003 -0.03,0.005 -0.044,0.007 -0.015,0.001 -0.03,0.002 -0.043,0.002l-0.941 0c-0.02,0 -0.069,0.069 -0.093,0.103l-0.009 0.012 -0.069 -0.05 0.008 -0.012c0.033,-0.046 0.099,-0.139 0.163,-0.139l0.941 0c0.012,0 0.024,0 0.035,-0.001 0.012,-0.001 0.024,-0.003 0.035,-0.006 0.011,-0.002 0.023,-0.005 0.034,-0.008 0.011,-0.004 0.023,-0.008 0.033,-0.012 0.01,-0.004 0.02,-0.009 0.031,-0.015 0.009,-0.005 0.019,-0.011 0.029,-0.018 0.009,-0.006 0.018,-0.013 0.027,-0.02 0.009,-0.007 0.017,-0.015 0.025,-0.023l0.004 -0.004c0.007,-0.007 0.014,-0.015 0.021,-0.023 0.006,-0.008 0.012,-0.016 0.018,-0.025 0.007,-0.01 0.013,-0.02 0.018,-0.029 0.005,-0.01 0.01,-0.021 0.015,-0.031 0.004,-0.011 0.008,-0.022 0.012,-0.033 0.003,-0.011 0.006,-0.023 0.009,-0.034 0.002,-0.012 0.004,-0.023 0.005,-0.035 0.001,-0.011 0.002,-0.023 0.002,-0.035l0 -0.683c0,-0.013 -0.001,-0.024 -0.002,-0.035 -0.001,-0.012 -0.003,-0.024 -0.005,-0.036 -0.003,-0.011 -0.006,-0.022 -0.009,-0.034 -0.004,-0.011 -0.008,-0.022 -0.012,-0.033 -0.004,-0.01 -0.009,-0.02 -0.015,-0.031 -0.005,-0.009 -0.011,-0.019 -0.018,-0.028 -0.006,-0.01 -0.012,-0.018 -0.018,-0.026 -0.007,-0.007 -0.014,-0.015 -0.021,-0.023l-0.004 -0.004c-0.008,-0.008 -0.016,-0.015 -0.025,-0.023 -0.009,-0.007 -0.018,-0.014 -0.027,-0.02 -0.01,-0.006 -0.019,-0.012 -0.029,-0.018 -0.011,-0.005 -0.021,-0.01 -0.031,-0.014 -0.011,-0.005 -0.022,-0.009 -0.033,-0.013 -0.012,-0.003 -0.023,-0.006 -0.034,-0.008 -0.012,-0.003 -0.023,-0.004 -0.036,-0.006 -0.01,-0.001 -0.022,-0.001 -0.034,-0.001l-0.941 0c-0.064,0 -0.13,-0.093 -0.163,-0.139l-0.008 -0.012 0.069 -0.05z"/>
    <path class="fil1" d="M4.55 2.635l0.941 0c0.016,0 0.032,0.001 0.048,0.005l0 0c0.016,0.003 0.031,0.008 0.046,0.014l0 0c0.015,0.006 0.029,0.014 0.041,0.022 0.013,0.009 0.025,0.019 0.036,0.03l0 0c0.012,0.011 0.022,0.023 0.03,0.036 0.009,0.013 0.016,0.027 0.023,0.041 0.006,0.015 0.011,0.03 0.014,0.046 0.003,0.016 0.005,0.033 0.005,0.049l0 0.683c0,0.016 -0.002,0.032 -0.005,0.048 -0.003,0.016 -0.008,0.032 -0.014,0.046 -0.007,0.015 -0.014,0.028 -0.023,0.041 -0.008,0.013 -0.018,0.025 -0.03,0.036l0 0c-0.011,0.011 -0.023,0.021 -0.036,0.03 -0.012,0.009 -0.026,0.016 -0.041,0.022l0 0c-0.015,0.007 -0.03,0.011 -0.046,0.015l0 0c-0.016,0.003 -0.032,0.005 -0.048,0.005l-0.941 0c-0.117,0 -0.188,0.097 -0.26,0.195 -0.087,0.118 -0.175,0.239 -0.347,0.239l-1.978 0c-0.067,0 -0.128,-0.027 -0.172,-0.071l0 0c-0.044,-0.044 -0.071,-0.105 -0.071,-0.172l0 -1.552c0,-0.067 0.027,-0.127 0.071,-0.171l0 0c0.044,-0.044 0.105,-0.072 0.172,-0.072l1.978 0c0.172,0 0.26,0.121 0.347,0.24 0.072,0.098 0.143,0.195 0.26,0.195zm0.407 0.086l-0.407 0c-0.16,0 -0.244,-0.115 -0.329,-0.231 -0.074,-0.101 -0.149,-0.204 -0.278,-0.204l-1.978 0c-0.043,0 -0.083,0.018 -0.111,0.046 -0.028,0.029 -0.046,0.068 -0.046,0.111l0 1.552c0,0.043 0.018,0.082 0.046,0.111 0.028,0.028 0.068,0.046 0.111,0.046l1.978 0c0.129,0 0.204,-0.103 0.278,-0.204 0.085,-0.116 0.169,-0.23 0.329,-0.23l0.941 0c0.011,0 0.021,-0.001 0.031,-0.003 0.01,-0.002 0.02,-0.006 0.03,-0.01 0.009,-0.004 0.018,-0.008 0.026,-0.014 0.009,-0.006 0.017,-0.012 0.024,-0.019 0.007,-0.007 0.013,-0.015 0.019,-0.024 0.006,-0.008 0.011,-0.017 0.015,-0.026 0.004,-0.01 0.007,-0.02 0.009,-0.03l0 0c0.002,-0.01 0.003,-0.02 0.003,-0.031l0 -0.683c0,-0.012 -0.001,-0.022 -0.003,-0.031l0 -0.001c-0.002,-0.01 -0.005,-0.02 -0.009,-0.029 -0.004,-0.009 -0.009,-0.018 -0.015,-0.027 -0.006,-0.008 -0.012,-0.016 -0.019,-0.023 -0.007,-0.007 -0.015,-0.014 -0.024,-0.02 -0.008,-0.005 -0.017,-0.01 -0.026,-0.014 -0.01,-0.004 -0.02,-0.007 -0.03,-0.009 -0.01,-0.002 -0.02,-0.003 -0.031,-0.003l-0.534 0z"/>
    <path class="fil1" d="M2.844 2.838l-0.449 0 -0.032 0.378 0.072 0.027c0.021,-0.016 0.046,-0.028 0.074,-0.036 0.028,-0.009 0.063,-0.014 0.103,-0.014 0.054,0 0.096,0.015 0.125,0.043 0.03,0.029 0.044,0.068 0.044,0.117 0,0.025 -0.004,0.048 -0.014,0.067 -0.01,0.021 -0.023,0.038 -0.039,0.053 -0.017,0.013 -0.037,0.023 -0.059,0.031 -0.024,0.007 -0.048,0.011 -0.074,0.011 -0.042,0 -0.08,-0.007 -0.115,-0.022 -0.035,-0.014 -0.069,-0.038 -0.102,-0.072l-0.066 0.081c0.037,0.039 0.078,0.067 0.123,0.086 0.044,0.019 0.094,0.028 0.151,0.028 0.047,0 0.089,-0.007 0.127,-0.021 0.037,-0.013 0.069,-0.032 0.094,-0.057 0.026,-0.022 0.045,-0.051 0.06,-0.084 0.014,-0.031 0.02,-0.066 0.02,-0.102 0,-0.042 -0.006,-0.078 -0.019,-0.11 -0.014,-0.032 -0.032,-0.059 -0.055,-0.081 -0.023,-0.021 -0.052,-0.038 -0.083,-0.05 -0.032,-0.011 -0.067,-0.017 -0.106,-0.017 -0.031,0 -0.059,0.004 -0.083,0.008 -0.024,0.007 -0.046,0.015 -0.067,0.025l0.015 -0.187 0.355 0 0 -0.102zm0.465 -0.015c-0.038,0 -0.073,0.004 -0.104,0.015 -0.032,0.01 -0.058,0.024 -0.08,0.044 -0.022,0.018 -0.038,0.039 -0.05,0.064 -0.012,0.025 -0.018,0.053 -0.018,0.082 0,0.029 0.006,0.056 0.018,0.081 0.012,0.026 0.029,0.046 0.052,0.061 -0.037,0.02 -0.067,0.048 -0.086,0.084 -0.022,0.036 -0.032,0.075 -0.032,0.12 0,0.035 0.007,0.067 0.019,0.096 0.012,0.03 0.03,0.055 0.055,0.078 0.026,0.02 0.056,0.037 0.094,0.05 0.036,0.012 0.079,0.018 0.128,0.018 0.051,0 0.095,-0.007 0.135,-0.02 0.037,-0.012 0.07,-0.03 0.094,-0.051 0.026,-0.022 0.045,-0.046 0.057,-0.075 0.013,-0.028 0.02,-0.058 0.02,-0.088 0,-0.045 -0.011,-0.082 -0.033,-0.114 -0.022,-0.031 -0.053,-0.056 -0.093,-0.073 0.026,-0.019 0.047,-0.043 0.06,-0.07 0.015,-0.03 0.022,-0.059 0.022,-0.091 0,-0.031 -0.006,-0.059 -0.018,-0.086 -0.011,-0.025 -0.027,-0.048 -0.049,-0.066 -0.022,-0.02 -0.049,-0.034 -0.081,-0.044 -0.032,-0.011 -0.069,-0.015 -0.11,-0.015l0 0zm-0.037 0.412l0.078 0.016c0.053,0.01 0.092,0.026 0.116,0.047 0.022,0.021 0.034,0.048 0.034,0.082 0,0.041 -0.017,0.074 -0.047,0.099 -0.033,0.026 -0.08,0.039 -0.144,0.039 -0.061,0 -0.108,-0.014 -0.142,-0.041 -0.034,-0.027 -0.051,-0.064 -0.051,-0.108 0,-0.033 0.008,-0.062 0.023,-0.089 0.017,-0.026 0.041,-0.045 0.075,-0.057 0.008,0.002 0.016,0.004 0.026,0.006l0.032 0.006zm0.074 -0.084l-0.061 -0.013c-0.039,-0.008 -0.069,-0.02 -0.091,-0.036 -0.02,-0.018 -0.031,-0.041 -0.031,-0.072 0,-0.031 0.013,-0.057 0.037,-0.08 0.024,-0.021 0.06,-0.032 0.109,-0.032 0.055,0 0.094,0.011 0.117,0.034 0.025,0.024 0.037,0.051 0.037,0.084 0,0.029 -0.006,0.054 -0.018,0.075 -0.012,0.021 -0.03,0.038 -0.055,0.05 -0.013,-0.003 -0.027,-0.007 -0.044,-0.01l0 0zm0.907 -0.313l-0.449 0 -0.032 0.378 0.072 0.027c0.021,-0.016 0.046,-0.028 0.074,-0.036 0.028,-0.009 0.063,-0.014 0.103,-0.014 0.054,0 0.096,0.015 0.125,0.043 0.03,0.029 0.044,0.068 0.044,0.117 0,0.025 -0.004,0.048 -0.014,0.067 -0.01,0.021 -0.023,0.038 -0.038,0.053 -0.018,0.013 -0.038,0.023 -0.06,0.031 -0.024,0.007 -0.048,0.011 -0.074,0.011 -0.042,0 -0.08,-0.007 -0.115,-0.022 -0.035,-0.014 -0.069,-0.038 -0.102,-0.072l-0.066 0.081c0.037,0.039 0.078,0.067 0.123,0.086 0.044,0.019 0.094,0.028 0.151,0.028 0.047,0 0.089,-0.007 0.127,-0.021 0.037,-0.013 0.069,-0.032 0.094,-0.057 0.026,-0.022 0.045,-0.051 0.06,-0.084 0.014,-0.031 0.02,-0.066 0.02,-0.102 0,-0.042 -0.006,-0.078 -0.019,-0.11 -0.013,-0.032 -0.032,-0.059 -0.055,-0.081 -0.023,-0.021 -0.052,-0.038 -0.083,-0.05 -0.032,-0.011 -0.067,-0.017 -0.106,-0.017 -0.031,0 -0.059,0.004 -0.083,0.008 -0.024,0.007 -0.046,0.015 -0.067,0.025l0.015 -0.187 0.355 0 0 -0.102z"/>
    <path class="fil1" d="M3.475 4.05l-1.437 0c-0.031,0 -0.059,-0.012 -0.08,-0.033 -0.02,-0.02 -0.033,-0.048 -0.033,-0.079l0 -1.437c0,-0.031 0.013,-0.059 0.033,-0.08 0.021,-0.02 0.049,-0.033 0.08,-0.033l1.437 0 0 0.086 -1.437 0c-0.008,0 -0.014,0.003 -0.019,0.008 -0.005,0.004 -0.008,0.011 -0.008,0.019l0 1.437c0,0.007 0.003,0.014 0.008,0.019 0.005,0.005 0.011,0.008 0.019,0.008l1.437 0 0 0.085z"/>
   </g>
  </g>
  <path class="fil1" d="M8.826 1.636l-0.489 0 0 1.148 0.177 0 0 -0.348 0.293 0c0.063,0 0.122,-0.008 0.176,-0.027 0.057,-0.019 0.105,-0.045 0.146,-0.081 0.041,-0.034 0.074,-0.075 0.098,-0.127 0.022,-0.048 0.034,-0.104 0.034,-0.168 0,-0.06 -0.01,-0.113 -0.032,-0.162 -0.023,-0.05 -0.052,-0.091 -0.091,-0.126 -0.038,-0.036 -0.084,-0.061 -0.137,-0.082 -0.054,-0.017 -0.112,-0.027 -0.175,-0.027zm-0.312 0.649l0 -0.498 0.301 0c0.088,0 0.155,0.022 0.201,0.065 0.046,0.044 0.07,0.106 0.07,0.183 0,0.079 -0.025,0.141 -0.075,0.183 -0.052,0.045 -0.12,0.067 -0.208,0.067l-0.289 0zm1.523 -0.649l-0.203 0 -0.479 1.148 0.187 0 0.101 -0.261 0.581 0 0.103 0.261 0.192 0 -0.482 -1.148zm-0.335 0.737l0.222 -0.561 0.021 0 0.221 0.561 -0.464 0zm1.508 -0.257l-0.259 0 0 0.15 0.271 0c0.075,0 0.132,0.016 0.169,0.045 0.04,0.029 0.059,0.074 0.059,0.13 0,0.064 -0.024,0.115 -0.072,0.154 -0.05,0.04 -0.122,0.06 -0.216,0.06 -0.076,0 -0.144,-0.01 -0.206,-0.032 -0.062,-0.021 -0.123,-0.057 -0.185,-0.108l-0.099 0.125c0.068,0.06 0.14,0.103 0.216,0.13 0.073,0.024 0.161,0.038 0.258,0.038 0.079,0 0.149,-0.01 0.208,-0.029 0.061,-0.019 0.111,-0.046 0.151,-0.079 0.041,-0.033 0.072,-0.072 0.092,-0.115 0.019,-0.044 0.029,-0.091 0.029,-0.139 0,-0.066 -0.017,-0.121 -0.049,-0.169 -0.033,-0.045 -0.079,-0.079 -0.138,-0.098l0 -0.017c0.043,-0.019 0.074,-0.05 0.096,-0.093 0.023,-0.043 0.033,-0.089 0.033,-0.142 0,-0.043 -0.009,-0.084 -0.027,-0.123 -0.019,-0.038 -0.045,-0.071 -0.081,-0.1 -0.036,-0.029 -0.079,-0.051 -0.132,-0.068 -0.053,-0.016 -0.113,-0.024 -0.18,-0.024 -0.159,0 -0.298,0.048 -0.416,0.145l0.094 0.124c0.05,-0.041 0.101,-0.07 0.151,-0.091 0.049,-0.017 0.104,-0.027 0.162,-0.027 0.091,0 0.156,0.017 0.196,0.051 0.039,0.033 0.06,0.079 0.06,0.137 0,0.048 -0.017,0.087 -0.05,0.118 -0.032,0.031 -0.079,0.047 -0.135,0.047zm1.647 -0.48l-0.804 0 0 0.181c0,0.192 -0.005,0.35 -0.015,0.477 -0.011,0.123 -0.035,0.218 -0.071,0.279 -0.017,0.028 -0.036,0.046 -0.056,0.057 -0.021,0.012 -0.045,0.017 -0.071,0.017 -0.024,0 -0.051,-0.005 -0.08,-0.014l-0.038 0.148c0.022,0.008 0.045,0.015 0.069,0.018 0.02,0.004 0.046,0.006 0.072,0.006 0.051,0 0.096,-0.011 0.135,-0.028 0.04,-0.019 0.072,-0.048 0.1,-0.084 0.029,-0.039 0.053,-0.091 0.07,-0.152 0.017,-0.06 0.031,-0.131 0.039,-0.208 0.009,-0.077 0.016,-0.163 0.017,-0.255 0.002,-0.093 0.004,-0.19 0.004,-0.291l0.452 0 0 0.997 0.177 0 0 -1.148zm0.456 0l-0.172 0 0 1.148 0.173 0 0.645 -0.865 0 0.865 0.171 0 0 -1.148 -0.157 0 -0.66 0.887 0 -0.887zm1.249 0l-0.173 0 0 0.385c0,0.143 0.038,0.249 0.11,0.319 0.075,0.07 0.176,0.106 0.308,0.106 0.07,0 0.134,-0.008 0.196,-0.022 0.058,-0.017 0.113,-0.039 0.161,-0.07l0 0.43 0.174 0 0 -1.148 -0.174 0 0 0.56c-0.045,0.031 -0.096,0.055 -0.151,0.074 -0.058,0.017 -0.118,0.026 -0.182,0.026 -0.092,0 -0.161,-0.026 -0.204,-0.074 -0.043,-0.052 -0.065,-0.122 -0.065,-0.214l0 -0.372zm1.237 0l-0.176 0 0 1.148 0.176 0 0 -0.509 0.617 0 0 0.509 0.175 0 0 -1.148 -0.175 0 0 0.483 -0.617 0 0 -0.483zm2.3 0l-0.174 0 0 1.148 0.174 0 0 -1.148zm-1.047 0l-0.175 0 0 1.148 0.458 0c0.062,0 0.12,-0.009 0.171,-0.027 0.055,-0.018 0.1,-0.042 0.138,-0.076 0.039,-0.031 0.068,-0.072 0.09,-0.12 0.023,-0.046 0.033,-0.099 0.033,-0.157 0,-0.062 -0.01,-0.117 -0.034,-0.165 -0.021,-0.046 -0.052,-0.086 -0.093,-0.12 -0.038,-0.031 -0.086,-0.057 -0.137,-0.074 -0.055,-0.017 -0.111,-0.025 -0.175,-0.025l-0.276 0 0 -0.384zm0 0.997l0 -0.463 0.256 0c0.092,0 0.162,0.019 0.212,0.057 0.048,0.038 0.072,0.096 0.072,0.175 0,0.075 -0.024,0.132 -0.07,0.173 -0.046,0.038 -0.118,0.058 -0.213,0.058l-0.257 0zm2.158 -0.997l-0.826 0 0 1.148 0.857 0 0 -0.154 -0.686 0 0 -0.367 0.576 0 0 -0.151 -0.576 0 0 -0.324 0.655 0 0 -0.152zm-10.681 2.022l-0.192 0 0 1.148 0.167 0 0 -0.881 0.015 0 0.35 0.54 0.087 0 0.351 -0.54 0.016 0 0 0.881 0.169 0 0 -1.148 -0.186 0 -0.389 0.598 -0.388 -0.598zm2.074 0l-0.826 0 0 1.148 0.857 0 0 -0.154 -0.686 0 0 -0.367 0.576 0 0 -0.151 -0.576 0 0 -0.324 0.655 0 0 -0.152zm1.229 0l-1.016 0 0 0.154 0.421 0 0 0.994 0.173 0 0 -0.994 0.422 0 0 -0.154zm0.699 0l-0.204 0 -0.478 1.148 0.187 0 0.101 -0.261 0.581 0 0.103 0.261 0.192 0 -0.482 -1.148zm-0.336 0.737l0.223 -0.561 0.021 0 0.221 0.561 -0.465 0zm2.053 -0.737l-0.803 0 0 0.181c0,0.192 -0.006,0.35 -0.016,0.477 -0.01,0.123 -0.034,0.217 -0.07,0.279 -0.017,0.028 -0.036,0.046 -0.057,0.057 -0.02,0.012 -0.044,0.017 -0.07,0.017 -0.024,0 -0.051,-0.005 -0.08,-0.014l-0.038 0.148c0.022,0.008 0.044,0.015 0.068,0.018 0.021,0.004 0.047,0.006 0.072,0.006 0.052,0 0.096,-0.011 0.136,-0.028 0.039,-0.019 0.072,-0.048 0.099,-0.084 0.029,-0.039 0.053,-0.091 0.07,-0.152 0.018,-0.06 0.031,-0.131 0.04,-0.208 0.008,-0.077 0.015,-0.163 0.017,-0.255 0.002,-0.093 0.003,-0.19 0.003,-0.292l0.453 0 0 0.998 0.176 0 0 -1.148zm1.308 0l-0.804 0 0 0.181c0,0.192 -0.005,0.35 -0.015,0.477 -0.01,0.123 -0.034,0.217 -0.07,0.279 -0.018,0.028 -0.036,0.046 -0.057,0.057 -0.021,0.012 -0.045,0.017 -0.07,0.017 -0.024,0 -0.052,-0.005 -0.081,-0.014l-0.037 0.148c0.022,0.008 0.044,0.015 0.068,0.018 0.021,0.004 0.046,0.006 0.072,0.006 0.051,0 0.096,-0.011 0.135,-0.028 0.04,-0.019 0.072,-0.048 0.1,-0.084 0.029,-0.039 0.053,-0.091 0.07,-0.152 0.017,-0.06 0.031,-0.131 0.04,-0.208 0.008,-0.077 0.015,-0.163 0.017,-0.255 0.001,-0.093 0.003,-0.19 0.003,-0.292l0.453 0 0 0.998 0.176 0 0 -1.148zm1.507 0l-0.175 0 0 1.148 0.175 0 0 -1.148zm-1.048 0l-0.174 0 0 1.148 0.457 0c0.062,0 0.12,-0.009 0.172,-0.027 0.054,-0.018 0.099,-0.042 0.137,-0.076 0.039,-0.031 0.068,-0.072 0.091,-0.12 0.022,-0.046 0.032,-0.099 0.032,-0.158 0,-0.061 -0.01,-0.116 -0.034,-0.164 -0.021,-0.046 -0.052,-0.086 -0.093,-0.12 -0.037,-0.031 -0.085,-0.057 -0.137,-0.074 -0.055,-0.017 -0.111,-0.025 -0.175,-0.025l-0.276 0 0 -0.384zm0 0.997l0 -0.463 0.256 0c0.092,0 0.163,0.019 0.212,0.057 0.048,0.038 0.072,0.096 0.072,0.175 0,0.075 -0.024,0.132 -0.07,0.173 -0.046,0.038 -0.118,0.058 -0.213,0.058l-0.257 0z"/>
 </g>
</svg>
