<?xml version="1.0" encoding="UTF-8"?>
<!DOCTYPE svg PUBLIC "-//W3C//DTD SVG 1.1//EN" "http://www.w3.org/Graphics/SVG/1.1/DTD/svg11.dtd">
<!-- Creator: CorelDRAW 2018 (64-Bit) -->
<svg xmlns="http://www.w3.org/2000/svg" xml:space="preserve" width="340px" height="75px" version="1.1" style="shape-rendering:geometricPrecision; text-rendering:geometricPrecision; image-rendering:optimizeQuality; fill-rule:evenodd; clip-rule:evenodd"
viewBox="0 0 23.574 5.209"
 xmlns:xlink="http://www.w3.org/1999/xlink">
 <defs>
  <style type="text/css">
   <![CDATA[
    .str0 {stroke:#DBA71F;stroke-width:0.069;stroke-miterlimit:22.9256}
    .fil1 {fill:none}
    .fil3 {fill:#FEFEFE}
    .fil2 {fill:#DBA71F}
    .fil0 {fill:#DBA71F;fill-rule:nonzero}
   ]]>
  </style>
 </defs>
 <g id="Слой_x0020_1">
  <metadata id="CorelCorpID_0Corel-Layer"/>
  <g id="_2036201778688">
   <path class="fil0" d="M21.412 2.921c-0.041,0.04 -0.107,0.04 -0.147,0 -0.041,-0.041 -0.041,-0.107 0,-0.147l0.485 -0.485c0.04,-0.041 0.106,-0.041 0.147,0l0.485 0.485c0.041,0.04 0.041,0.106 0,0.147 -0.041,0.04 -0.106,0.04 -0.147,0l-0.412 -0.412 -0.411 0.412z"/>
   <polygon class="fil1" points="23.574,2.325 22.912,2.325 22.912,2.884 23.574,2.884 "/>
  </g>
  <g>
   <path class="fil2" d="M0 0.525l23.574 0 0 4.16 -23.574 0 0 -4.16zm23.505 0.069l-23.436 0 0 4.021 23.436 0 0 -4.021z"/>
  </g>
  <polygon class="fil3 str0" points="3.095,0.04 4.206,0.681 5.316,1.322 5.316,2.605 5.316,3.887 4.206,4.528 3.095,5.169 1.985,4.528 0.874,3.887 0.874,2.605 0.874,1.322 1.985,0.681 "/>
  <path class="fil0" d="M7.391 2.148l-0.667 0 0 0.932 0.398 0c0.052,0 0.101,-0.007 0.144,-0.019 0.043,-0.013 0.08,-0.033 0.112,-0.056 0.032,-0.025 0.056,-0.056 0.074,-0.092 0.018,-0.036 0.027,-0.078 0.027,-0.125 0,-0.048 -0.009,-0.089 -0.027,-0.125 -0.017,-0.038 -0.04,-0.069 -0.072,-0.094 -0.032,-0.025 -0.07,-0.043 -0.113,-0.057 -0.043,-0.011 -0.092,-0.018 -0.145,-0.018l-0.257 0 0 -0.221 0.526 0 0 -0.125zm-0.526 0.808l0 -0.339 0.263 0c0.071,0 0.124,0.015 0.157,0.046 0.035,0.03 0.052,0.072 0.052,0.125 0,0.048 -0.017,0.089 -0.052,0.119 -0.035,0.034 -0.089,0.049 -0.163,0.049l-0.257 0zm1.467 -0.808l-0.671 0 0 0.932 0.696 0 0 -0.125 -0.557 0 0 -0.298 0.468 0 0 -0.123 -0.468 0 0 -0.263 0.532 0 0 -0.123zm0.595 0.389l-0.21 0 0 0.123 0.22 0c0.061,0 0.107,0.012 0.138,0.036 0.032,0.024 0.047,0.06 0.047,0.106 0,0.051 -0.019,0.093 -0.058,0.125 -0.041,0.032 -0.099,0.049 -0.176,0.049 -0.061,0 -0.117,-0.009 -0.167,-0.027 -0.05,-0.017 -0.1,-0.046 -0.15,-0.087l-0.081 0.101c0.056,0.049 0.114,0.084 0.176,0.106 0.06,0.019 0.13,0.03 0.21,0.03 0.064,0 0.121,-0.008 0.168,-0.023 0.05,-0.015 0.091,-0.038 0.123,-0.064 0.033,-0.027 0.058,-0.059 0.075,-0.093 0.015,-0.037 0.023,-0.074 0.023,-0.113 0,-0.054 -0.013,-0.099 -0.04,-0.138 -0.026,-0.036 -0.064,-0.064 -0.111,-0.079l0 -0.014c0.035,-0.015 0.06,-0.041 0.078,-0.075 0.018,-0.035 0.026,-0.073 0.026,-0.116 0,-0.035 -0.007,-0.068 -0.022,-0.1 -0.015,-0.031 -0.036,-0.057 -0.066,-0.081 -0.029,-0.023 -0.064,-0.041 -0.107,-0.055 -0.043,-0.013 -0.092,-0.02 -0.146,-0.02 -0.129,0 -0.242,0.039 -0.338,0.118l0.077 0.101c0.04,-0.034 0.082,-0.057 0.122,-0.074 0.04,-0.014 0.085,-0.022 0.132,-0.022 0.074,0 0.127,0.013 0.159,0.041 0.032,0.027 0.049,0.064 0.049,0.112 0,0.039 -0.014,0.071 -0.041,0.096 -0.026,0.025 -0.064,0.037 -0.11,0.037zm0.969 -0.409c-0.072,0 -0.138,0.013 -0.199,0.039 -0.059,0.025 -0.111,0.06 -0.153,0.103 -0.045,0.043 -0.078,0.095 -0.102,0.153 -0.023,0.06 -0.036,0.123 -0.036,0.191 0,0.068 0.013,0.131 0.035,0.19 0.025,0.059 0.058,0.11 0.1,0.154 0.045,0.044 0.095,0.079 0.156,0.104 0.058,0.025 0.125,0.037 0.199,0.037 0.074,0 0.14,-0.012 0.199,-0.038 0.061,-0.026 0.111,-0.06 0.156,-0.103 0.041,-0.045 0.075,-0.096 0.1,-0.156 0.022,-0.059 0.035,-0.121 0.035,-0.188 0,-0.068 -0.013,-0.132 -0.035,-0.192 -0.025,-0.06 -0.057,-0.112 -0.1,-0.155 -0.043,-0.043 -0.095,-0.078 -0.155,-0.103 -0.06,-0.023 -0.126,-0.036 -0.2,-0.036zm0 0.124c0.054,0 0.103,0.01 0.146,0.026 0.043,0.02 0.081,0.045 0.11,0.076 0.029,0.033 0.053,0.071 0.068,0.114 0.017,0.044 0.025,0.093 0.025,0.146 0,0.051 -0.008,0.1 -0.023,0.143 -0.016,0.045 -0.039,0.084 -0.069,0.116 -0.03,0.032 -0.066,0.057 -0.111,0.076 -0.042,0.017 -0.092,0.027 -0.146,0.027 -0.054,0 -0.102,-0.01 -0.146,-0.028 -0.042,-0.018 -0.08,-0.045 -0.109,-0.077 -0.029,-0.032 -0.053,-0.071 -0.069,-0.114 -0.016,-0.044 -0.024,-0.092 -0.024,-0.143 0,-0.052 0.008,-0.099 0.024,-0.144 0.015,-0.043 0.039,-0.082 0.068,-0.114 0.029,-0.032 0.065,-0.058 0.11,-0.076 0.042,-0.018 0.092,-0.028 0.146,-0.028zm1.458 -0.104l-0.778 0 0 0.932 0.144 0 0 -0.804 0.491 0 0 0.804 0.143 0 0 -0.932zm0.728 0l-0.165 0 -0.389 0.932 0.152 0 0.082 -0.212 0.472 0 0.083 0.212 0.156 0 -0.391 -0.932zm-0.273 0.598l0.181 -0.455 0.017 0 0.18 0.455 -0.378 0zm1.58 -0.394l0.074 -0.1c-0.045,-0.039 -0.098,-0.07 -0.156,-0.09 -0.061,-0.023 -0.124,-0.034 -0.191,-0.034 -0.079,0 -0.152,0.013 -0.214,0.038 -0.063,0.025 -0.117,0.06 -0.16,0.104 -0.045,0.043 -0.078,0.095 -0.103,0.155 -0.022,0.059 -0.035,0.123 -0.035,0.192 0,0.075 0.013,0.142 0.035,0.201 0.025,0.06 0.058,0.11 0.1,0.152 0.045,0.042 0.095,0.074 0.156,0.096 0.058,0.022 0.125,0.033 0.197,0.033 0.16,0 0.29,-0.048 0.39,-0.144l-0.079 -0.098c-0.042,0.038 -0.088,0.066 -0.138,0.087 -0.052,0.019 -0.106,0.029 -0.166,0.029 -0.051,0 -0.098,-0.009 -0.14,-0.025 -0.045,-0.017 -0.081,-0.041 -0.113,-0.071 -0.032,-0.031 -0.056,-0.068 -0.074,-0.113 -0.018,-0.044 -0.026,-0.095 -0.026,-0.15 0,-0.054 0.008,-0.105 0.026,-0.149 0.017,-0.043 0.041,-0.081 0.073,-0.113 0.03,-0.032 0.068,-0.055 0.111,-0.072 0.045,-0.017 0.093,-0.025 0.148,-0.025 0.112,0 0.207,0.032 0.285,0.097zm0.412 -0.204l-0.144 0 0 0.932 0.144 0 0 -0.413 0.501 0 0 0.413 0.142 0 0 -0.932 -0.142 0 0 0.392 -0.501 0 0 -0.392zm1.323 -0.02c-0.072,0 -0.138,0.013 -0.199,0.039 -0.058,0.025 -0.111,0.06 -0.153,0.103 -0.044,0.043 -0.078,0.095 -0.101,0.153 -0.024,0.06 -0.037,0.123 -0.037,0.191 0,0.068 0.013,0.131 0.035,0.19 0.025,0.059 0.059,0.11 0.1,0.154 0.045,0.044 0.095,0.079 0.156,0.104 0.059,0.025 0.125,0.037 0.199,0.037 0.074,0 0.141,-0.012 0.199,-0.038 0.061,-0.026 0.112,-0.06 0.156,-0.103 0.042,-0.045 0.075,-0.096 0.1,-0.156 0.023,-0.059 0.035,-0.121 0.035,-0.188 0,-0.068 -0.012,-0.132 -0.035,-0.192 -0.025,-0.06 -0.057,-0.112 -0.1,-0.155 -0.043,-0.043 -0.095,-0.078 -0.154,-0.103 -0.06,-0.023 -0.127,-0.036 -0.201,-0.036zm0 0.124c0.054,0 0.103,0.01 0.146,0.026 0.043,0.02 0.081,0.045 0.11,0.076 0.029,0.033 0.053,0.071 0.068,0.114 0.017,0.044 0.025,0.093 0.025,0.146 0,0.051 -0.008,0.1 -0.023,0.143 -0.015,0.045 -0.039,0.084 -0.068,0.116 -0.031,0.032 -0.067,0.057 -0.112,0.076 -0.041,0.017 -0.092,0.027 -0.146,0.027 -0.054,0 -0.101,-0.01 -0.146,-0.028 -0.042,-0.018 -0.079,-0.045 -0.108,-0.077 -0.03,-0.032 -0.053,-0.071 -0.07,-0.114 -0.015,-0.044 -0.024,-0.092 -0.024,-0.143 0,-0.052 0.009,-0.099 0.024,-0.144 0.015,-0.043 0.039,-0.082 0.068,-0.114 0.029,-0.032 0.066,-0.058 0.11,-0.076 0.042,-0.018 0.092,-0.028 0.146,-0.028zm1.438 0.1l0.073 -0.1c-0.044,-0.039 -0.097,-0.07 -0.155,-0.09 -0.062,-0.023 -0.124,-0.034 -0.191,-0.034 -0.079,0 -0.152,0.013 -0.214,0.038 -0.063,0.025 -0.117,0.06 -0.16,0.104 -0.045,0.043 -0.078,0.095 -0.103,0.155 -0.023,0.059 -0.035,0.123 -0.035,0.192 0,0.075 0.012,0.142 0.035,0.201 0.025,0.06 0.058,0.11 0.1,0.152 0.044,0.042 0.094,0.074 0.156,0.096 0.058,0.022 0.125,0.033 0.197,0.033 0.16,0 0.29,-0.048 0.39,-0.144l-0.079 -0.098c-0.042,0.038 -0.088,0.066 -0.138,0.087 -0.052,0.019 -0.106,0.029 -0.166,0.029 -0.051,0 -0.099,-0.009 -0.14,-0.025 -0.045,-0.017 -0.081,-0.041 -0.113,-0.071 -0.032,-0.031 -0.056,-0.068 -0.074,-0.113 -0.018,-0.044 -0.026,-0.095 -0.026,-0.15 0,-0.054 0.008,-0.105 0.026,-0.149 0.017,-0.043 0.041,-0.081 0.073,-0.113 0.03,-0.032 0.068,-0.055 0.111,-0.072 0.044,-0.017 0.093,-0.025 0.147,-0.025 0.113,0 0.208,0.032 0.286,0.097zm1.045 -0.204l-0.825 0 0 0.125 0.342 0 0 0.807 0.141 0 0 -0.807 0.342 0 0 -0.125zm0.324 0l-0.142 0 0 0.932 0.386 0c0.05,0 0.097,-0.007 0.139,-0.022 0.044,-0.014 0.081,-0.034 0.111,-0.062 0.032,-0.025 0.056,-0.058 0.074,-0.097 0.018,-0.037 0.026,-0.081 0.026,-0.128 0,-0.05 -0.008,-0.095 -0.028,-0.134 -0.016,-0.037 -0.041,-0.069 -0.075,-0.097 -0.03,-0.025 -0.069,-0.046 -0.111,-0.06 -0.045,-0.014 -0.09,-0.021 -0.142,-0.021l-0.238 0 0 -0.311zm0 0.81l0 -0.376 0.221 0c0.076,0 0.133,0.015 0.173,0.046 0.039,0.03 0.058,0.078 0.058,0.142 0,0.061 -0.019,0.107 -0.057,0.14 -0.037,0.031 -0.096,0.048 -0.172,0.048l-0.223 0z"/>
  <path class="fil2" d="M3.661 2.023c0.014,-0.007 0.022,-0.022 0.022,-0.037l0 -0.189 0.11 -0.221 0.108 -0.054c0.015,-0.007 0.024,-0.022 0.024,-0.038l0 -0.181c0,-0.019 -0.012,-0.035 -0.03,-0.041l-0.174 -0.058 -0.418 -0.317c-0.008,-0.005 -0.017,-0.009 -0.026,-0.009l-0.363 0c-0.009,0 -0.019,0.004 -0.026,0.009l-0.418 0.317 -0.175 0.058c-0.017,0.006 -0.029,0.022 -0.029,0.041l0 0.181c0,0.016 0.009,0.031 0.024,0.038l0.108 0.054 0.11 0.221 0 0.189c0,0.015 0.008,0.03 0.022,0.037l0.012 0.007 -0.005 0.014c-0.019,0.06 -0.029,0.121 -0.029,0.184 0,0.159 0.064,0.31 0.178,0.421l0.019 0.019 -0.469 0.186c-0.099,0.039 -0.182,0.106 -0.242,0.193 -0.059,0.088 -0.091,0.19 -0.091,0.296l0 0.555c0,0.024 0.019,0.043 0.043,0.043l2.299 0c0.024,0 0.043,-0.019 0.043,-0.043l0 -0.554c0,-0.106 -0.032,-0.209 -0.091,-0.297 -0.06,-0.087 -0.144,-0.154 -0.242,-0.193l-0.469 -0.186 0.019 -0.019c0.114,-0.111 0.178,-0.262 0.178,-0.421 0,-0.063 -0.01,-0.124 -0.03,-0.184l-0.004 -0.014 0.012 -0.007zm-0.602 1.832l-0.102 -0.17 0 -0.388c0,-0.017 0.005,-0.034 0.015,-0.047l0.123 -0.164 0.123 0.164c0.01,0.014 0.016,0.03 0.016,0.047l0 0.388 -0.102 0.17 -0.073 0zm-0.127 -1.063l0 0.102c0,0.043 0.017,0.084 0.048,0.115 0.008,0.009 0.016,0.016 0.026,0.022l0.016 0.01 -0.118 0.158c-0.021,0.028 -0.033,0.063 -0.033,0.098l0 0.246 -0.414 -0.685 0.33 -0.13 0.007 0.004c0.04,0.024 0.081,0.043 0.125,0.056l0.013 0.004zm0.163 0.18c-0.02,0 -0.04,-0.008 -0.055,-0.023 -0.015,-0.015 -0.023,-0.035 -0.023,-0.055l0 -0.083 0.02 0.001c0.019,0.002 0.039,0.003 0.058,0.003 0.02,0 0.04,-0.001 0.059,-0.003l0.019 -0.001 0 0.083c0,0.043 -0.035,0.078 -0.078,0.078zm0.192 0.227l-0.118 -0.158 0.016 -0.01c0.046,-0.03 0.074,-0.082 0.074,-0.137l0 -0.102 0.013 -0.004c0.043,-0.013 0.085,-0.032 0.125,-0.056l0.007 -0.004 0.329 0.13 -0.413 0.685 0 -0.246c0,-0.035 -0.012,-0.07 -0.033,-0.098zm-0.651 -1.233c-0.004,-0.004 -0.008,-0.008 -0.014,-0.01 -0.004,-0.002 -0.008,-0.003 -0.013,-0.004l-0.015 -0.002 0 -0.121 1.003 0 0 0.126 -0.17 0.056c-0.108,0.035 -0.219,0.053 -0.332,0.053 -0.057,0 -0.114,-0.004 -0.169,-0.013 -0.056,-0.009 -0.112,-0.023 -0.165,-0.041l-0.122 -0.04 -0.003 -0.004zm-0.187 -0.46l-0.097 -0.048 0 -0.125 0.152 -0.05c0.004,-0.002 0.009,-0.004 0.012,-0.007l0.412 -0.312 0.334 0 0.412 0.312c0.004,0.003 0.008,0.005 0.013,0.007l0.152 0.05 0 0.125 -0.097 0.048c-0.009,0.004 -0.015,0.011 -0.02,0.019l-0.109 0.219 -1.036 0 -0.109 -0.219c-0.004,-0.008 -0.011,-0.015 -0.019,-0.019zm0.145 0.722c0,-0.053 0.008,-0.105 0.025,-0.156l0.005 -0.017 0.11 0.037c0.058,0.019 0.118,0.034 0.178,0.043 0.06,0.01 0.122,0.015 0.183,0.015 0.122,0 0.243,-0.019 0.358,-0.057l0.114 -0.038 0.005 0.017c0.017,0.051 0.025,0.103 0.025,0.156 0,0.167 -0.082,0.322 -0.22,0.415 -0.001,0.001 -0.002,0.001 -0.003,0.002 -0.051,0.034 -0.107,0.059 -0.167,0.072 -0.073,0.017 -0.15,0.017 -0.223,0 -0.06,-0.013 -0.117,-0.038 -0.169,-0.073 -0.138,-0.093 -0.221,-0.249 -0.221,-0.416zm-0.605 1.115c0,-0.182 0.109,-0.343 0.279,-0.41l0.109 -0.043 0.582 0.965 -0.97 0 0 -0.512zm2.213 0.512l-0.97 0 0.582 -0.965 0.109 0.043c0.169,0.067 0.279,0.228 0.279,0.411l0 0.511zm-1.107 -2.268c0.124,0 0.225,-0.1 0.225,-0.224 0,-0.124 -0.101,-0.224 -0.225,-0.224 -0.123,0 -0.224,0.1 -0.224,0.224 0,0.124 0.101,0.224 0.224,0.224zm0 -0.363c0.077,0 0.139,0.063 0.139,0.139 0,0.076 -0.062,0.139 -0.139,0.139 -0.076,0 -0.138,-0.063 -0.138,-0.139 0,-0.076 0.062,-0.139 0.138,-0.139zm0.908 2.371l-0.121 0c-0.024,0 -0.043,0.019 -0.043,0.043 0,0.023 0.019,0.043 0.043,0.043l0.121 0c0.024,0 0.043,-0.02 0.043,-0.043 0,-0.024 -0.019,-0.043 -0.043,-0.043zm-0.363 0c-0.024,0 -0.043,0.019 -0.043,0.043 0,0.023 0.019,0.043 0.043,0.043 0.024,0 0.043,-0.02 0.043,-0.043 0,-0.024 -0.019,-0.043 -0.043,-0.043z"/>
 </g>
</svg>
