<?xml version="1.0" encoding="UTF-8"?>
<!DOCTYPE svg PUBLIC "-//W3C//DTD SVG 1.1//EN" "http://www.w3.org/Graphics/SVG/1.1/DTD/svg11.dtd">
<!-- Creator: CorelDRAW 2018 (64-Bit) -->
<svg xmlns="http://www.w3.org/2000/svg" xml:space="preserve" width="340px" height="75px" version="1.1" style="shape-rendering:geometricPrecision; text-rendering:geometricPrecision; image-rendering:optimizeQuality; fill-rule:evenodd; clip-rule:evenodd"
viewBox="0 0 17158 3792"
 xmlns:xlink="http://www.w3.org/1999/xlink">
 <defs>
  <style type="text/css">
   <![CDATA[
    .str0 {stroke:#DBA71F;stroke-width:50;stroke-miterlimit:22.9256}
    .fil2 {fill:none}
    .fil3 {fill:#FEFEFE}
    .fil0 {fill:#DBA71F}
    .fil1 {fill:#DBA71F;fill-rule:nonzero}
   ]]>
  </style>
 </defs>
 <g id="Слой_x0020_1">
  <metadata id="CorelCorpID_0Corel-Layer"/>
  <g>
   <path class="fil0" d="M0 382l17158 0 0 3028 -17158 0 0 -3028zm17108 50l-17058 0 0 2927 17058 0 0 -2927z"/>
  </g>
  <g>
   <path class="fil1" d="M16184 2126c29,29 77,29 107,0 29,-30 29,-78 0,-107l-354 -353c-29,-30 -77,-30 -107,0l-353 353c-29,29 -29,77 0,107 30,29 78,29 107,0l300 -300 300 300z"/>
   <polygon class="fil2" points="17158,2099 16676,2099 16676,1692 17158,1692 "/>
  </g>
  <g>
   <polygon class="fil3 str0" points="2253,29 3061,496 3870,962 3870,1896 3870,2829 3061,3296 2253,3762 1445,3296 636,2829 636,1896 636,962 1445,496 "/>
   <g id="_1852043747680">
    <path class="fil1" d="M2351 1300c-18,0 -33,-14 -33,-33l0 -196c0,-18 15,-33 33,-33l33 0 -132 -174 -130 174 33 0c18,0 32,15 32,33l0 196c0,19 -14,33 -32,33 -18,0 -33,-14 -33,-33l0 -163 -65 0c-13,0 -24,-7 -30,-18 -5,-11 -4,-25 3,-35l196 -261c6,-9 16,-14 26,-14 10,0 20,5 26,14l198 261c7,10 8,24 3,35 -6,11 -17,18 -30,18l-65 0 0 163c0,19 -15,33 -33,33z"/>
    <path class="fil1" d="M1696 1595c-18,0 -32,-15 -32,-33l0 -229c0,-18 14,-33 32,-33l33 0 -132 -174 -130 174 33 0c18,0 33,15 33,33l0 229c0,18 -15,33 -33,33 -18,0 -33,-15 -33,-33l0 -196 -65 0c-13,0 -24,-7 -29,-18 -6,-11 -5,-25 3,-35l195 -262c6,-8 16,-13 26,-13 11,0 20,5 26,13l198 262c7,10 8,23 3,35 -6,11 -17,18 -29,18l-66 0 0 196c0,18 -14,33 -33,33z"/>
    <path class="fil1" d="M2351 1464c-18,0 -33,-15 -33,-33l0 -33c0,-18 15,-32 33,-32 18,0 33,14 33,32l0 33c0,18 -15,33 -33,33z"/>
    <path class="fil1" d="M2155 1464c-18,0 -33,-15 -33,-33l0 -33c0,-18 15,-32 33,-32 18,0 32,14 32,32l0 33c0,18 -14,33 -32,33z"/>
    <path class="fil1" d="M2351 1595c-18,0 -33,-15 -33,-33l0 -33c0,-18 15,-32 33,-32 18,0 33,14 33,32l0 33c0,18 -15,33 -33,33z"/>
    <path class="fil1" d="M2155 1595c-18,0 -33,-15 -33,-33l0 -33c0,-18 15,-32 33,-32 18,0 32,14 32,32l0 33c0,18 -14,33 -32,33z"/>
    <path class="fil1" d="M1500 1758c-18,0 -33,-14 -33,-32l0 -33c0,-18 15,-33 33,-33 18,0 33,15 33,33l0 33c0,18 -15,32 -33,32z"/>
    <path class="fil1" d="M1500 1889c-18,0 -33,-14 -33,-32l0 -33c0,-18 15,-33 33,-33 18,0 33,15 33,33l0 33c0,18 -15,32 -33,32z"/>
    <path class="fil1" d="M1500 2020c-18,0 -33,-14 -33,-32l0 -33c0,-18 15,-33 33,-33 18,0 33,15 33,33l0 33c0,18 -15,32 -33,32z"/>
    <path class="fil1" d="M1696 1758c-18,0 -32,-14 -32,-32l0 -33c0,-18 14,-33 32,-33 19,0 33,15 33,33l0 33c0,18 -14,32 -33,32z"/>
    <path class="fil1" d="M1696 1889c-18,0 -32,-14 -32,-32l0 -33c0,-18 14,-33 32,-33 19,0 33,15 33,33l0 33c0,18 -14,32 -33,32z"/>
    <path class="fil1" d="M1696 2020c-18,0 -32,-14 -32,-32l0 -33c0,-18 14,-33 32,-33 19,0 33,15 33,33l0 33c0,18 -14,32 -33,32z"/>
    <path class="fil1" d="M3006 1562c-18,0 -33,-15 -33,-33l0 -229c0,-18 15,-33 33,-33l32 0 -131 -174 -131 174 33 0c18,0 33,15 33,33l0 229c0,18 -15,33 -33,33 -18,0 -32,-15 -32,-33l0 -196 -66 0c-12,0 -24,-7 -29,-18 -6,-11 -4,-25 3,-34l195 -262c7,-9 16,-13 27,-13 10,0 20,4 26,13l197 262c8,9 9,23 3,34 -5,11 -17,18 -29,18l-65 0 0 196c0,18 -15,33 -33,33z"/>
    <path class="fil1" d="M2809 1726c-18,0 -32,-15 -32,-33l0 -33c0,-18 14,-32 32,-32 18,0 33,14 33,32l0 33c0,18 -15,33 -33,33z"/>
    <path class="fil1" d="M3167 2696l-131 -328c-5,-12 -17,-20 -30,-20l-142 0 -122 -307c-5,-12 -17,-21 -31,-21l-141 0 -123 -306c-5,-13 -17,-21 -30,-21l-328 0c-13,0 -25,8 -30,21l-123 306 -141 0c-14,0 -26,9 -31,21l-122 307 -142 0c-13,0 -25,8 -30,20l-131 328c-4,10 -3,21 3,30 6,9 16,14 27,14l1768 0c11,0 21,-5 27,-14 6,-9 7,-20 3,-30zm-478 -610l105 262 -493 0 105 -262 283 0zm-436 206l-83 -206 165 0 -82 206zm-141 -534l282 0 105 262 -492 0 105 -262zm-295 328l283 0 105 262 -493 0 105 -262zm-399 589l104 -262 283 0 105 262 -492 0zm458 -262l165 0 -83 207 -82 -207zm131 262l105 -262 282 0 105 262 -492 0zm458 -262l165 0 -82 207 -83 -207zm131 262l105 -262 283 0 104 262 -492 0z"/>
    <path class="fil1" d="M2809 1857c18,0 33,-15 33,-33l0 -33c0,-18 -15,-33 -33,-33 -18,0 -32,15 -32,33l0 33c0,18 14,33 32,33z"/>
    <path class="fil1" d="M2809 1988c18,0 33,-15 33,-33l0 -33c0,-18 -15,-33 -33,-33 -18,0 -32,15 -32,33l0 33c0,18 14,33 32,33z"/>
    <path class="fil1" d="M3006 1726c-18,0 -33,-15 -33,-33l0 -33c0,-18 15,-32 33,-32 18,0 33,14 33,32l0 33c0,18 -15,33 -33,33z"/>
    <path class="fil1" d="M3006 1857c-18,0 -33,-15 -33,-33l0 -33c0,-18 15,-33 33,-33 18,0 33,15 33,33l0 33c0,18 -15,33 -33,33z"/>
    <path class="fil1" d="M3006 1988c-18,0 -33,-15 -33,-33l0 -33c0,-18 15,-33 33,-33 18,0 33,15 33,33l0 33c0,18 -15,33 -33,33z"/>
   </g>
  </g>
 </g>
</svg>
