<?xml version="1.0" encoding="UTF-8"?>
<!DOCTYPE svg PUBLIC "-//W3C//DTD SVG 1.1//EN" "http://www.w3.org/Graphics/SVG/1.1/DTD/svg11.dtd">
<!-- Creator: CorelDRAW 2018 (64-Bit) -->
<svg xmlns="http://www.w3.org/2000/svg" xml:space="preserve" width="31px" height="34px" version="1.1" style="shape-rendering:geometricPrecision; text-rendering:geometricPrecision; image-rendering:optimizeQuality; fill-rule:evenodd; clip-rule:evenodd"
viewBox="0 0 0.711 0.768"
 xmlns:xlink="http://www.w3.org/1999/xlink">
 <defs>
  <style type="text/css">
   <![CDATA[
    .fil0 {fill:#FEFEFE;fill-rule:nonzero}
    .fil1 {fill:#DBA71F;fill-rule:nonzero}
   ]]>
  </style>
 </defs>
 <g id="Слой_x0020_1">
  <metadata id="CorelCorpID_0Corel-Layer"/>
  <g id="_2045509936304">
   <path class="fil0" d="M0.711 0.298c0,-0.049 -0.019,-0.095 -0.054,-0.13l-0.114 -0.114c-0.035,-0.035 -0.081,-0.054 -0.13,-0.054l-0.206 0c-0.006,0 -0.011,0.005 -0.011,0.011 0,0.006 0.005,0.012 0.011,0.012l0.181 0c0.047,0 0.085,0.038 0.085,0.085l0 0.059c0,0.039 0.032,0.071 0.071,0.071l0.059 0c0.047,0 0.085,0.038 0.085,0.085l0 0.374c0,0.027 -0.022,0.049 -0.048,0.049l-0.492 0c-0.022,0 -0.041,-0.015 -0.047,-0.036l0 -0.07 0.365 0c0.049,0 0.09,-0.04 0.09,-0.089l0 -0.025c0,-0.006 -0.006,-0.011 -0.012,-0.011 -0.006,0 -0.011,0.005 -0.011,0.011l0 0.025c0,0.037 -0.03,0.067 -0.067,0.067l-0.404 0c-0.022,0 -0.039,-0.018 -0.039,-0.04l0 -0.243c0.01,0.009 0.024,0.014 0.039,0.014l0.404 0c0.037,0 0.067,0.03 0.067,0.067l0 0.065c0,0.006 0.005,0.011 0.011,0.011 0.006,0 0.012,-0.005 0.012,-0.011l0 -0.065c0,-0.049 -0.041,-0.09 -0.09,-0.09l-0.367 0 0 -0.255c0,-0.027 0.022,-0.048 0.049,-0.048l0.014 0c0.006,0 0.011,-0.006 0.011,-0.012 0,-0.006 -0.005,-0.011 -0.011,-0.011l-0.014 0c-0.039,0 -0.071,0.032 -0.071,0.071l0 0.154 -0.015 0c-0.034,0 -0.062,0.027 -0.062,0.062l0 0.291c0,0.035 0.028,0.062 0.062,0.062l0.016 0 0.001 0.071c0,0.001 0,0.002 0,0.003 0.008,0.032 0.036,0.054 0.069,0.054l0.492 0c0.039,0 0.071,-0.031 0.071,-0.071l0 -0.399zm-0.649 -0.051l0.015 0 0 0.079 -0.015 0c-0.022,0 -0.039,-0.017 -0.039,-0.039 0,-0.022 0.017,-0.04 0.039,-0.04zm0.541 -0.032l-0.059 0c-0.027,0 -0.048,-0.022 -0.048,-0.048l0 -0.059c0,-0.031 -0.013,-0.058 -0.033,-0.078 0.024,0.008 0.046,0.021 0.064,0.04l0.114 0.114c0.019,0.018 0.032,0.04 0.04,0.064 -0.02,-0.02 -0.048,-0.033 -0.078,-0.033z"/>
   <path class="fil1" d="M0.453 0.423c0.007,0 0.012,-0.005 0.012,-0.011 0,-0.007 -0.005,-0.012 -0.012,-0.012l-0.058 0c-0.006,0 -0.011,0.005 -0.011,0.012l0 0.143c0,0.006 0.005,0.011 0.011,0.011 0.007,0 0.012,-0.005 0.012,-0.011l0 -0.062 0.042 0c0.006,0 0.011,-0.005 0.011,-0.011 0,-0.006 -0.005,-0.011 -0.011,-0.011l-0.042 0 0 -0.048 0.046 0z"/>
   <path class="fil1" d="M0.248 0.4c-0.003,0 -0.006,0.002 -0.008,0.004 -0.002,0.002 -0.004,0.005 -0.004,0.008l0 0.14c0,0.001 0.001,0.002 0.001,0.003 0,0.003 0.001,0.006 0.003,0.008 0.002,0.002 0.005,0.003 0.008,0.003l0 0c0.001,0 0.03,0 0.042,0 0.02,-0.001 0.037,-0.01 0.05,-0.026 0.011,-0.015 0.017,-0.035 0.017,-0.057 0,-0.049 -0.027,-0.083 -0.069,-0.083l-0.04 0 0 0zm0.087 0.083c0,0.035 -0.019,0.06 -0.046,0.06 -0.007,0 -0.02,0 -0.03,0.001 0,-0.017 0,-0.047 0,-0.061 0,-0.012 0,-0.043 0,-0.06l0.029 0c0.023,0 0.047,0.016 0.047,0.06z"/>
   <path class="fil1" d="M0.125 0.399c-0.003,0 -0.006,0.002 -0.008,0.004 -0.002,0.002 -0.003,0.005 -0.003,0.008 0,0 0,0 0,0l0 0.144c0,0.006 0.005,0.011 0.011,0.011 0.006,0 0.011,-0.005 0.011,-0.011l0 -0.052c0.01,0 0.023,0 0.029,0 0.029,0 0.053,-0.023 0.053,-0.052 0,-0.028 -0.024,-0.052 -0.053,-0.052l-0.04 0zm0.071 0.052c0,0.016 -0.014,0.03 -0.031,0.03 -0.006,0 -0.019,0 -0.028,0 0,-0.01 0,-0.023 0,-0.03 0,-0.005 -0.001,-0.019 -0.001,-0.029l0.029 0c0.017,0 0.031,0.013 0.031,0.029z"/>
  </g>
 </g>
</svg>
