<?xml version="1.0" encoding="UTF-8"?>
<!DOCTYPE svg PUBLIC "-//W3C//DTD SVG 1.1//EN" "http://www.w3.org/Graphics/SVG/1.1/DTD/svg11.dtd">
<!-- Creator: CorelDRAW 2018 (64-Bit) -->
<svg xmlns="http://www.w3.org/2000/svg" xml:space="preserve" width="12px" height="12px" version="1.1" style="shape-rendering:geometricPrecision; text-rendering:geometricPrecision; image-rendering:optimizeQuality; fill-rule:evenodd; clip-rule:evenodd"
viewBox="0 0 0.086 0.086"
 xmlns:xlink="http://www.w3.org/1999/xlink">
 <defs>
  <style type="text/css">
   <![CDATA[
    .fil2 {fill:#2E4B9F;fill-rule:nonzero}
    .fil1 {fill:#D93729;fill-rule:nonzero}
    .fil0 {fill:white;fill-rule:nonzero}
   ]]>
  </style>
 </defs>
 <g id="Слой_x0020_1">
  <metadata id="CorelCorpID_0Corel-Layer"/>
  <g id="_2387547569472">
   <path class="fil0" d="M0.002 0.029l0.082 0c-0.006,-0.017 -0.022,-0.029 -0.041,-0.029 -0.019,0 -0.035,0.012 -0.041,0.029z"/>
   <path class="fil1" d="M0.042 0.086l0.002 0c0.018,0 0.034,-0.012 0.04,-0.029l-0.082 0c0.006,0.017 0.022,0.029 0.04,0.029z"/>
   <path class="fil2" d="M0.002 0.057l0.082 0c0.001,-0.004 0.002,-0.009 0.002,-0.014 0,-0.005 -0.001,-0.01 -0.002,-0.014l-0.082 0c-0.001,0.004 -0.002,0.009 -0.002,0.014 0,0.005 0.001,0.01 0.002,0.014z"/>
  </g>
 </g>
</svg>
